  0
SECTION
  2
BLOCKS
  0
ENDSEC
  0
SECTION
  2
ENTITIES
  0
LINE
  8
0
 10
40.9802
 20
0.0481415
 11
41.9509
 21
0.192139
  0
LINE
  8
0
 10
41.9509
 20
0.192139
 11
42.9028
 21
0.430588
  0
LINE
  8
0
 10
42.9028
 20
0.430588
 11
43.8268
 21
0.7612
  0
LINE
  8
0
 10
43.8268
 20
0.7612
 11
44.714
 21
1.18079
  0
LINE
  8
0
 10
44.714
 20
1.18079
 11
45.5557
 21
1.6853
  0
LINE
  8
0
 10
45.5557
 20
1.6853
 11
46.3439
 21
2.26988
  0
LINE
  8
0
 10
46.3439
 20
2.26988
 11
47.0711
 21
2.92892
  0
LINE
  8
0
 10
47.0711
 20
2.92892
 11
47.7301
 21
3.65607
  0
LINE
  8
0
 10
47.7301
 20
3.65607
 11
48.3147
 21
4.44429
  0
LINE
  8
0
 10
48.3147
 20
4.44429
 11
48.8192
 21
5.28603
  0
LINE
  8
0
 10
48.8192
 20
5.28603
 11
49.2388
 21
6.17316
  0
LINE
  8
0
 10
49.2388
 20
6.17316
 11
49.5694
 21
7.09715
  0
LINE
  8
0
 10
49.5694
 20
7.09715
 11
49.8078
 21
8.04909
  0
LINE
  8
0
 10
49.8078
 20
8.04909
 11
49.9518
 21
9.01982
  0
LINE
  8
0
 10
49.9518
 20
9.01982
 11
50
 21
10
  0
LINE
  8
0
 10
50
 20
10
 11
50
 21
165
  0
LINE
  8
0
 10
50
 20
165
 11
49.9518
 21
165.98
  0
LINE
  8
0
 10
49.9518
 20
165.98
 11
49.8078
 21
166.951
  0
LINE
  8
0
 10
49.8078
 20
166.951
 11
49.5694
 21
167.903
  0
LINE
  8
0
 10
49.5694
 20
167.903
 11
49.2388
 21
168.827
  0
LINE
  8
0
 10
49.2388
 20
168.827
 11
48.8192
 21
169.714
  0
LINE
  8
0
 10
48.8192
 20
169.714
 11
48.3147
 21
170.556
  0
LINE
  8
0
 10
48.3147
 20
170.556
 11
47.7301
 21
171.344
  0
LINE
  8
0
 10
47.7301
 20
171.344
 11
47.0711
 21
172.071
  0
LINE
  8
0
 10
47.0711
 20
172.071
 11
46.3439
 21
172.73
  0
LINE
  8
0
 10
46.3439
 20
172.73
 11
45.5557
 21
173.315
  0
LINE
  8
0
 10
45.5557
 20
173.315
 11
44.714
 21
173.819
  0
LINE
  8
0
 10
44.714
 20
173.819
 11
43.8268
 21
174.239
  0
LINE
  8
0
 10
43.8268
 20
174.239
 11
42.9028
 21
174.569
  0
LINE
  8
0
 10
42.9028
 20
174.569
 11
41.9509
 21
174.808
  0
LINE
  8
0
 10
41.9509
 20
174.808
 11
40.9802
 21
174.952
  0
LINE
  8
0
 10
40.9802
 20
174.952
 11
40
 21
175
  0
LINE
  8
0
 10
40
 20
175
 11
10
 21
175
  0
LINE
  8
0
 10
10
 20
175
 11
9.01982
 21
174.952
  0
LINE
  8
0
 10
9.01982
 20
174.952
 11
8.04909
 21
174.808
  0
LINE
  8
0
 10
8.04909
 20
174.808
 11
7.09715
 21
174.569
  0
LINE
  8
0
 10
7.09715
 20
174.569
 11
6.17316
 21
174.239
  0
LINE
  8
0
 10
6.17316
 20
174.239
 11
5.28603
 21
173.819
  0
LINE
  8
0
 10
5.28603
 20
173.819
 11
4.44429
 21
173.315
  0
LINE
  8
0
 10
4.44429
 20
173.315
 11
3.65607
 21
172.73
  0
LINE
  8
0
 10
3.65607
 20
172.73
 11
2.92892
 21
172.071
  0
LINE
  8
0
 10
2.92892
 20
172.071
 11
2.26988
 21
171.344
  0
LINE
  8
0
 10
2.26988
 20
171.344
 11
1.6853
 21
170.556
  0
LINE
  8
0
 10
1.6853
 20
170.556
 11
1.18079
 21
169.714
  0
LINE
  8
0
 10
1.18079
 20
169.714
 11
0.7612
 21
168.827
  0
LINE
  8
0
 10
0.7612
 20
168.827
 11
0.430588
 21
167.903
  0
LINE
  8
0
 10
0.430588
 20
167.903
 11
0.192139
 21
166.951
  0
LINE
  8
0
 10
0.192139
 20
166.951
 11
0.0481415
 21
165.98
  0
LINE
  8
0
 10
0.0481415
 20
165.98
 11
0
 21
165
  0
LINE
  8
0
 10
0
 20
165
 11
0
 21
10
  0
LINE
  8
0
 10
0
 20
10
 11
0.0481415
 21
9.01982
  0
LINE
  8
0
 10
0.0481415
 20
9.01982
 11
0.192139
 21
8.04909
  0
LINE
  8
0
 10
0.192139
 20
8.04909
 11
0.430588
 21
7.09715
  0
LINE
  8
0
 10
0.430588
 20
7.09715
 11
0.7612
 21
6.17316
  0
LINE
  8
0
 10
0.7612
 20
6.17316
 11
1.18079
 21
5.28603
  0
LINE
  8
0
 10
1.18079
 20
5.28603
 11
1.6853
 21
4.44429
  0
LINE
  8
0
 10
1.6853
 20
4.44429
 11
2.26988
 21
3.65607
  0
LINE
  8
0
 10
2.26988
 20
3.65607
 11
2.92892
 21
2.92892
  0
LINE
  8
0
 10
2.92892
 20
2.92892
 11
3.65607
 21
2.26988
  0
LINE
  8
0
 10
3.65607
 20
2.26988
 11
4.44429
 21
1.6853
  0
LINE
  8
0
 10
4.44429
 20
1.6853
 11
5.28603
 21
1.18079
  0
LINE
  8
0
 10
5.28603
 20
1.18079
 11
6.17316
 21
0.7612
  0
LINE
  8
0
 10
6.17316
 20
0.7612
 11
7.09715
 21
0.430588
  0
LINE
  8
0
 10
7.09715
 20
0.430588
 11
8.04909
 21
0.192139
  0
LINE
  8
0
 10
8.04909
 20
0.192139
 11
9.01982
 21
0.0481415
  0
LINE
  8
0
 10
9.01982
 20
0.0481415
 11
10
 21
0
  0
LINE
  8
0
 10
10
 20
0
 11
40
 21
0
  0
LINE
  8
0
 10
40
 20
0
 11
40.9802
 21
0.0481415
  0
LINE
  8
0
 10
22.902
 20
156.755
 11
22.8049
 21
156.769
  0
LINE
  8
0
 10
22.8049
 20
156.769
 11
22.3049
 21
156.888
  0
LINE
  8
0
 10
22.3049
 20
156.888
 11
22.2097
 21
156.912
  0
LINE
  8
0
 10
22.2097
 20
156.912
 11
22.1173
 21
156.945
  0
LINE
  8
0
 10
22.1173
 20
156.945
 11
22.0286
 21
156.987
  0
LINE
  8
0
 10
22.0286
 20
156.987
 11
21.9444
 21
157.037
  0
LINE
  8
0
 10
21.9444
 20
157.037
 11
21.4444
 21
157.387
  0
LINE
  8
0
 10
21.4444
 20
157.387
 11
21.3656
 21
157.445
  0
LINE
  8
0
 10
21.3656
 20
157.445
 11
21.2929
 21
157.511
  0
LINE
  8
0
 10
21.2929
 20
157.511
 11
21.227
 21
157.584
  0
LINE
  8
0
 10
21.227
 20
157.584
 11
20.727
 21
158.149
  0
LINE
  8
0
 10
20.727
 20
158.149
 11
20.6685
 21
158.228
  0
LINE
  8
0
 10
20.6685
 20
158.228
 11
20.1685
 21
158.98
  0
LINE
  8
0
 10
20.1685
 20
158.98
 11
20.1181
 21
159.065
  0
LINE
  8
0
 10
20.1181
 20
159.065
 11
19.6181
 21
159.97
  0
LINE
  8
0
 10
19.6181
 20
159.97
 11
19.1181
 21
160.985
  0
LINE
  8
0
 10
19.1181
 20
160.985
 11
19.0761
 21
161.073
  0
LINE
  8
0
 10
19.0761
 20
161.073
 11
18.5761
 21
162.149
  0
LINE
  8
0
 10
18.5761
 20
162.149
 11
18.0883
 21
163.209
  0
LINE
  8
0
 10
18.0883
 20
163.209
 11
17.6181
 21
164.192
  0
LINE
  8
0
 10
17.6181
 20
164.192
 11
17.124
 21
165.135
  0
LINE
  8
0
 10
17.124
 20
165.135
 11
16.6787
 21
165.864
  0
LINE
  8
0
 10
16.6787
 20
165.864
 11
16.2685
 21
166.392
  0
LINE
  8
0
 10
16.2685
 20
166.392
 11
15.9628
 21
166.66
  0
LINE
  8
0
 10
15.9628
 20
166.66
 11
15.817
 21
166.722
  0
LINE
  8
0
 10
15.817
 20
166.722
 11
15.7678
 21
166.72
  0
LINE
  8
0
 10
15.7678
 20
166.72
 11
15.5885
 21
166.627
  0
LINE
  8
0
 10
15.5885
 20
166.627
 11
15.252
 21
166.303
  0
LINE
  8
0
 10
15.252
 20
166.303
 11
14.8359
 21
165.736
  0
LINE
  8
0
 10
14.8359
 20
165.736
 11
14.3819
 21
164.965
  0
LINE
  8
0
 10
14.3819
 20
164.965
 11
13.8821
 21
163.989
  0
LINE
  8
0
 10
13.8821
 20
163.989
 11
13.4239
 21
163.02
  0
LINE
  8
0
 10
13.4239
 20
163.02
 11
12.9239
 21
161.932
  0
LINE
  8
0
 10
12.9239
 20
161.932
 11
12.4239
 21
160.864
  0
LINE
  8
0
 10
12.4239
 20
160.864
 11
12.3819
 21
160.775
  0
LINE
  8
0
 10
12.3819
 20
160.775
 11
11.8819
 21
159.779
  0
LINE
  8
0
 10
11.8819
 20
159.779
 11
11.3819
 21
158.901
  0
LINE
  8
0
 10
11.3819
 20
158.901
 11
11.3315
 21
158.816
  0
LINE
  8
0
 10
11.3315
 20
158.816
 11
10.8315
 21
158.099
  0
LINE
  8
0
 10
10.8315
 20
158.099
 11
10.773
 21
158.02
  0
LINE
  8
0
 10
10.773
 20
158.02
 11
10.7071
 21
157.947
  0
LINE
  8
0
 10
10.7071
 20
157.947
 11
10.2071
 21
157.424
  0
LINE
  8
0
 10
10.2071
 20
157.424
 11
10.1344
 21
157.358
  0
LINE
  8
0
 10
10.1344
 20
157.358
 11
10.0556
 21
157.299
  0
LINE
  8
0
 10
10.0556
 20
157.299
 11
9.55556
 21
156.995
  0
LINE
  8
0
 10
9.55556
 20
156.995
 11
9.47139
 21
156.944
  0
LINE
  8
0
 10
9.47139
 20
156.944
 11
9.38268
 21
156.902
  0
LINE
  8
0
 10
9.38268
 20
156.902
 11
9.29028
 21
156.869
  0
LINE
  8
0
 10
9.29028
 20
156.869
 11
9.19508
 21
156.845
  0
LINE
  8
0
 10
9.19508
 20
156.845
 11
9.09801
 21
156.831
  0
LINE
  8
0
 10
9.09801
 20
156.831
 11
8.59801
 21
156.76
  0
LINE
  8
0
 10
8.59801
 20
156.76
 11
8.5
 21
156.755
  0
LINE
  8
0
 10
8.5
 20
156.755
 11
8.40198
 21
156.76
  0
LINE
  8
0
 10
8.40198
 20
156.76
 11
8.3049
 21
156.774
  0
LINE
  8
0
 10
8.3049
 20
156.774
 11
8.2097
 21
156.798
  0
LINE
  8
0
 10
8.2097
 20
156.798
 11
7.7097
 21
156.963
  0
LINE
  8
0
 10
7.7097
 20
156.963
 11
7.61731
 21
156.997
  0
LINE
  8
0
 10
7.61731
 20
156.997
 11
7.52859
 21
157.038
  0
LINE
  8
0
 10
7.52859
 20
157.038
 11
7.44443
 21
157.089
  0
LINE
  8
0
 10
7.44443
 20
157.089
 11
7.3656
 21
157.147
  0
LINE
  8
0
 10
7.3656
 20
157.147
 11
6.8656
 21
157.542
  0
LINE
  8
0
 10
6.8656
 20
157.542
 11
6.79289
 21
157.608
  0
LINE
  8
0
 10
6.79289
 20
157.608
 11
6.72697
 21
157.681
  0
LINE
  8
0
 10
6.72697
 20
157.681
 11
6.22697
 21
158.285
  0
LINE
  8
0
 10
6.22697
 20
158.285
 11
6.16852
 21
158.364
  0
LINE
  8
0
 10
6.16852
 20
158.364
 11
5.66852
 21
159.151
  0
LINE
  8
0
 10
5.66852
 20
159.151
 11
5.61807
 21
159.235
  0
LINE
  8
0
 10
5.61807
 20
159.235
 11
5.11807
 21
160.166
  0
LINE
  8
0
 10
5.11807
 20
160.166
 11
4.61809
 21
161.196
  0
LINE
  8
0
 10
4.61809
 20
161.196
 11
4.57613
 21
161.285
  0
LINE
  8
0
 10
4.57613
 20
161.285
 11
4.07613
 21
162.367
  0
LINE
  8
0
 10
4.07613
 20
162.367
 11
4.04306
 21
162.46
  0
LINE
  8
0
 10
4.04306
 20
162.46
 11
4.01923
 21
162.555
  0
LINE
  8
0
 10
4.01923
 20
162.555
 11
4.00482
 21
162.652
  0
LINE
  8
0
 10
4.00482
 20
162.652
 11
4
 21
162.75
  0
LINE
  8
0
 10
4
 20
162.75
 11
4.00482
 21
162.848
  0
LINE
  8
0
 10
4.00482
 20
162.848
 11
4.01923
 21
162.945
  0
LINE
  8
0
 10
4.01923
 20
162.945
 11
4.04306
 21
163.04
  0
LINE
  8
0
 10
4.04306
 20
163.04
 11
4.07613
 21
163.133
  0
LINE
  8
0
 10
4.07613
 20
163.133
 11
4.11809
 21
163.221
  0
LINE
  8
0
 10
4.11809
 20
163.221
 11
4.16853
 21
163.306
  0
LINE
  8
0
 10
4.16853
 20
163.306
 11
4.22699
 21
163.384
  0
LINE
  8
0
 10
4.22699
 20
163.384
 11
4.29291
 21
163.457
  0
LINE
  8
0
 10
4.29291
 20
163.457
 11
4.36562
 21
163.523
  0
LINE
  8
0
 10
4.36562
 20
163.523
 11
4.44444
 21
163.581
  0
LINE
  8
0
 10
4.44444
 20
163.581
 11
4.52861
 21
163.632
  0
LINE
  8
0
 10
4.52861
 20
163.632
 11
4.61732
 21
163.674
  0
LINE
  8
0
 10
4.61732
 20
163.674
 11
4.70972
 21
163.707
  0
LINE
  8
0
 10
4.70972
 20
163.707
 11
4.80492
 21
163.731
  0
LINE
  8
0
 10
4.80492
 20
163.731
 11
4.90199
 21
163.745
  0
LINE
  8
0
 10
4.90199
 20
163.745
 11
5
 21
163.75
  0
LINE
  8
0
 10
5
 20
163.75
 11
5.09801
 21
163.745
  0
LINE
  8
0
 10
5.09801
 20
163.745
 11
5.19508
 21
163.731
  0
LINE
  8
0
 10
5.19508
 20
163.731
 11
5.29028
 21
163.707
  0
LINE
  8
0
 10
5.29028
 20
163.707
 11
5.38268
 21
163.674
  0
LINE
  8
0
 10
5.38268
 20
163.674
 11
5.47139
 21
163.632
  0
LINE
  8
0
 10
5.47139
 20
163.632
 11
5.55556
 21
163.581
  0
LINE
  8
0
 10
5.55556
 20
163.581
 11
5.63438
 21
163.523
  0
LINE
  8
0
 10
5.63438
 20
163.523
 11
5.70709
 21
163.457
  0
LINE
  8
0
 10
5.70709
 20
163.457
 11
5.77301
 21
163.384
  0
LINE
  8
0
 10
5.77301
 20
163.384
 11
5.83147
 21
163.306
  0
LINE
  8
0
 10
5.83147
 20
163.306
 11
5.88191
 21
163.221
  0
LINE
  8
0
 10
5.88191
 20
163.221
 11
5.92387
 21
163.133
  0
LINE
  8
0
 10
5.92387
 20
163.133
 11
6.40245
 21
162.097
  0
LINE
  8
0
 10
6.40245
 20
162.097
 11
6.88191
 21
161.108
  0
LINE
  8
0
 10
6.88191
 20
161.108
 11
7.36519
 21
160.209
  0
LINE
  8
0
 10
7.36519
 20
160.209
 11
7.80913
 21
159.51
  0
LINE
  8
0
 10
7.80913
 20
159.51
 11
8.20351
 21
159.033
  0
LINE
  8
0
 10
8.20351
 20
159.033
 11
8.48163
 21
158.814
  0
LINE
  8
0
 10
8.48163
 20
158.814
 11
8.59277
 21
158.777
  0
LINE
  8
0
 10
8.59277
 20
158.777
 11
8.65552
 21
158.786
  0
LINE
  8
0
 10
8.65552
 20
158.786
 11
8.86603
 21
158.914
  0
LINE
  8
0
 10
8.86603
 20
158.914
 11
9.22331
 21
159.288
  0
LINE
  8
0
 10
9.22331
 20
159.288
 11
9.65475
 21
159.908
  0
LINE
  8
0
 10
9.65475
 20
159.908
 11
10.1181
 21
160.721
  0
LINE
  8
0
 10
10.1181
 20
160.721
 11
10.6118
 21
161.705
  0
LINE
  8
0
 10
10.6118
 20
161.705
 11
11.0761
 21
162.697
  0
LINE
  8
0
 10
11.0761
 20
162.697
 11
11.5761
 21
163.785
  0
LINE
  8
0
 10
11.5761
 20
163.785
 11
12.1181
 21
164.931
  0
LINE
  8
0
 10
12.1181
 20
164.931
 11
12.6181
 21
165.908
  0
LINE
  8
0
 10
12.6181
 20
165.908
 11
13.1181
 21
166.757
  0
LINE
  8
0
 10
13.1181
 20
166.757
 11
13.1685
 21
166.841
  0
LINE
  8
0
 10
13.1685
 20
166.841
 11
13.6685
 21
167.523
  0
LINE
  8
0
 10
13.6685
 20
167.523
 11
13.727
 21
167.601
  0
LINE
  8
0
 10
13.727
 20
167.601
 11
13.7929
 21
167.674
  0
LINE
  8
0
 10
13.7929
 20
167.674
 11
14.2929
 21
168.156
  0
LINE
  8
0
 10
14.2929
 20
168.156
 11
14.3656
 21
168.221
  0
LINE
  8
0
 10
14.3656
 20
168.221
 11
14.4444
 21
168.28
  0
LINE
  8
0
 10
14.4444
 20
168.28
 11
14.5286
 21
168.33
  0
LINE
  8
0
 10
14.5286
 20
168.33
 11
15.0286
 21
168.589
  0
LINE
  8
0
 10
15.0286
 20
168.589
 11
15.1173
 21
168.631
  0
LINE
  8
0
 10
15.1173
 20
168.631
 11
15.2097
 21
168.664
  0
LINE
  8
0
 10
15.2097
 20
168.664
 11
15.3049
 21
168.688
  0
LINE
  8
0
 10
15.3049
 20
168.688
 11
15.402
 21
168.702
  0
LINE
  8
0
 10
15.402
 20
168.702
 11
15.5
 21
168.707
  0
LINE
  8
0
 10
15.5
 20
168.707
 11
16
 21
168.731
  0
LINE
  8
0
 10
16
 20
168.731
 11
16.098
 21
168.726
  0
LINE
  8
0
 10
16.098
 20
168.726
 11
16.1951
 21
168.712
  0
LINE
  8
0
 10
16.1951
 20
168.712
 11
16.2903
 21
168.688
  0
LINE
  8
0
 10
16.2903
 20
168.688
 11
16.3827
 21
168.655
  0
LINE
  8
0
 10
16.3827
 20
168.655
 11
16.8827
 21
168.442
  0
LINE
  8
0
 10
16.8827
 20
168.442
 11
16.9714
 21
168.4
  0
LINE
  8
0
 10
16.9714
 20
168.4
 11
17.0556
 21
168.35
  0
LINE
  8
0
 10
17.0556
 20
168.35
 11
17.1344
 21
168.292
  0
LINE
  8
0
 10
17.1344
 20
168.292
 11
17.6344
 21
167.853
  0
LINE
  8
0
 10
17.6344
 20
167.853
 11
17.7071
 21
167.787
  0
LINE
  8
0
 10
17.7071
 20
167.787
 11
17.773
 21
167.715
  0
LINE
  8
0
 10
17.773
 20
167.715
 11
18.273
 21
167.071
  0
LINE
  8
0
 10
18.273
 20
167.071
 11
18.3315
 21
166.992
  0
LINE
  8
0
 10
18.3315
 20
166.992
 11
18.8315
 21
166.173
  0
LINE
  8
0
 10
18.8315
 20
166.173
 11
18.8819
 21
166.089
  0
LINE
  8
0
 10
18.8819
 20
166.089
 11
19.3819
 21
165.135
  0
LINE
  8
0
 10
19.3819
 20
165.135
 11
19.8819
 21
164.09
  0
LINE
  8
0
 10
19.8819
 20
164.09
 11
19.9239
 21
164.001
  0
LINE
  8
0
 10
19.9239
 20
164.001
 11
20.4239
 21
162.915
  0
LINE
  8
0
 10
20.4239
 20
162.915
 11
20.8948
 21
161.901
  0
LINE
  8
0
 10
20.8948
 20
161.901
 11
21.3819
 21
160.913
  0
LINE
  8
0
 10
21.3819
 20
160.913
 11
21.8549
 21
160.056
  0
LINE
  8
0
 10
21.8549
 20
160.056
 11
22.2974
 21
159.39
  0
LINE
  8
0
 10
22.2974
 20
159.39
 11
22.6685
 21
158.971
  0
LINE
  8
0
 10
22.6685
 20
158.971
 11
22.9176
 21
158.797
  0
LINE
  8
0
 10
22.9176
 20
158.797
 11
23
 21
158.777
  0
LINE
  8
0
 10
23
 20
158.777
 11
23.0824
 21
158.797
  0
LINE
  8
0
 10
23.0824
 20
158.797
 11
23.3315
 21
158.971
  0
LINE
  8
0
 10
23.3315
 20
158.971
 11
23.7025
 21
159.39
  0
LINE
  8
0
 10
23.7025
 20
159.39
 11
24.1451
 21
160.056
  0
LINE
  8
0
 10
24.1451
 20
160.056
 11
24.6181
 21
160.913
  0
LINE
  8
0
 10
24.6181
 20
160.913
 11
25.1051
 21
161.901
  0
LINE
  8
0
 10
25.1051
 20
161.901
 11
25.5761
 21
162.915
  0
LINE
  8
0
 10
25.5761
 20
162.915
 11
26.0761
 21
164.001
  0
LINE
  8
0
 10
26.0761
 20
164.001
 11
26.1181
 21
164.09
  0
LINE
  8
0
 10
26.1181
 20
164.09
 11
26.6181
 21
165.135
  0
LINE
  8
0
 10
26.6181
 20
165.135
 11
27.1181
 21
166.089
  0
LINE
  8
0
 10
27.1181
 20
166.089
 11
27.1685
 21
166.173
  0
LINE
  8
0
 10
27.1685
 20
166.173
 11
27.6685
 21
166.992
  0
LINE
  8
0
 10
27.6685
 20
166.992
 11
27.727
 21
167.071
  0
LINE
  8
0
 10
27.727
 20
167.071
 11
28.227
 21
167.715
  0
LINE
  8
0
 10
28.227
 20
167.715
 11
28.2929
 21
167.787
  0
LINE
  8
0
 10
28.2929
 20
167.787
 11
28.3656
 21
167.853
  0
LINE
  8
0
 10
28.3656
 20
167.853
 11
28.8656
 21
168.292
  0
LINE
  8
0
 10
28.8656
 20
168.292
 11
28.9444
 21
168.35
  0
LINE
  8
0
 10
28.9444
 20
168.35
 11
29.0286
 21
168.4
  0
LINE
  8
0
 10
29.0286
 20
168.4
 11
29.1173
 21
168.442
  0
LINE
  8
0
 10
29.1173
 20
168.442
 11
29.6173
 21
168.655
  0
LINE
  8
0
 10
29.6173
 20
168.655
 11
29.7097
 21
168.688
  0
LINE
  8
0
 10
29.7097
 20
168.688
 11
29.8049
 21
168.712
  0
LINE
  8
0
 10
29.8049
 20
168.712
 11
29.902
 21
168.726
  0
LINE
  8
0
 10
29.902
 20
168.726
 11
30
 21
168.731
  0
LINE
  8
0
 10
30
 20
168.731
 11
30.5
 21
168.707
  0
LINE
  8
0
 10
30.5
 20
168.707
 11
30.598
 21
168.702
  0
LINE
  8
0
 10
30.598
 20
168.702
 11
30.6951
 21
168.688
  0
LINE
  8
0
 10
30.6951
 20
168.688
 11
30.7903
 21
168.664
  0
LINE
  8
0
 10
30.7903
 20
168.664
 11
30.8827
 21
168.631
  0
LINE
  8
0
 10
30.8827
 20
168.631
 11
30.9714
 21
168.589
  0
LINE
  8
0
 10
30.9714
 20
168.589
 11
31.4714
 21
168.33
  0
LINE
  8
0
 10
31.4714
 20
168.33
 11
31.5556
 21
168.28
  0
LINE
  8
0
 10
31.5556
 20
168.28
 11
31.6344
 21
168.221
  0
LINE
  8
0
 10
31.6344
 20
168.221
 11
31.7071
 21
168.156
  0
LINE
  8
0
 10
31.7071
 20
168.156
 11
32.2071
 21
167.674
  0
LINE
  8
0
 10
32.2071
 20
167.674
 11
32.273
 21
167.601
  0
LINE
  8
0
 10
32.273
 20
167.601
 11
32.3315
 21
167.523
  0
LINE
  8
0
 10
32.3315
 20
167.523
 11
32.8315
 21
166.841
  0
LINE
  8
0
 10
32.8315
 20
166.841
 11
32.8819
 21
166.757
  0
LINE
  8
0
 10
32.8819
 20
166.757
 11
33.3819
 21
165.908
  0
LINE
  8
0
 10
33.3819
 20
165.908
 11
33.8819
 21
164.931
  0
LINE
  8
0
 10
33.8819
 20
164.931
 11
34.4239
 21
163.785
  0
LINE
  8
0
 10
34.4239
 20
163.785
 11
34.9239
 21
162.697
  0
LINE
  8
0
 10
34.9239
 20
162.697
 11
35.3882
 21
161.705
  0
LINE
  8
0
 10
35.3882
 20
161.705
 11
35.8819
 21
160.721
  0
LINE
  8
0
 10
35.8819
 20
160.721
 11
36.3452
 21
159.908
  0
LINE
  8
0
 10
36.3452
 20
159.908
 11
36.7767
 21
159.288
  0
LINE
  8
0
 10
36.7767
 20
159.288
 11
37.134
 21
158.914
  0
LINE
  8
0
 10
37.134
 20
158.914
 11
37.3445
 21
158.786
  0
LINE
  8
0
 10
37.3445
 20
158.786
 11
37.4072
 21
158.777
  0
LINE
  8
0
 10
37.4072
 20
158.777
 11
37.5184
 21
158.814
  0
LINE
  8
0
 10
37.5184
 20
158.814
 11
37.7965
 21
159.033
  0
LINE
  8
0
 10
37.7965
 20
159.033
 11
38.1909
 21
159.51
  0
LINE
  8
0
 10
38.1909
 20
159.51
 11
38.6348
 21
160.209
  0
LINE
  8
0
 10
38.6348
 20
160.209
 11
39.1181
 21
161.108
  0
LINE
  8
0
 10
39.1181
 20
161.108
 11
39.5975
 21
162.097
  0
LINE
  8
0
 10
39.5975
 20
162.097
 11
40.5761
 21
164.215
  0
LINE
  8
0
 10
40.5761
 20
164.215
 11
40.6181
 21
164.304
  0
LINE
  8
0
 10
40.6181
 20
164.304
 11
41.1181
 21
165.334
  0
LINE
  8
0
 10
41.1181
 20
165.334
 11
41.6181
 21
166.265
  0
LINE
  8
0
 10
41.6181
 20
166.265
 11
41.6685
 21
166.349
  0
LINE
  8
0
 10
41.6685
 20
166.349
 11
42.1685
 21
167.136
  0
LINE
  8
0
 10
42.1685
 20
167.136
 11
42.227
 21
167.215
  0
LINE
  8
0
 10
42.227
 20
167.215
 11
42.727
 21
167.819
  0
LINE
  8
0
 10
42.727
 20
167.819
 11
42.7929
 21
167.892
  0
LINE
  8
0
 10
42.7929
 20
167.892
 11
42.8656
 21
167.958
  0
LINE
  8
0
 10
42.8656
 20
167.958
 11
43.3656
 21
168.353
  0
LINE
  8
0
 10
43.3656
 20
168.353
 11
43.4444
 21
168.411
  0
LINE
  8
0
 10
43.4444
 20
168.411
 11
43.5286
 21
168.462
  0
LINE
  8
0
 10
43.5286
 20
168.462
 11
43.6173
 21
168.503
  0
LINE
  8
0
 10
43.6173
 20
168.503
 11
43.7097
 21
168.537
  0
LINE
  8
0
 10
43.7097
 20
168.537
 11
44.2097
 21
168.702
  0
LINE
  8
0
 10
44.2097
 20
168.702
 11
44.3049
 21
168.726
  0
LINE
  8
0
 10
44.3049
 20
168.726
 11
44.402
 21
168.74
  0
LINE
  8
0
 10
44.402
 20
168.74
 11
44.5
 21
168.745
  0
LINE
  8
0
 10
44.5
 20
168.745
 11
44.598
 21
168.74
  0
LINE
  8
0
 10
44.598
 20
168.74
 11
45.098
 21
168.669
  0
LINE
  8
0
 10
45.098
 20
168.669
 11
45.1951
 21
168.655
  0
LINE
  8
0
 10
45.1951
 20
168.655
 11
45.2903
 21
168.631
  0
LINE
  8
0
 10
45.2903
 20
168.631
 11
45.3827
 21
168.598
  0
LINE
  8
0
 10
45.3827
 20
168.598
 11
45.4714
 21
168.556
  0
LINE
  8
0
 10
45.4714
 20
168.556
 11
45.5556
 21
168.505
  0
LINE
  8
0
 10
45.5556
 20
168.505
 11
45.6344
 21
168.447
  0
LINE
  8
0
 10
45.6344
 20
168.447
 11
45.7071
 21
168.381
  0
LINE
  8
0
 10
45.7071
 20
168.381
 11
45.773
 21
168.308
  0
LINE
  8
0
 10
45.773
 20
168.308
 11
45.8315
 21
168.23
  0
LINE
  8
0
 10
45.8315
 20
168.23
 11
45.8819
 21
168.145
  0
LINE
  8
0
 10
45.8819
 20
168.145
 11
45.9239
 21
168.057
  0
LINE
  8
0
 10
45.9239
 20
168.057
 11
45.9569
 21
167.964
  0
LINE
  8
0
 10
45.9569
 20
167.964
 11
45.9808
 21
167.869
  0
LINE
  8
0
 10
45.9808
 20
167.869
 11
45.9952
 21
167.772
  0
LINE
  8
0
 10
45.9952
 20
167.772
 11
46
 21
167.674
  0
LINE
  8
0
 10
46
 20
167.674
 11
45.9952
 21
167.576
  0
LINE
  8
0
 10
45.9952
 20
167.576
 11
45.9808
 21
167.479
  0
LINE
  8
0
 10
45.9808
 20
167.479
 11
45.9569
 21
167.384
  0
LINE
  8
0
 10
45.9569
 20
167.384
 11
45.9239
 21
167.291
  0
LINE
  8
0
 10
45.9239
 20
167.291
 11
45.8819
 21
167.203
  0
LINE
  8
0
 10
45.8819
 20
167.203
 11
45.8315
 21
167.118
  0
LINE
  8
0
 10
45.8315
 20
167.118
 11
45.773
 21
167.04
  0
LINE
  8
0
 10
45.773
 20
167.04
 11
45.7071
 21
166.967
  0
LINE
  8
0
 10
45.7071
 20
166.967
 11
45.6344
 21
166.901
  0
LINE
  8
0
 10
45.6344
 20
166.901
 11
45.5556
 21
166.843
  0
LINE
  8
0
 10
45.5556
 20
166.843
 11
45.4714
 21
166.792
  0
LINE
  8
0
 10
45.4714
 20
166.792
 11
45.3827
 21
166.75
  0
LINE
  8
0
 10
45.3827
 20
166.75
 11
45.2903
 21
166.717
  0
LINE
  8
0
 10
45.2903
 20
166.717
 11
45.1951
 21
166.693
  0
LINE
  8
0
 10
45.1951
 20
166.693
 11
45.098
 21
166.679
  0
LINE
  8
0
 10
45.098
 20
166.679
 11
45
 21
166.674
  0
LINE
  8
0
 10
45
 20
166.674
 11
44.902
 21
166.679
  0
LINE
  8
0
 10
44.902
 20
166.679
 11
44.5928
 21
166.723
  0
LINE
  8
0
 10
44.5928
 20
166.723
 11
44.4816
 21
166.686
  0
LINE
  8
0
 10
44.4816
 20
166.686
 11
44.2035
 21
166.467
  0
LINE
  8
0
 10
44.2035
 20
166.467
 11
43.8091
 21
165.99
  0
LINE
  8
0
 10
43.8091
 20
165.99
 11
43.3652
 21
165.291
  0
LINE
  8
0
 10
43.3652
 20
165.291
 11
42.8819
 21
164.392
  0
LINE
  8
0
 10
42.8819
 20
164.392
 11
42.4025
 21
163.403
  0
LINE
  8
0
 10
42.4025
 20
163.403
 11
41.4239
 21
161.285
  0
LINE
  8
0
 10
41.4239
 20
161.285
 11
41.3819
 21
161.196
  0
LINE
  8
0
 10
41.3819
 20
161.196
 11
40.8819
 21
160.166
  0
LINE
  8
0
 10
40.8819
 20
160.166
 11
40.3819
 21
159.235
  0
LINE
  8
0
 10
40.3819
 20
159.235
 11
40.3315
 21
159.151
  0
LINE
  8
0
 10
40.3315
 20
159.151
 11
39.8315
 21
158.364
  0
LINE
  8
0
 10
39.8315
 20
158.364
 11
39.773
 21
158.285
  0
LINE
  8
0
 10
39.773
 20
158.285
 11
39.273
 21
157.681
  0
LINE
  8
0
 10
39.273
 20
157.681
 11
39.2071
 21
157.608
  0
LINE
  8
0
 10
39.2071
 20
157.608
 11
39.1344
 21
157.542
  0
LINE
  8
0
 10
39.1344
 20
157.542
 11
38.6344
 21
157.147
  0
LINE
  8
0
 10
38.6344
 20
157.147
 11
38.5556
 21
157.089
  0
LINE
  8
0
 10
38.5556
 20
157.089
 11
38.4714
 21
157.038
  0
LINE
  8
0
 10
38.4714
 20
157.038
 11
38.3827
 21
156.997
  0
LINE
  8
0
 10
38.3827
 20
156.997
 11
38.2903
 21
156.963
  0
LINE
  8
0
 10
38.2903
 20
156.963
 11
37.7903
 21
156.798
  0
LINE
  8
0
 10
37.7903
 20
156.798
 11
37.6951
 21
156.774
  0
LINE
  8
0
 10
37.6951
 20
156.774
 11
37.598
 21
156.76
  0
LINE
  8
0
 10
37.598
 20
156.76
 11
37.5
 21
156.755
  0
LINE
  8
0
 10
37.5
 20
156.755
 11
37.402
 21
156.76
  0
LINE
  8
0
 10
37.402
 20
156.76
 11
36.902
 21
156.831
  0
LINE
  8
0
 10
36.902
 20
156.831
 11
36.8049
 21
156.845
  0
LINE
  8
0
 10
36.8049
 20
156.845
 11
36.7097
 21
156.869
  0
LINE
  8
0
 10
36.7097
 20
156.869
 11
36.6173
 21
156.902
  0
LINE
  8
0
 10
36.6173
 20
156.902
 11
36.5286
 21
156.944
  0
LINE
  8
0
 10
36.5286
 20
156.944
 11
36.4444
 21
156.995
  0
LINE
  8
0
 10
36.4444
 20
156.995
 11
35.9444
 21
157.299
  0
LINE
  8
0
 10
35.9444
 20
157.299
 11
35.8656
 21
157.358
  0
LINE
  8
0
 10
35.8656
 20
157.358
 11
35.7929
 21
157.424
  0
LINE
  8
0
 10
35.7929
 20
157.424
 11
35.2929
 21
157.947
  0
LINE
  8
0
 10
35.2929
 20
157.947
 11
35.227
 21
158.02
  0
LINE
  8
0
 10
35.227
 20
158.02
 11
35.1685
 21
158.099
  0
LINE
  8
0
 10
35.1685
 20
158.099
 11
34.6685
 21
158.816
  0
LINE
  8
0
 10
34.6685
 20
158.816
 11
34.6181
 21
158.901
  0
LINE
  8
0
 10
34.6181
 20
158.901
 11
34.1181
 21
159.779
  0
LINE
  8
0
 10
34.1181
 20
159.779
 11
33.6181
 21
160.775
  0
LINE
  8
0
 10
33.6181
 20
160.775
 11
33.5761
 21
160.864
  0
LINE
  8
0
 10
33.5761
 20
160.864
 11
33.0761
 21
161.932
  0
LINE
  8
0
 10
33.0761
 20
161.932
 11
32.5761
 21
163.02
  0
LINE
  8
0
 10
32.5761
 20
163.02
 11
32.1179
 21
163.989
  0
LINE
  8
0
 10
32.1179
 20
163.989
 11
31.6181
 21
164.965
  0
LINE
  8
0
 10
31.6181
 20
164.965
 11
31.1641
 21
165.736
  0
LINE
  8
0
 10
31.1641
 20
165.736
 11
30.748
 21
166.303
  0
LINE
  8
0
 10
30.748
 20
166.303
 11
30.4115
 21
166.627
  0
LINE
  8
0
 10
30.4115
 20
166.627
 11
30.2322
 21
166.72
  0
LINE
  8
0
 10
30.2322
 20
166.72
 11
30.183
 21
166.722
  0
LINE
  8
0
 10
30.183
 20
166.722
 11
30.0372
 21
166.66
  0
LINE
  8
0
 10
30.0372
 20
166.66
 11
29.7315
 21
166.392
  0
LINE
  8
0
 10
29.7315
 20
166.392
 11
29.3213
 21
165.864
  0
LINE
  8
0
 10
29.3213
 20
165.864
 11
28.876
 21
165.135
  0
LINE
  8
0
 10
28.876
 20
165.135
 11
28.3819
 21
164.192
  0
LINE
  8
0
 10
28.3819
 20
164.192
 11
27.9117
 21
163.209
  0
LINE
  8
0
 10
27.9117
 20
163.209
 11
27.4239
 21
162.149
  0
LINE
  8
0
 10
27.4239
 20
162.149
 11
26.9239
 21
161.073
  0
LINE
  8
0
 10
26.9239
 20
161.073
 11
26.8819
 21
160.985
  0
LINE
  8
0
 10
26.8819
 20
160.985
 11
26.3819
 21
159.97
  0
LINE
  8
0
 10
26.3819
 20
159.97
 11
25.8819
 21
159.065
  0
LINE
  8
0
 10
25.8819
 20
159.065
 11
25.8315
 21
158.98
  0
LINE
  8
0
 10
25.8315
 20
158.98
 11
25.3315
 21
158.228
  0
LINE
  8
0
 10
25.3315
 20
158.228
 11
25.273
 21
158.149
  0
LINE
  8
0
 10
25.273
 20
158.149
 11
24.773
 21
157.584
  0
LINE
  8
0
 10
24.773
 20
157.584
 11
24.7071
 21
157.511
  0
LINE
  8
0
 10
24.7071
 20
157.511
 11
24.6344
 21
157.445
  0
LINE
  8
0
 10
24.6344
 20
157.445
 11
24.5556
 21
157.387
  0
LINE
  8
0
 10
24.5556
 20
157.387
 11
24.0556
 21
157.037
  0
LINE
  8
0
 10
24.0556
 20
157.037
 11
23.9714
 21
156.987
  0
LINE
  8
0
 10
23.9714
 20
156.987
 11
23.8827
 21
156.945
  0
LINE
  8
0
 10
23.8827
 20
156.945
 11
23.7903
 21
156.912
  0
LINE
  8
0
 10
23.7903
 20
156.912
 11
23.6951
 21
156.888
  0
LINE
  8
0
 10
23.6951
 20
156.888
 11
23.1951
 21
156.769
  0
LINE
  8
0
 10
23.1951
 20
156.769
 11
23.098
 21
156.755
  0
LINE
  8
0
 10
23.098
 20
156.755
 11
23
 21
156.75
  0
LINE
  8
0
 10
23
 20
156.75
 11
22.902
 21
156.755
  0
ENDSEC
  0
SECTION
  2
OBJECTS
  0
DICTIONARY
  0
ENDSEC
  0
EOF
