<?xml version="1.0" standalone="no"?>
<!DOCTYPE svg PUBLIC "-//W3C//DTD SVG 1.1//EN" "http://www.w3.org/Graphics/SVG/1.1/DTD/svg11.dtd">
<svg width="50mm" height="175mm" viewBox="0 -175 50 175" xmlns="http://www.w3.org/2000/svg" version="1.1">
<title>OpenSCAD Model</title>
<path d="
M 40.9802,-0.0481415 L 41.9509,-0.192139 L 42.9028,-0.430588 L 43.8268,-0.7612 L 44.714,-1.18079 L 45.5557,-1.6853
 L 46.3439,-2.26988 L 47.0711,-2.92892 L 47.7301,-3.65607 L 48.3147,-4.44429 L 48.8192,-5.28603 L 49.2388,-6.17316
 L 49.5694,-7.09715 L 49.8078,-8.04909 L 49.9518,-9.01982 L 50,-10 L 50,-165 L 49.9518,-165.98
 L 49.8078,-166.951 L 49.5694,-167.903 L 49.2388,-168.827 L 48.8192,-169.714 L 48.3147,-170.556 L 47.7301,-171.344
 L 47.0711,-172.071 L 46.3439,-172.73 L 45.5557,-173.315 L 44.714,-173.819 L 43.8268,-174.239 L 42.9028,-174.569
 L 41.9509,-174.808 L 40.9802,-174.952 L 40,-175 L 10,-175 L 9.01982,-174.952 L 8.04909,-174.808
 L 7.09715,-174.569 L 6.17316,-174.239 L 5.28603,-173.819 L 4.44429,-173.315 L 3.65607,-172.73 L 2.92892,-172.071
 L 2.26988,-171.344 L 1.6853,-170.556 L 1.18079,-169.714 L 0.7612,-168.827 L 0.430588,-167.903 L 0.192139,-166.951
 L 0.0481415,-165.98 L 0,-165 L 0,-10 L 0.0481415,-9.01982 L 0.192139,-8.04909 L 0.430588,-7.09715
 L 0.7612,-6.17316 L 1.18079,-5.28603 L 1.6853,-4.44429 L 2.26988,-3.65607 L 2.92892,-2.92892 L 3.65607,-2.26988
 L 4.44429,-1.6853 L 5.28603,-1.18079 L 6.17316,-0.7612 L 7.09715,-0.430588 L 8.04909,-0.192139 L 9.01982,-0.0481415
 L 10,-0 L 40,-0 z
M 22.902,-156.755 L 22.8049,-156.769 L 22.3049,-156.888 L 22.2097,-156.912 L 22.1173,-156.945 L 22.0286,-156.987
 L 21.9444,-157.037 L 21.4444,-157.387 L 21.3656,-157.445 L 21.2929,-157.511 L 21.227,-157.584 L 20.727,-158.149
 L 20.6685,-158.228 L 20.1685,-158.98 L 20.1181,-159.065 L 19.6181,-159.97 L 19.1181,-160.985 L 19.0761,-161.073
 L 18.5761,-162.149 L 18.0883,-163.209 L 17.6181,-164.192 L 17.124,-165.135 L 16.6787,-165.864 L 16.2685,-166.392
 L 15.9628,-166.66 L 15.817,-166.722 L 15.7678,-166.72 L 15.5885,-166.627 L 15.252,-166.303 L 14.8359,-165.736
 L 14.3819,-164.965 L 13.8821,-163.989 L 13.4239,-163.02 L 12.9239,-161.932 L 12.4239,-160.864 L 12.3819,-160.775
 L 11.8819,-159.779 L 11.3819,-158.901 L 11.3315,-158.816 L 10.8315,-158.099 L 10.773,-158.02 L 10.7071,-157.947
 L 10.2071,-157.424 L 10.1344,-157.358 L 10.0556,-157.299 L 9.55556,-156.995 L 9.47139,-156.944 L 9.38268,-156.902
 L 9.29028,-156.869 L 9.19508,-156.845 L 9.09801,-156.831 L 8.59801,-156.76 L 8.5,-156.755 L 8.40198,-156.76
 L 8.3049,-156.774 L 8.2097,-156.798 L 7.7097,-156.963 L 7.61731,-156.997 L 7.52859,-157.038 L 7.44443,-157.089
 L 7.3656,-157.147 L 6.8656,-157.542 L 6.79289,-157.608 L 6.72697,-157.681 L 6.22697,-158.285 L 6.16852,-158.364
 L 5.66852,-159.151 L 5.61807,-159.235 L 5.11807,-160.166 L 4.61809,-161.196 L 4.57613,-161.285 L 4.07613,-162.367
 L 4.04306,-162.46 L 4.01923,-162.555 L 4.00482,-162.652 L 4,-162.75 L 4.00482,-162.848 L 4.01923,-162.945
 L 4.04306,-163.04 L 4.07613,-163.133 L 4.11809,-163.221 L 4.16853,-163.306 L 4.22699,-163.384 L 4.29291,-163.457
 L 4.36562,-163.523 L 4.44444,-163.581 L 4.52861,-163.632 L 4.61732,-163.674 L 4.70972,-163.707 L 4.80492,-163.731
 L 4.90199,-163.745 L 5,-163.75 L 5.09801,-163.745 L 5.19508,-163.731 L 5.29028,-163.707 L 5.38268,-163.674
 L 5.47139,-163.632 L 5.55556,-163.581 L 5.63438,-163.523 L 5.70709,-163.457 L 5.77301,-163.384 L 5.83147,-163.306
 L 5.88191,-163.221 L 5.92387,-163.133 L 6.40245,-162.097 L 6.88191,-161.108 L 7.36519,-160.209 L 7.80913,-159.51
 L 8.20351,-159.033 L 8.48163,-158.814 L 8.59277,-158.777 L 8.65552,-158.786 L 8.86603,-158.914 L 9.22331,-159.288
 L 9.65475,-159.908 L 10.1181,-160.721 L 10.6118,-161.705 L 11.0761,-162.697 L 11.5761,-163.785 L 12.1181,-164.931
 L 12.6181,-165.908 L 13.1181,-166.757 L 13.1685,-166.841 L 13.6685,-167.523 L 13.727,-167.601 L 13.7929,-167.674
 L 14.2929,-168.156 L 14.3656,-168.221 L 14.4444,-168.28 L 14.5286,-168.33 L 15.0286,-168.589 L 15.1173,-168.631
 L 15.2097,-168.664 L 15.3049,-168.688 L 15.402,-168.702 L 15.5,-168.707 L 16,-168.731 L 16.098,-168.726
 L 16.1951,-168.712 L 16.2903,-168.688 L 16.3827,-168.655 L 16.8827,-168.442 L 16.9714,-168.4 L 17.0556,-168.35
 L 17.1344,-168.292 L 17.6344,-167.853 L 17.7071,-167.787 L 17.773,-167.715 L 18.273,-167.071 L 18.3315,-166.992
 L 18.8315,-166.173 L 18.8819,-166.089 L 19.3819,-165.135 L 19.8819,-164.09 L 19.9239,-164.001 L 20.4239,-162.915
 L 20.8948,-161.901 L 21.3819,-160.913 L 21.8549,-160.056 L 22.2974,-159.39 L 22.6685,-158.971 L 22.9176,-158.797
 L 23,-158.777 L 23.0824,-158.797 L 23.3315,-158.971 L 23.7025,-159.39 L 24.1451,-160.056 L 24.6181,-160.913
 L 25.1051,-161.901 L 25.5761,-162.915 L 26.0761,-164.001 L 26.1181,-164.09 L 26.6181,-165.135 L 27.1181,-166.089
 L 27.1685,-166.173 L 27.6685,-166.992 L 27.727,-167.071 L 28.227,-167.715 L 28.2929,-167.787 L 28.3656,-167.853
 L 28.8656,-168.292 L 28.9444,-168.35 L 29.0286,-168.4 L 29.1173,-168.442 L 29.6173,-168.655 L 29.7097,-168.688
 L 29.8049,-168.712 L 29.902,-168.726 L 30,-168.731 L 30.5,-168.707 L 30.598,-168.702 L 30.6951,-168.688
 L 30.7903,-168.664 L 30.8827,-168.631 L 30.9714,-168.589 L 31.4714,-168.33 L 31.5556,-168.28 L 31.6344,-168.221
 L 31.7071,-168.156 L 32.2071,-167.674 L 32.273,-167.601 L 32.3315,-167.523 L 32.8315,-166.841 L 32.8819,-166.757
 L 33.3819,-165.908 L 33.8819,-164.931 L 34.4239,-163.785 L 34.9239,-162.697 L 35.3882,-161.705 L 35.8819,-160.721
 L 36.3452,-159.908 L 36.7767,-159.288 L 37.134,-158.914 L 37.3445,-158.786 L 37.4072,-158.777 L 37.5184,-158.814
 L 37.7965,-159.033 L 38.1909,-159.51 L 38.6348,-160.209 L 39.1181,-161.108 L 39.5975,-162.097 L 40.5761,-164.215
 L 40.6181,-164.304 L 41.1181,-165.334 L 41.6181,-166.265 L 41.6685,-166.349 L 42.1685,-167.136 L 42.227,-167.215
 L 42.727,-167.819 L 42.7929,-167.892 L 42.8656,-167.958 L 43.3656,-168.353 L 43.4444,-168.411 L 43.5286,-168.462
 L 43.6173,-168.503 L 43.7097,-168.537 L 44.2097,-168.702 L 44.3049,-168.726 L 44.402,-168.74 L 44.5,-168.745
 L 44.598,-168.74 L 45.098,-168.669 L 45.1951,-168.655 L 45.2903,-168.631 L 45.3827,-168.598 L 45.4714,-168.556
 L 45.5556,-168.505 L 45.6344,-168.447 L 45.7071,-168.381 L 45.773,-168.308 L 45.8315,-168.23 L 45.8819,-168.145
 L 45.9239,-168.057 L 45.9569,-167.964 L 45.9808,-167.869 L 45.9952,-167.772 L 46,-167.674 L 45.9952,-167.576
 L 45.9808,-167.479 L 45.9569,-167.384 L 45.9239,-167.291 L 45.8819,-167.203 L 45.8315,-167.118 L 45.773,-167.04
 L 45.7071,-166.967 L 45.6344,-166.901 L 45.5556,-166.843 L 45.4714,-166.792 L 45.3827,-166.75 L 45.2903,-166.717
 L 45.1951,-166.693 L 45.098,-166.679 L 45,-166.674 L 44.902,-166.679 L 44.5928,-166.723 L 44.4816,-166.686
 L 44.2035,-166.467 L 43.8091,-165.99 L 43.3652,-165.291 L 42.8819,-164.392 L 42.4025,-163.403 L 41.4239,-161.285
 L 41.3819,-161.196 L 40.8819,-160.166 L 40.3819,-159.235 L 40.3315,-159.151 L 39.8315,-158.364 L 39.773,-158.285
 L 39.273,-157.681 L 39.2071,-157.608 L 39.1344,-157.542 L 38.6344,-157.147 L 38.5556,-157.089 L 38.4714,-157.038
 L 38.3827,-156.997 L 38.2903,-156.963 L 37.7903,-156.798 L 37.6951,-156.774 L 37.598,-156.76 L 37.5,-156.755
 L 37.402,-156.76 L 36.902,-156.831 L 36.8049,-156.845 L 36.7097,-156.869 L 36.6173,-156.902 L 36.5286,-156.944
 L 36.4444,-156.995 L 35.9444,-157.299 L 35.8656,-157.358 L 35.7929,-157.424 L 35.2929,-157.947 L 35.227,-158.02
 L 35.1685,-158.099 L 34.6685,-158.816 L 34.6181,-158.901 L 34.1181,-159.779 L 33.6181,-160.775 L 33.5761,-160.864
 L 33.0761,-161.932 L 32.5761,-163.02 L 32.1179,-163.989 L 31.6181,-164.965 L 31.1641,-165.736 L 30.748,-166.303
 L 30.4115,-166.627 L 30.2322,-166.72 L 30.183,-166.722 L 30.0372,-166.66 L 29.7315,-166.392 L 29.3213,-165.864
 L 28.876,-165.135 L 28.3819,-164.192 L 27.9117,-163.209 L 27.4239,-162.149 L 26.9239,-161.073 L 26.8819,-160.985
 L 26.3819,-159.97 L 25.8819,-159.065 L 25.8315,-158.98 L 25.3315,-158.228 L 25.273,-158.149 L 24.773,-157.584
 L 24.7071,-157.511 L 24.6344,-157.445 L 24.5556,-157.387 L 24.0556,-157.037 L 23.9714,-156.987 L 23.8827,-156.945
 L 23.7903,-156.912 L 23.6951,-156.888 L 23.1951,-156.769 L 23.098,-156.755 L 23,-156.75 z
" stroke="black" fill="lightgray" stroke-width="0.5"/>
</svg>
