  0
SECTION
  2
BLOCKS
  0
ENDSEC
  0
SECTION
  2
ENTITIES
  0
LINE
  8
0
 10
43.0902
 20
0.489426
 11
45
 21
1.33974
  0
LINE
  8
0
 10
45
 20
1.33974
 11
46.6913
 21
2.56854
  0
LINE
  8
0
 10
46.6913
 20
2.56854
 11
48.0902
 21
4.12215
  0
LINE
  8
0
 10
48.0902
 20
4.12215
 11
49.1355
 21
5.93263
  0
LINE
  8
0
 10
49.1355
 20
5.93263
 11
49.7815
 21
7.92087
  0
LINE
  8
0
 10
49.7815
 20
7.92087
 11
50
 21
10
  0
LINE
  8
0
 10
50
 20
10
 11
50
 21
165
  0
LINE
  8
0
 10
50
 20
165
 11
49.7815
 21
167.079
  0
LINE
  8
0
 10
49.7815
 20
167.079
 11
49.1355
 21
169.067
  0
LINE
  8
0
 10
49.1355
 20
169.067
 11
48.0902
 21
170.878
  0
LINE
  8
0
 10
48.0902
 20
170.878
 11
46.6913
 21
172.431
  0
LINE
  8
0
 10
46.6913
 20
172.431
 11
45
 21
173.66
  0
LINE
  8
0
 10
45
 20
173.66
 11
43.0902
 21
174.511
  0
LINE
  8
0
 10
43.0902
 20
174.511
 11
41.0453
 21
174.945
  0
LINE
  8
0
 10
41.0453
 20
174.945
 11
8.95471
 21
174.945
  0
LINE
  8
0
 10
8.95471
 20
174.945
 11
6.90982
 21
174.511
  0
LINE
  8
0
 10
6.90982
 20
174.511
 11
5
 21
173.66
  0
LINE
  8
0
 10
5
 20
173.66
 11
3.30869
 21
172.431
  0
LINE
  8
0
 10
3.30869
 20
172.431
 11
1.90982
 21
170.878
  0
LINE
  8
0
 10
1.90982
 20
170.878
 11
0.864532
 21
169.067
  0
LINE
  8
0
 10
0.864532
 20
169.067
 11
0.218521
 21
167.079
  0
LINE
  8
0
 10
0.218521
 20
167.079
 11
0
 21
165
  0
LINE
  8
0
 10
0
 20
165
 11
0
 21
10
  0
LINE
  8
0
 10
0
 20
10
 11
0.218521
 21
7.92087
  0
LINE
  8
0
 10
0.218521
 20
7.92087
 11
0.864532
 21
5.93263
  0
LINE
  8
0
 10
0.864532
 20
5.93263
 11
1.90982
 21
4.12215
  0
LINE
  8
0
 10
1.90982
 20
4.12215
 11
3.30869
 21
2.56854
  0
LINE
  8
0
 10
3.30869
 20
2.56854
 11
5
 21
1.33974
  0
LINE
  8
0
 10
5
 20
1.33974
 11
6.90982
 21
0.489426
  0
LINE
  8
0
 10
6.90982
 20
0.489426
 11
8.95471
 21
0.0547791
  0
LINE
  8
0
 10
8.95471
 20
0.0547791
 11
41.0453
 21
0.0547791
  0
LINE
  8
0
 10
41.0453
 20
0.0547791
 11
43.0902
 21
0.489426
  0
LINE
  8
0
 10
38.2613
 20
145.275
 11
38.2613
 21
149.939
  0
LINE
  8
0
 10
38.2613
 20
149.939
 11
39.5941
 21
149.939
  0
LINE
  8
0
 10
39.5941
 20
149.939
 11
39.5941
 21
145.275
  0
LINE
  8
0
 10
39.5941
 20
145.275
 11
38.2613
 21
145.275
  0
LINE
  8
0
 10
41.0915
 20
135.21
 11
41.4317
 21
135.311
  0
LINE
  8
0
 10
41.4317
 20
135.311
 11
41.7226
 21
135.458
  0
LINE
  8
0
 10
41.7226
 20
135.458
 11
41.9642
 21
135.65
  0
LINE
  8
0
 10
41.9642
 20
135.65
 11
42.1565
 21
135.888
  0
LINE
  8
0
 10
42.1565
 20
135.888
 11
42.3027
 21
136.194
  0
LINE
  8
0
 10
42.3027
 20
136.194
 11
42.4071
 21
136.593
  0
LINE
  8
0
 10
42.4071
 20
136.593
 11
42.4697
 21
137.084
  0
LINE
  8
0
 10
42.4697
 20
137.084
 11
42.4906
 21
137.666
  0
LINE
  8
0
 10
42.4906
 20
137.666
 11
42.4024
 21
138.65
  0
LINE
  8
0
 10
42.4024
 20
138.65
 11
42.1378
 21
139.353
  0
LINE
  8
0
 10
42.1378
 20
139.353
 11
41.6967
 21
139.775
  0
LINE
  8
0
 10
41.6967
 20
139.775
 11
41.0792
 21
139.916
  0
LINE
  8
0
 10
41.0792
 20
139.916
 11
40.8266
 21
139.89
  0
LINE
  8
0
 10
40.8266
 20
139.89
 11
40.5995
 21
139.813
  0
LINE
  8
0
 10
40.5995
 20
139.813
 11
40.3979
 21
139.686
  0
LINE
  8
0
 10
40.3979
 20
139.686
 11
40.2218
 21
139.507
  0
LINE
  8
0
 10
40.2218
 20
139.507
 11
40.0653
 21
139.276
  0
LINE
  8
0
 10
40.0653
 20
139.276
 11
39.9239
 21
138.991
  0
LINE
  8
0
 10
39.9239
 20
138.991
 11
39.7975
 21
138.652
  0
LINE
  8
0
 10
39.7975
 20
138.652
 11
39.6862
 21
138.259
  0
LINE
  8
0
 10
39.6862
 20
138.259
 11
39.4312
 21
137.259
  0
LINE
  8
0
 10
39.4312
 20
137.259
 11
39.2053
 21
136.46
  0
LINE
  8
0
 10
39.2053
 20
136.46
 11
39.0086
 21
135.863
  0
LINE
  8
0
 10
39.0086
 20
135.863
 11
38.8411
 21
135.466
  0
LINE
  8
0
 10
38.8411
 20
135.466
 11
38.678
 21
135.188
  0
LINE
  8
0
 10
38.678
 20
135.188
 11
38.4959
 21
134.944
  0
LINE
  8
0
 10
38.4959
 20
134.944
 11
38.2947
 21
134.734
  0
LINE
  8
0
 10
38.2947
 20
134.734
 11
38.0746
 21
134.559
  0
LINE
  8
0
 10
38.0746
 20
134.559
 11
37.83
 21
134.421
  0
LINE
  8
0
 10
37.83
 20
134.421
 11
37.5571
 21
134.322
  0
LINE
  8
0
 10
37.5571
 20
134.322
 11
37.2558
 21
134.263
  0
LINE
  8
0
 10
37.2558
 20
134.263
 11
36.926
 21
134.243
  0
LINE
  8
0
 10
36.926
 20
134.243
 11
36.3494
 21
134.298
  0
LINE
  8
0
 10
36.3494
 20
134.298
 11
35.8392
 21
134.464
  0
LINE
  8
0
 10
35.8392
 20
134.464
 11
35.3956
 21
134.74
  0
LINE
  8
0
 10
35.3956
 20
134.74
 11
35.0184
 21
135.126
  0
LINE
  8
0
 10
35.0184
 20
135.126
 11
34.7174
 21
135.617
  0
LINE
  8
0
 10
34.7174
 20
135.617
 11
34.5024
 21
136.207
  0
LINE
  8
0
 10
34.5024
 20
136.207
 11
34.3735
 21
136.896
  0
LINE
  8
0
 10
34.3735
 20
136.896
 11
34.3305
 21
137.684
  0
LINE
  8
0
 10
34.3305
 20
137.684
 11
34.3655
 21
138.379
  0
LINE
  8
0
 10
34.3655
 20
138.379
 11
34.4705
 21
139.001
  0
LINE
  8
0
 10
34.4705
 20
139.001
 11
34.6455
 21
139.549
  0
LINE
  8
0
 10
34.6455
 20
139.549
 11
34.8906
 21
140.024
  0
LINE
  8
0
 10
34.8906
 20
140.024
 11
35.2025
 21
140.42
  0
LINE
  8
0
 10
35.2025
 20
140.42
 11
35.5782
 21
140.735
  0
LINE
  8
0
 10
35.5782
 20
140.735
 11
36.0176
 21
140.966
  0
LINE
  8
0
 10
36.0176
 20
140.966
 11
36.5207
 21
141.116
  0
LINE
  8
0
 10
36.5207
 20
141.116
 11
36.6889
 21
139.766
  0
LINE
  8
0
 10
36.6889
 20
139.766
 11
36.4011
 21
139.694
  0
LINE
  8
0
 10
36.4011
 20
139.694
 11
36.1506
 21
139.572
  0
LINE
  8
0
 10
36.1506
 20
139.572
 11
35.9374
 21
139.398
  0
LINE
  8
0
 10
35.9374
 20
139.398
 11
35.7615
 21
139.174
  0
LINE
  8
0
 10
35.7615
 20
139.174
 11
35.624
 21
138.894
  0
LINE
  8
0
 10
35.624
 20
138.894
 11
35.5257
 21
138.552
  0
LINE
  8
0
 10
35.5257
 20
138.552
 11
35.4667
 21
138.148
  0
LINE
  8
0
 10
35.4667
 20
138.148
 11
35.4471
 21
137.684
  0
LINE
  8
0
 10
35.4471
 20
137.684
 11
35.5249
 21
136.79
  0
LINE
  8
0
 10
35.5249
 20
136.79
 11
35.7585
 21
136.152
  0
LINE
  8
0
 10
35.7585
 20
136.152
 11
36.1477
 21
135.77
  0
LINE
  8
0
 10
36.1477
 20
135.77
 11
36.6926
 21
135.642
  0
LINE
  8
0
 10
36.6926
 20
135.642
 11
36.929
 21
135.664
  0
LINE
  8
0
 10
36.929
 20
135.664
 11
37.1404
 21
135.728
  0
LINE
  8
0
 10
37.1404
 20
135.728
 11
37.327
 21
135.836
  0
LINE
  8
0
 10
37.327
 20
135.836
 11
37.4886
 21
135.987
  0
LINE
  8
0
 10
37.4886
 20
135.987
 11
37.6306
 21
136.187
  0
LINE
  8
0
 10
37.6306
 20
136.187
 11
37.7579
 21
136.439
  0
LINE
  8
0
 10
37.7579
 20
136.439
 11
37.8707
 21
136.743
  0
LINE
  8
0
 10
37.8707
 20
136.743
 11
37.9689
 21
137.1
  0
LINE
  8
0
 10
37.9689
 20
137.1
 11
38.2269
 21
138.091
  0
LINE
  8
0
 10
38.2269
 20
138.091
 11
38.3922
 21
138.723
  0
LINE
  8
0
 10
38.3922
 20
138.723
 11
38.5564
 21
139.258
  0
LINE
  8
0
 10
38.5564
 20
139.258
 11
38.7195
 21
139.699
  0
LINE
  8
0
 10
38.7195
 20
139.699
 11
38.8816
 21
140.045
  0
LINE
  8
0
 10
38.8816
 20
140.045
 11
39.0533
 21
140.327
  0
LINE
  8
0
 10
39.0533
 20
140.327
 11
39.2452
 21
140.577
  0
LINE
  8
0
 10
39.2452
 20
140.577
 11
39.4574
 21
140.795
  0
LINE
  8
0
 10
39.4574
 20
140.795
 11
39.6899
 21
140.982
  0
LINE
  8
0
 10
39.6899
 20
140.982
 11
39.9462
 21
141.131
  0
LINE
  8
0
 10
39.9462
 20
141.131
 11
40.2298
 21
141.238
  0
LINE
  8
0
 10
40.2298
 20
141.238
 11
40.5407
 21
141.302
  0
LINE
  8
0
 10
40.5407
 20
141.302
 11
40.879
 21
141.323
  0
LINE
  8
0
 10
40.879
 20
141.323
 11
41.4832
 21
141.263
  0
LINE
  8
0
 10
41.4832
 20
141.263
 11
42.0186
 21
141.081
  0
LINE
  8
0
 10
42.0186
 20
141.081
 11
42.485
 21
140.777
  0
LINE
  8
0
 10
42.485
 20
140.777
 11
42.8824
 21
140.353
  0
LINE
  8
0
 10
42.8824
 20
140.353
 11
43.1995
 21
139.821
  0
LINE
  8
0
 10
43.1995
 20
139.821
 11
43.426
 21
139.196
  0
LINE
  8
0
 10
43.426
 20
139.196
 11
43.5619
 21
138.478
  0
LINE
  8
0
 10
43.5619
 20
138.478
 11
43.6072
 21
137.666
  0
LINE
  8
0
 10
43.6072
 20
137.666
 11
43.5733
 21
136.86
  0
LINE
  8
0
 10
43.5733
 20
136.86
 11
43.4715
 21
136.156
  0
LINE
  8
0
 10
43.4715
 20
136.156
 11
43.3018
 21
135.554
  0
LINE
  8
0
 10
43.3018
 20
135.554
 11
43.0642
 21
135.055
  0
LINE
  8
0
 10
43.0642
 20
135.055
 11
42.7536
 21
134.646
  0
LINE
  8
0
 10
42.7536
 20
134.646
 11
42.3647
 21
134.314
  0
LINE
  8
0
 10
42.3647
 20
134.314
 11
41.8974
 21
134.061
  0
LINE
  8
0
 10
41.8974
 20
134.061
 11
41.3519
 21
133.884
  0
LINE
  8
0
 10
41.3519
 20
133.884
 11
41.0915
 21
135.21
  0
LINE
  8
0
 10
3.67979
 20
109.925
 11
14.7002
 21
139.092
  0
LINE
  8
0
 10
14.7002
 20
139.092
 11
19.3913
 21
139.092
  0
LINE
  8
0
 10
19.3913
 20
139.092
 11
30.2173
 21
109.925
  0
LINE
  8
0
 10
30.2173
 20
109.925
 11
26.0264
 21
109.925
  0
LINE
  8
0
 10
26.0264
 20
109.925
 11
23.0435
 21
118.128
  0
LINE
  8
0
 10
23.0435
 20
118.128
 11
10.8759
 21
118.128
  0
LINE
  8
0
 10
10.8759
 20
118.128
 11
7.91525
 21
109.925
  0
LINE
  8
0
 10
7.91525
 20
109.925
 11
3.67979
 21
109.925
  0
LINE
  8
0
 10
18.244
 20
132.202
 11
16.9915
 21
135.978
  0
LINE
  8
0
 10
16.9915
 20
135.978
 11
16.7334
 21
135.13
  0
LINE
  8
0
 10
16.7334
 20
135.13
 11
15.242
 21
130.529
  0
LINE
  8
0
 10
15.242
 20
130.529
 11
11.9785
 21
121.347
  0
LINE
  8
0
 10
11.9785
 20
121.347
 11
21.9854
 21
121.347
  0
LINE
  8
0
 10
21.9854
 20
121.347
 11
18.244
 21
132.202
  0
LINE
  8
0
 10
31.1072
 20
124.461
 11
31.1072
 21
125.96
  0
LINE
  8
0
 10
31.1072
 20
125.96
 11
38.7956
 21
125.96
  0
LINE
  8
0
 10
38.7956
 20
125.96
 11
34.4091
 21
129.917
  0
LINE
  8
0
 10
34.4091
 20
129.917
 11
34.4091
 21
131.675
  0
LINE
  8
0
 10
34.4091
 20
131.675
 11
38.2981
 21
128.018
  0
LINE
  8
0
 10
38.2981
 20
128.018
 11
43.45
 21
131.866
  0
LINE
  8
0
 10
43.45
 20
131.866
 11
43.45
 21
130.109
  0
LINE
  8
0
 10
43.45
 20
130.109
 11
39.2808
 21
127.06
  0
LINE
  8
0
 10
39.2808
 20
127.06
 11
40.0953
 21
125.96
  0
LINE
  8
0
 10
40.0953
 20
125.96
 11
43.45
 21
125.96
  0
LINE
  8
0
 10
43.45
 20
125.96
 11
43.45
 21
124.461
  0
LINE
  8
0
 10
43.45
 20
124.461
 11
31.1072
 21
124.461
  0
LINE
  8
0
 10
37.8299
 20
113.646
 11
36.8833
 21
113.843
  0
LINE
  8
0
 10
36.8833
 20
113.843
 11
36.0813
 21
114.173
  0
LINE
  8
0
 10
36.0813
 20
114.173
 11
35.4237
 21
114.634
  0
LINE
  8
0
 10
35.4237
 20
114.634
 11
34.911
 21
115.216
  0
LINE
  8
0
 10
34.911
 20
115.216
 11
34.5448
 21
115.907
  0
LINE
  8
0
 10
34.5448
 20
115.907
 11
34.3251
 21
116.709
  0
LINE
  8
0
 10
34.3251
 20
116.709
 11
34.2518
 21
117.62
  0
LINE
  8
0
 10
34.2518
 20
117.62
 11
34.3243
 21
118.571
  0
LINE
  8
0
 10
34.3243
 20
118.571
 11
34.5417
 21
119.392
  0
LINE
  8
0
 10
34.5417
 20
119.392
 11
34.9041
 21
120.082
  0
LINE
  8
0
 10
34.9041
 20
120.082
 11
35.4114
 21
120.643
  0
LINE
  8
0
 10
35.4114
 20
120.643
 11
36.0652
 21
121.077
  0
LINE
  8
0
 10
36.0652
 20
121.077
 11
36.868
 21
121.387
  0
LINE
  8
0
 10
36.868
 20
121.387
 11
37.8199
 21
121.572
  0
LINE
  8
0
 10
37.8199
 20
121.572
 11
38.9209
 21
121.634
  0
LINE
  8
0
 10
38.9209
 20
121.634
 11
39.9921
 21
121.569
  0
LINE
  8
0
 10
39.9921
 20
121.569
 11
40.9293
 21
121.373
  0
LINE
  8
0
 10
40.9293
 20
121.373
 11
41.7327
 21
121.046
  0
LINE
  8
0
 10
41.7327
 20
121.046
 11
42.4021
 21
120.589
  0
LINE
  8
0
 10
42.4021
 20
120.589
 11
42.9294
 21
120.008
  0
LINE
  8
0
 10
42.9294
 20
120.008
 11
43.3059
 21
119.312
  0
LINE
  8
0
 10
43.3059
 20
119.312
 11
43.5319
 21
118.499
  0
LINE
  8
0
 10
43.5319
 20
118.499
 11
43.6072
 21
117.57
  0
LINE
  8
0
 10
43.6072
 20
117.57
 11
43.5311
 21
116.66
  0
LINE
  8
0
 10
43.5311
 20
116.66
 11
43.3029
 21
115.863
  0
LINE
  8
0
 10
43.3029
 20
115.863
 11
42.9225
 21
115.179
  0
LINE
  8
0
 10
42.9225
 20
115.179
 11
42.3899
 21
114.608
  0
LINE
  8
0
 10
42.3899
 20
114.608
 11
41.7166
 21
114.158
  0
LINE
  8
0
 10
41.7166
 20
114.158
 11
40.914
 21
113.837
  0
LINE
  8
0
 10
40.914
 20
113.837
 11
39.9821
 21
113.644
  0
LINE
  8
0
 10
39.9821
 20
113.644
 11
38.9209
 21
113.58
  0
LINE
  8
0
 10
38.9209
 20
113.58
 11
37.8299
 21
113.646
  0
LINE
  8
0
 10
39.7444
 20
115.191
 11
40.4632
 21
115.303
  0
LINE
  8
0
 10
40.4632
 20
115.303
 11
41.0772
 21
115.491
  0
LINE
  8
0
 10
41.0772
 20
115.491
 11
41.5865
 21
115.753
  0
LINE
  8
0
 10
41.5865
 20
115.753
 11
41.9858
 21
116.09
  0
LINE
  8
0
 10
41.9858
 20
116.09
 11
42.271
 21
116.503
  0
LINE
  8
0
 10
42.271
 20
116.503
 11
42.4421
 21
116.99
  0
LINE
  8
0
 10
42.4421
 20
116.99
 11
42.4992
 21
117.553
  0
LINE
  8
0
 10
42.4992
 20
117.553
 11
42.4435
 21
118.169
  0
LINE
  8
0
 10
42.4435
 20
118.169
 11
42.2762
 21
118.693
  0
LINE
  8
0
 10
42.2762
 20
118.693
 11
41.9975
 21
119.126
  0
LINE
  8
0
 10
41.9975
 20
119.126
 11
41.6074
 21
119.468
  0
LINE
  8
0
 10
41.6074
 20
119.468
 11
41.1046
 21
119.727
  0
LINE
  8
0
 10
41.1046
 20
119.727
 11
40.4892
 21
119.912
  0
LINE
  8
0
 10
40.4892
 20
119.912
 11
39.7614
 21
120.023
  0
LINE
  8
0
 10
39.7614
 20
120.023
 11
38.9209
 21
120.06
  0
LINE
  8
0
 10
38.9209
 20
120.06
 11
38.0811
 21
120.024
  0
LINE
  8
0
 10
38.0811
 20
120.024
 11
37.355
 21
119.917
  0
LINE
  8
0
 10
37.355
 20
119.917
 11
36.7428
 21
119.738
  0
LINE
  8
0
 10
36.7428
 20
119.738
 11
36.2443
 21
119.488
  0
LINE
  8
0
 10
36.2443
 20
119.488
 11
35.8573
 21
119.159
  0
LINE
  8
0
 10
35.8573
 20
119.159
 11
35.581
 21
118.743
  0
LINE
  8
0
 10
35.581
 20
118.743
 11
35.4151
 21
118.238
  0
LINE
  8
0
 10
35.4151
 20
118.238
 11
35.3598
 21
117.645
  0
LINE
  8
0
 10
35.3598
 20
117.645
 11
35.4162
 21
117.042
  0
LINE
  8
0
 10
35.4162
 20
117.042
 11
35.5853
 21
116.526
  0
LINE
  8
0
 10
35.5853
 20
116.526
 11
35.867
 21
116.096
  0
LINE
  8
0
 10
35.867
 20
116.096
 11
36.2615
 21
115.753
  0
LINE
  8
0
 10
36.2615
 20
115.753
 11
36.7654
 21
115.491
  0
LINE
  8
0
 10
36.7654
 20
115.491
 11
37.3765
 21
115.303
  0
LINE
  8
0
 10
37.3765
 20
115.303
 11
38.0951
 21
115.191
  0
LINE
  8
0
 10
38.0951
 20
115.191
 11
38.9209
 21
115.153
  0
LINE
  8
0
 10
38.9209
 20
115.153
 11
39.7444
 21
115.191
  0
LINE
  8
0
 10
37.8299
 20
103.647
 11
36.8833
 21
103.845
  0
LINE
  8
0
 10
36.8833
 20
103.845
 11
36.0813
 21
104.174
  0
LINE
  8
0
 10
36.0813
 20
104.174
 11
35.4237
 21
104.635
  0
LINE
  8
0
 10
35.4237
 20
104.635
 11
34.911
 21
105.217
  0
LINE
  8
0
 10
34.911
 20
105.217
 11
34.5448
 21
105.909
  0
LINE
  8
0
 10
34.5448
 20
105.909
 11
34.3251
 21
106.71
  0
LINE
  8
0
 10
34.3251
 20
106.71
 11
34.2518
 21
107.621
  0
LINE
  8
0
 10
34.2518
 20
107.621
 11
34.3243
 21
108.572
  0
LINE
  8
0
 10
34.3243
 20
108.572
 11
34.5417
 21
109.393
  0
LINE
  8
0
 10
34.5417
 20
109.393
 11
34.9041
 21
110.084
  0
LINE
  8
0
 10
34.9041
 20
110.084
 11
35.4114
 21
110.645
  0
LINE
  8
0
 10
35.4114
 20
110.645
 11
36.0652
 21
111.078
  0
LINE
  8
0
 10
36.0652
 20
111.078
 11
36.868
 21
111.388
  0
LINE
  8
0
 10
36.868
 20
111.388
 11
37.8199
 21
111.574
  0
LINE
  8
0
 10
37.8199
 20
111.574
 11
38.9209
 21
111.636
  0
LINE
  8
0
 10
38.9209
 20
111.636
 11
39.9921
 21
111.57
  0
LINE
  8
0
 10
39.9921
 20
111.57
 11
40.9293
 21
111.374
  0
LINE
  8
0
 10
40.9293
 20
111.374
 11
41.7327
 21
111.048
  0
LINE
  8
0
 10
41.7327
 20
111.048
 11
42.4021
 21
110.59
  0
LINE
  8
0
 10
42.4021
 20
110.59
 11
42.9294
 21
110.01
  0
LINE
  8
0
 10
42.9294
 20
110.01
 11
43.3059
 21
109.313
  0
LINE
  8
0
 10
43.3059
 20
109.313
 11
43.5319
 21
108.5
  0
LINE
  8
0
 10
43.5319
 20
108.5
 11
43.6072
 21
107.571
  0
LINE
  8
0
 10
43.6072
 20
107.571
 11
43.5311
 21
106.661
  0
LINE
  8
0
 10
43.5311
 20
106.661
 11
43.3029
 21
105.865
  0
LINE
  8
0
 10
43.3029
 20
105.865
 11
42.9225
 21
105.181
  0
LINE
  8
0
 10
42.9225
 20
105.181
 11
42.3899
 21
104.609
  0
LINE
  8
0
 10
42.3899
 20
104.609
 11
41.7166
 21
104.16
  0
LINE
  8
0
 10
41.7166
 20
104.16
 11
40.914
 21
103.838
  0
LINE
  8
0
 10
40.914
 20
103.838
 11
39.9821
 21
103.646
  0
LINE
  8
0
 10
39.9821
 20
103.646
 11
38.9209
 21
103.581
  0
LINE
  8
0
 10
38.9209
 20
103.581
 11
37.8299
 21
103.647
  0
LINE
  8
0
 10
39.7444
 20
105.192
 11
40.4632
 21
105.305
  0
LINE
  8
0
 10
40.4632
 20
105.305
 11
41.0772
 21
105.492
  0
LINE
  8
0
 10
41.0772
 20
105.492
 11
41.5865
 21
105.754
  0
LINE
  8
0
 10
41.5865
 20
105.754
 11
41.9858
 21
106.092
  0
LINE
  8
0
 10
41.9858
 20
106.092
 11
42.271
 21
106.504
  0
LINE
  8
0
 10
42.271
 20
106.504
 11
42.4421
 21
106.991
  0
LINE
  8
0
 10
42.4421
 20
106.991
 11
42.4992
 21
107.554
  0
LINE
  8
0
 10
42.4992
 20
107.554
 11
42.4435
 21
108.17
  0
LINE
  8
0
 10
42.4435
 20
108.17
 11
42.2762
 21
108.695
  0
LINE
  8
0
 10
42.2762
 20
108.695
 11
41.9975
 21
109.128
  0
LINE
  8
0
 10
41.9975
 20
109.128
 11
41.6074
 21
109.469
  0
LINE
  8
0
 10
41.6074
 20
109.469
 11
41.1046
 21
109.728
  0
LINE
  8
0
 10
41.1046
 20
109.728
 11
40.4892
 21
109.913
  0
LINE
  8
0
 10
40.4892
 20
109.913
 11
39.7614
 21
110.024
  0
LINE
  8
0
 10
39.7614
 20
110.024
 11
38.9209
 21
110.061
  0
LINE
  8
0
 10
38.9209
 20
110.061
 11
38.0811
 21
110.025
  0
LINE
  8
0
 10
38.0811
 20
110.025
 11
37.355
 21
109.918
  0
LINE
  8
0
 10
37.355
 20
109.918
 11
36.7428
 21
109.74
  0
LINE
  8
0
 10
36.7428
 20
109.74
 11
36.2443
 21
109.49
  0
LINE
  8
0
 10
36.2443
 20
109.49
 11
35.8573
 21
109.161
  0
LINE
  8
0
 10
35.8573
 20
109.161
 11
35.581
 21
108.744
  0
LINE
  8
0
 10
35.581
 20
108.744
 11
35.4151
 21
108.239
  0
LINE
  8
0
 10
35.4151
 20
108.239
 11
35.3598
 21
107.646
  0
LINE
  8
0
 10
35.3598
 20
107.646
 11
35.4162
 21
107.043
  0
LINE
  8
0
 10
35.4162
 20
107.043
 11
35.5853
 21
106.527
  0
LINE
  8
0
 10
35.5853
 20
106.527
 11
35.867
 21
106.097
  0
LINE
  8
0
 10
35.867
 20
106.097
 11
36.2615
 21
105.754
  0
LINE
  8
0
 10
36.2615
 20
105.754
 11
36.7654
 21
105.492
  0
LINE
  8
0
 10
36.7654
 20
105.492
 11
37.3765
 21
105.305
  0
LINE
  8
0
 10
37.3765
 20
105.305
 11
38.0951
 21
105.192
  0
LINE
  8
0
 10
38.0951
 20
105.192
 11
38.9209
 21
105.155
  0
LINE
  8
0
 10
38.9209
 20
105.155
 11
39.7444
 21
105.192
  0
LINE
  8
0
 10
43.1655
 20
94.0126
 11
42.7615
 21
94.0283
  0
LINE
  8
0
 10
42.7615
 20
94.0283
 11
42.238
 21
94.0378
  0
LINE
  8
0
 10
42.238
 20
94.0378
 11
41.5951
 21
94.0409
  0
LINE
  8
0
 10
41.5951
 20
94.0409
 11
31.1072
 21
94.0409
  0
LINE
  8
0
 10
31.1072
 20
94.0409
 11
31.1072
 21
95.5395
  0
LINE
  8
0
 10
31.1072
 20
95.5395
 11
34.6167
 21
95.5395
  0
LINE
  8
0
 10
34.6167
 20
95.5395
 11
34.9003
 21
95.5375
  0
LINE
  8
0
 10
34.9003
 20
95.5375
 11
35.2118
 21
95.5312
  0
LINE
  8
0
 10
35.2118
 20
95.5312
 11
35.5513
 21
95.5209
  0
LINE
  8
0
 10
35.5513
 20
95.5209
 11
35.9188
 21
95.5064
  0
LINE
  8
0
 10
35.9188
 20
95.5064
 11
35.9188
 21
95.5395
  0
LINE
  8
0
 10
35.9188
 20
95.5395
 11
35.1895
 21
95.9977
  0
LINE
  8
0
 10
35.1895
 20
95.9977
 11
34.6686
 21
96.6141
  0
LINE
  8
0
 10
34.6686
 20
96.6141
 11
34.356
 21
97.3888
  0
LINE
  8
0
 10
34.356
 20
97.3888
 11
34.2518
 21
98.3218
  0
LINE
  8
0
 10
34.2518
 20
98.3218
 11
34.5421
 21
99.747
  0
LINE
  8
0
 10
34.5421
 20
99.747
 11
35.413
 21
100.765
  0
LINE
  8
0
 10
35.413
 20
100.765
 11
36.8644
 21
101.376
  0
LINE
  8
0
 10
36.8644
 20
101.376
 11
38.8964
 21
101.579
  0
LINE
  8
0
 10
38.8964
 20
101.579
 11
40.0037
 21
101.527
  0
LINE
  8
0
 10
40.0037
 20
101.527
 11
40.9625
 21
101.368
  0
LINE
  8
0
 10
40.9625
 20
101.368
 11
41.7726
 21
101.103
  0
LINE
  8
0
 10
41.7726
 20
101.103
 11
42.4341
 21
100.733
  0
LINE
  8
0
 10
42.4341
 20
100.733
 11
42.9473
 21
100.265
  0
LINE
  8
0
 10
42.9473
 20
100.265
 11
43.3139
 21
99.7056
  0
LINE
  8
0
 10
43.3139
 20
99.7056
 11
43.5339
 21
99.055
  0
LINE
  8
0
 10
43.5339
 20
99.055
 11
43.6072
 21
98.3132
  0
LINE
  8
0
 10
43.6072
 20
98.3132
 11
43.5114
 21
97.377
  0
LINE
  8
0
 10
43.5114
 20
97.377
 11
43.2239
 21
96.6012
  0
LINE
  8
0
 10
43.2239
 20
96.6012
 11
42.7449
 21
95.9858
  0
LINE
  8
0
 10
42.7449
 20
95.9858
 11
42.0742
 21
95.5309
  0
LINE
  8
0
 10
42.0742
 20
95.5309
 11
42.0742
 21
95.5137
  0
LINE
  8
0
 10
42.0742
 20
95.5137
 11
42.2777
 21
95.5119
  0
LINE
  8
0
 10
42.2777
 20
95.5119
 11
42.4854
 21
95.5064
  0
LINE
  8
0
 10
42.4854
 20
95.5064
 11
42.6972
 21
95.4971
  0
LINE
  8
0
 10
42.6972
 20
95.4971
 11
42.9131
 21
95.4843
  0
LINE
  8
0
 10
42.9131
 20
95.4843
 11
43.1102
 21
95.4708
  0
LINE
  8
0
 10
43.1102
 20
95.4708
 11
43.2654
 21
95.4588
  0
LINE
  8
0
 10
43.2654
 20
95.4588
 11
43.3786
 21
95.4481
  0
LINE
  8
0
 10
43.3786
 20
95.4481
 11
43.45
 21
95.4388
  0
LINE
  8
0
 10
43.45
 20
95.4388
 11
43.45
 21
93.9905
  0
LINE
  8
0
 10
43.45
 20
93.9905
 11
43.1655
 21
94.0126
  0
LINE
  8
0
 10
39.8929
 20
95.5739
 11
40.594
 21
95.6768
  0
LINE
  8
0
 10
40.594
 20
95.6768
 11
41.1827
 21
95.8484
  0
LINE
  8
0
 10
41.1827
 20
95.8484
 11
41.659
 21
96.0886
  0
LINE
  8
0
 10
41.659
 20
96.0886
 11
42.0266
 21
96.408
  0
LINE
  8
0
 10
42.0266
 20
96.408
 11
42.2891
 21
96.8158
  0
LINE
  8
0
 10
42.2891
 20
96.8158
 11
42.4467
 21
97.3121
  0
LINE
  8
0
 10
42.4467
 20
97.3121
 11
42.4992
 21
97.8968
  0
LINE
  8
0
 10
42.4992
 20
97.8968
 11
42.4448
 21
98.42
  0
LINE
  8
0
 10
42.4448
 20
98.42
 11
42.2818
 21
98.8657
  0
LINE
  8
0
 10
42.2818
 20
98.8657
 11
42.01
 21
99.2338
  0
LINE
  8
0
 10
42.01
 20
99.2338
 11
41.6295
 21
99.5244
  0
LINE
  8
0
 10
41.6295
 20
99.5244
 11
41.1357
 21
99.7453
  0
LINE
  8
0
 10
41.1357
 20
99.7453
 11
40.524
 21
99.903
  0
LINE
  8
0
 10
40.524
 20
99.903
 11
39.7943
 21
99.9977
  0
LINE
  8
0
 10
39.7943
 20
99.9977
 11
38.9467
 21
100.029
  0
LINE
  8
0
 10
38.9467
 20
100.029
 11
38.0787
 21
99.9973
  0
LINE
  8
0
 10
38.0787
 20
99.9973
 11
37.3394
 21
99.9012
  0
LINE
  8
0
 10
37.3394
 20
99.9012
 11
36.7287
 21
99.7411
  0
LINE
  8
0
 10
36.7287
 20
99.7411
 11
36.2467
 21
99.517
  0
LINE
  8
0
 10
36.2467
 20
99.517
 11
35.8808
 21
99.2248
  0
LINE
  8
0
 10
35.8808
 20
99.2248
 11
35.6194
 21
98.8602
  0
LINE
  8
0
 10
35.6194
 20
98.8602
 11
35.4625
 21
98.4232
  0
LINE
  8
0
 10
35.4625
 20
98.4232
 11
35.4102
 21
97.914
  0
LINE
  8
0
 10
35.4102
 20
97.914
 11
35.4672
 21
97.3353
  0
LINE
  8
0
 10
35.4672
 20
97.3353
 11
35.6381
 21
96.841
  0
LINE
  8
0
 10
35.6381
 20
96.841
 11
35.9229
 21
96.4312
  0
LINE
  8
0
 10
35.9229
 20
96.4312
 11
36.3217
 21
96.1058
  0
LINE
  8
0
 10
36.3217
 20
96.1058
 11
36.8354
 21
95.8581
  0
LINE
  8
0
 10
36.8354
 20
95.8581
 11
37.4662
 21
95.6811
  0
LINE
  8
0
 10
37.4662
 20
95.6811
 11
38.2142
 21
95.5749
  0
LINE
  8
0
 10
38.2142
 20
95.5749
 11
39.0794
 21
95.5395
  0
LINE
  8
0
 10
39.0794
 20
95.5395
 11
39.8929
 21
95.5739
  0
LINE
  8
0
 10
6.46835
 20
70.7585
 11
6.46835
 21
99.9251
  0
LINE
  8
0
 10
6.46835
 20
99.9251
 11
11.5898
 21
99.9251
  0
LINE
  8
0
 10
11.5898
 20
99.9251
 11
15.5894
 21
89.3987
  0
LINE
  8
0
 10
15.5894
 20
89.3987
 11
15.8509
 21
88.6602
  0
LINE
  8
0
 10
15.8509
 20
88.6602
 11
16.1829
 21
87.5854
  0
LINE
  8
0
 10
16.1829
 20
87.5854
 11
16.5855
 21
86.1744
  0
LINE
  8
0
 10
16.5855
 20
86.1744
 11
17.0585
 21
84.4272
  0
LINE
  8
0
 10
17.0585
 20
84.4272
 11
17.6194
 21
86.3648
  0
LINE
  8
0
 10
17.6194
 20
86.3648
 11
18.5722
 21
89.3764
  0
LINE
  8
0
 10
18.5722
 20
89.3764
 11
22.5686
 21
99.9251
  0
LINE
  8
0
 10
22.5686
 20
99.9251
 11
27.4319
 21
99.9251
  0
LINE
  8
0
 10
27.4319
 20
99.9251
 11
27.4319
 21
70.7585
  0
LINE
  8
0
 10
27.4319
 20
70.7585
 11
23.9294
 21
70.7585
  0
LINE
  8
0
 10
23.9294
 20
70.7585
 11
23.9294
 21
89.5262
  0
LINE
  8
0
 10
23.9294
 20
89.5262
 11
23.9334
 21
90.8926
  0
LINE
  8
0
 10
23.9334
 20
90.8926
 11
23.9454
 21
92.0725
  0
LINE
  8
0
 10
23.9454
 20
92.0725
 11
23.9653
 21
93.0661
  0
LINE
  8
0
 10
23.9653
 20
93.0661
 11
23.9932
 21
93.8732
  0
LINE
  8
0
 10
23.9932
 20
93.8732
 11
24.0601
 21
96.0339
  0
LINE
  8
0
 10
24.0601
 20
96.0339
 11
23.4129
 21
93.9801
  0
LINE
  8
0
 10
23.4129
 20
93.9801
 11
22.8546
 21
92.2518
  0
LINE
  8
0
 10
22.8546
 20
92.2518
 11
22.3852
 21
90.849
  0
LINE
  8
0
 10
22.3852
 20
90.849
 11
22.0046
 21
89.7716
  0
LINE
  8
0
 10
22.0046
 20
89.7716
 11
18.4607
 21
80.3447
  0
LINE
  8
0
 10
18.4607
 20
80.3447
 11
15.5001
 21
80.3447
  0
LINE
  8
0
 10
15.5001
 20
80.3447
 11
11.9148
 21
89.7716
  0
LINE
  8
0
 10
11.9148
 20
89.7716
 11
11.6394
 21
90.5334
  0
LINE
  8
0
 10
11.6394
 20
90.5334
 11
11.2018
 21
91.8311
  0
LINE
  8
0
 10
11.2018
 20
91.8311
 11
10.602
 21
93.6646
  0
LINE
  8
0
 10
10.602
 20
93.6646
 11
9.84016
 21
96.0339
  0
LINE
  8
0
 10
9.84016
 20
96.0339
 11
9.92618
 21
89.5262
  0
LINE
  8
0
 10
9.92618
 20
89.5262
 11
9.92618
 21
70.7585
  0
LINE
  8
0
 10
9.92618
 20
70.7585
 11
6.46835
 21
70.7585
  0
LINE
  8
0
 10
41.0915
 20
75.2181
 11
41.4317
 21
75.3199
  0
LINE
  8
0
 10
41.4317
 20
75.3199
 11
41.7226
 21
75.4668
  0
LINE
  8
0
 10
41.7226
 20
75.4668
 11
41.9642
 21
75.6589
  0
LINE
  8
0
 10
41.9642
 20
75.6589
 11
42.1565
 21
75.8961
  0
LINE
  8
0
 10
42.1565
 20
75.8961
 11
42.3027
 21
76.2026
  0
LINE
  8
0
 10
42.3027
 20
76.2026
 11
42.4071
 21
76.6012
  0
LINE
  8
0
 10
42.4071
 20
76.6012
 11
42.4697
 21
77.0919
  0
LINE
  8
0
 10
42.4697
 20
77.0919
 11
42.4906
 21
77.6748
  0
LINE
  8
0
 10
42.4906
 20
77.6748
 11
42.4024
 21
78.6588
  0
LINE
  8
0
 10
42.4024
 20
78.6588
 11
42.1378
 21
79.3617
  0
LINE
  8
0
 10
42.1378
 20
79.3617
 11
41.6967
 21
79.7834
  0
LINE
  8
0
 10
41.6967
 20
79.7834
 11
41.0792
 21
79.924
  0
LINE
  8
0
 10
41.0792
 20
79.924
 11
40.8266
 21
79.8984
  0
LINE
  8
0
 10
40.8266
 20
79.8984
 11
40.5995
 21
79.8217
  0
LINE
  8
0
 10
40.5995
 20
79.8217
 11
40.3979
 21
79.6939
  0
LINE
  8
0
 10
40.3979
 20
79.6939
 11
40.2218
 21
79.5149
  0
LINE
  8
0
 10
40.2218
 20
79.5149
 11
40.0653
 21
79.284
  0
LINE
  8
0
 10
40.0653
 20
79.284
 11
39.9239
 21
78.999
  0
LINE
  8
0
 10
39.9239
 20
78.999
 11
39.7975
 21
78.66
  0
LINE
  8
0
 10
39.7975
 20
78.66
 11
39.6862
 21
78.2669
  0
LINE
  8
0
 10
39.6862
 20
78.2669
 11
39.4312
 21
77.2674
  0
LINE
  8
0
 10
39.4312
 20
77.2674
 11
39.2053
 21
76.4689
  0
LINE
  8
0
 10
39.2053
 20
76.4689
 11
39.0086
 21
75.8713
  0
LINE
  8
0
 10
39.0086
 20
75.8713
 11
38.8411
 21
75.4748
  0
LINE
  8
0
 10
38.8411
 20
75.4748
 11
38.678
 21
75.1965
  0
LINE
  8
0
 10
38.678
 20
75.1965
 11
38.4959
 21
74.9524
  0
LINE
  8
0
 10
38.4959
 20
74.9524
 11
38.2947
 21
74.7426
  0
LINE
  8
0
 10
38.2947
 20
74.7426
 11
38.0746
 21
74.567
  0
LINE
  8
0
 10
38.0746
 20
74.567
 11
37.83
 21
74.4289
  0
LINE
  8
0
 10
37.83
 20
74.4289
 11
37.5571
 21
74.3302
  0
LINE
  8
0
 10
37.5571
 20
74.3302
 11
37.2558
 21
74.271
  0
LINE
  8
0
 10
37.2558
 20
74.271
 11
36.926
 21
74.2513
  0
LINE
  8
0
 10
36.926
 20
74.2513
 11
36.3494
 21
74.3065
  0
LINE
  8
0
 10
36.3494
 20
74.3065
 11
35.8392
 21
74.4721
  0
LINE
  8
0
 10
35.8392
 20
74.4721
 11
35.3956
 21
74.7481
  0
LINE
  8
0
 10
35.3956
 20
74.7481
 11
35.0184
 21
75.1345
  0
LINE
  8
0
 10
35.0184
 20
75.1345
 11
34.7174
 21
75.6256
  0
LINE
  8
0
 10
34.7174
 20
75.6256
 11
34.5024
 21
76.2155
  0
LINE
  8
0
 10
34.5024
 20
76.2155
 11
34.3735
 21
76.9043
  0
LINE
  8
0
 10
34.3735
 20
76.9043
 11
34.3305
 21
77.692
  0
LINE
  8
0
 10
34.3305
 20
77.692
 11
34.3655
 21
78.3878
  0
LINE
  8
0
 10
34.3655
 20
78.3878
 11
34.4705
 21
79.0098
  0
LINE
  8
0
 10
34.4705
 20
79.0098
 11
34.6455
 21
79.5578
  0
LINE
  8
0
 10
34.6455
 20
79.5578
 11
34.8906
 21
80.0321
  0
LINE
  8
0
 10
34.8906
 20
80.0321
 11
35.2025
 21
80.4288
  0
LINE
  8
0
 10
35.2025
 20
80.4288
 11
35.5782
 21
80.743
  0
LINE
  8
0
 10
35.5782
 20
80.743
 11
36.0176
 21
80.9748
  0
LINE
  8
0
 10
36.0176
 20
80.9748
 11
36.5207
 21
81.1241
  0
LINE
  8
0
 10
36.5207
 20
81.1241
 11
36.6889
 21
79.7741
  0
LINE
  8
0
 10
36.6889
 20
79.7741
 11
36.4011
 21
79.7026
  0
LINE
  8
0
 10
36.4011
 20
79.7026
 11
36.1506
 21
79.58
  0
LINE
  8
0
 10
36.1506
 20
79.58
 11
35.9374
 21
79.4065
  0
LINE
  8
0
 10
35.9374
 20
79.4065
 11
35.7615
 21
79.182
  0
LINE
  8
0
 10
35.7615
 20
79.182
 11
35.624
 21
78.9019
  0
LINE
  8
0
 10
35.624
 20
78.9019
 11
35.5257
 21
78.5602
  0
LINE
  8
0
 10
35.5257
 20
78.5602
 11
35.4667
 21
78.1569
  0
LINE
  8
0
 10
35.4667
 20
78.1569
 11
35.4471
 21
77.692
  0
LINE
  8
0
 10
35.4471
 20
77.692
 11
35.5249
 21
76.7988
  0
LINE
  8
0
 10
35.5249
 20
76.7988
 11
35.7585
 21
76.1608
  0
LINE
  8
0
 10
35.7585
 20
76.1608
 11
36.1477
 21
75.778
  0
LINE
  8
0
 10
36.1477
 20
75.778
 11
36.6926
 21
75.6504
  0
LINE
  8
0
 10
36.6926
 20
75.6504
 11
36.929
 21
75.672
  0
LINE
  8
0
 10
36.929
 20
75.672
 11
37.1404
 21
75.7367
  0
LINE
  8
0
 10
37.1404
 20
75.7367
 11
37.327
 21
75.8446
  0
LINE
  8
0
 10
37.327
 20
75.8446
 11
37.4886
 21
75.9956
  0
LINE
  8
0
 10
37.4886
 20
75.9956
 11
37.6306
 21
76.1951
  0
LINE
  8
0
 10
37.6306
 20
76.1951
 11
37.7579
 21
76.447
  0
LINE
  8
0
 10
37.7579
 20
76.447
 11
37.8707
 21
76.7515
  0
LINE
  8
0
 10
37.8707
 20
76.7515
 11
37.9689
 21
77.1085
  0
LINE
  8
0
 10
37.9689
 20
77.1085
 11
38.2269
 21
78.0998
  0
LINE
  8
0
 10
38.2269
 20
78.0998
 11
38.3922
 21
78.7309
  0
LINE
  8
0
 10
38.3922
 20
78.7309
 11
38.5564
 21
79.2668
  0
LINE
  8
0
 10
38.5564
 20
79.2668
 11
38.7195
 21
79.7075
  0
LINE
  8
0
 10
38.7195
 20
79.7075
 11
38.8816
 21
80.053
  0
LINE
  8
0
 10
38.8816
 20
80.053
 11
39.0533
 21
80.335
  0
LINE
  8
0
 10
39.0533
 20
80.335
 11
39.2452
 21
80.5852
  0
LINE
  8
0
 10
39.2452
 20
80.5852
 11
39.4574
 21
80.8036
  0
LINE
  8
0
 10
39.4574
 20
80.8036
 11
39.6899
 21
80.9902
  0
LINE
  8
0
 10
39.6899
 20
80.9902
 11
39.9462
 21
81.1396
  0
LINE
  8
0
 10
39.9462
 20
81.1396
 11
40.2298
 21
81.2464
  0
LINE
  8
0
 10
40.2298
 20
81.2464
 11
40.5407
 21
81.3104
  0
LINE
  8
0
 10
40.5407
 20
81.3104
 11
40.879
 21
81.3317
  0
LINE
  8
0
 10
40.879
 20
81.3317
 11
41.4832
 21
81.2711
  0
LINE
  8
0
 10
41.4832
 20
81.2711
 11
42.0186
 21
81.0891
  0
LINE
  8
0
 10
42.0186
 20
81.0891
 11
42.485
 21
80.7859
  0
LINE
  8
0
 10
42.485
 20
80.7859
 11
42.8824
 21
80.3613
  0
LINE
  8
0
 10
42.8824
 20
80.3613
 11
43.1995
 21
79.8295
  0
LINE
  8
0
 10
43.1995
 20
79.8295
 11
43.426
 21
79.2045
  0
LINE
  8
0
 10
43.426
 20
79.2045
 11
43.5619
 21
78.4862
  0
LINE
  8
0
 10
43.5619
 20
78.4862
 11
43.6072
 21
77.6748
  0
LINE
  8
0
 10
43.6072
 20
77.6748
 11
43.5733
 21
76.8681
  0
LINE
  8
0
 10
43.5733
 20
76.8681
 11
43.4715
 21
76.1639
  0
LINE
  8
0
 10
43.4715
 20
76.1639
 11
43.3018
 21
75.5623
  0
LINE
  8
0
 10
43.3018
 20
75.5623
 11
43.0642
 21
75.0633
  0
LINE
  8
0
 10
43.0642
 20
75.0633
 11
42.7536
 21
74.6543
  0
LINE
  8
0
 10
42.7536
 20
74.6543
 11
42.3647
 21
74.3229
  0
LINE
  8
0
 10
42.3647
 20
74.3229
 11
41.8974
 21
74.069
  0
LINE
  8
0
 10
41.8974
 20
74.069
 11
41.3519
 21
73.8926
  0
LINE
  8
0
 10
41.3519
 20
73.8926
 11
41.0915
 21
75.2181
  0
LINE
  8
0
 10
37.822
 20
63.6763
 11
36.9021
 21
63.8707
  0
LINE
  8
0
 10
36.9021
 20
63.8707
 11
36.1108
 21
64.1947
  0
LINE
  8
0
 10
36.1108
 20
64.1947
 11
35.4483
 21
64.6482
  0
LINE
  8
0
 10
35.4483
 20
64.6482
 11
34.9248
 21
65.2247
  0
LINE
  8
0
 10
34.9248
 20
65.2247
 11
34.551
 21
65.9159
  0
LINE
  8
0
 10
34.551
 20
65.9159
 11
34.3266
 21
66.7221
  0
LINE
  8
0
 10
34.3266
 20
66.7221
 11
34.2518
 21
67.643
  0
LINE
  8
0
 10
34.2518
 20
67.643
 11
34.3265
 21
68.5626
  0
LINE
  8
0
 10
34.3265
 20
68.5626
 11
34.5503
 21
69.3634
  0
LINE
  8
0
 10
34.5503
 20
69.3634
 11
34.9235
 21
70.0453
  0
LINE
  8
0
 10
34.9235
 20
70.0453
 11
35.4458
 21
70.6084
  0
LINE
  8
0
 10
35.4458
 20
70.6084
 11
36.1191
 21
71.0496
  0
LINE
  8
0
 10
36.1191
 20
71.0496
 11
36.9448
 21
71.3647
  0
LINE
  8
0
 10
36.9448
 20
71.3647
 11
37.9229
 21
71.5538
  0
LINE
  8
0
 10
37.9229
 20
71.5538
 11
39.0536
 21
71.6169
  0
LINE
  8
0
 10
39.0536
 20
71.6169
 11
39.2538
 21
71.6169
  0
LINE
  8
0
 10
39.2538
 20
71.6169
 11
39.2538
 21
65.1863
  0
LINE
  8
0
 10
39.2538
 20
65.1863
 11
39.97
 21
65.2282
  0
LINE
  8
0
 10
39.97
 20
65.2282
 11
40.6041
 21
65.354
  0
LINE
  8
0
 10
40.6041
 20
65.354
 11
41.156
 21
65.5636
  0
LINE
  8
0
 10
41.156
 20
65.5636
 11
41.6258
 21
65.857
  0
LINE
  8
0
 10
41.6258
 20
65.857
 11
42.0009
 21
66.2233
  0
LINE
  8
0
 10
42.0009
 20
66.2233
 11
42.2689
 21
66.6514
  0
LINE
  8
0
 10
42.2689
 20
66.6514
 11
42.4296
 21
67.1415
  0
LINE
  8
0
 10
42.4296
 20
67.1415
 11
42.4832
 21
67.6934
  0
LINE
  8
0
 10
42.4832
 20
67.6934
 11
42.46
 21
68.1094
  0
LINE
  8
0
 10
42.46
 20
68.1094
 11
42.3902
 21
68.4986
  0
LINE
  8
0
 10
42.3902
 20
68.4986
 11
42.2739
 21
68.8611
  0
LINE
  8
0
 10
42.2739
 20
68.8611
 11
42.111
 21
69.1969
  0
LINE
  8
0
 10
42.111
 20
69.1969
 11
41.9073
 21
69.4931
  0
LINE
  8
0
 10
41.9073
 20
69.4931
 11
41.6694
 21
69.7356
  0
LINE
  8
0
 10
41.6694
 20
69.7356
 11
41.3975
 21
69.9243
  0
LINE
  8
0
 10
41.3975
 20
69.9243
 11
41.0915
 21
70.0593
  0
LINE
  8
0
 10
41.0915
 20
70.0593
 11
41.4673
 21
71.3749
  0
LINE
  8
0
 10
41.4673
 20
71.3749
 11
41.9554
 21
71.1535
  0
LINE
  8
0
 10
41.9554
 20
71.1535
 11
42.3828
 21
70.8556
  0
LINE
  8
0
 10
42.3828
 20
70.8556
 11
42.7496
 21
70.481
  0
LINE
  8
0
 10
42.7496
 20
70.481
 11
43.0556
 21
70.0298
  0
LINE
  8
0
 10
43.0556
 20
70.0298
 11
43.297
 21
69.5166
  0
LINE
  8
0
 10
43.297
 20
69.5166
 11
43.4693
 21
68.9562
  0
LINE
  8
0
 10
43.4693
 20
68.9562
 11
43.5727
 21
68.3484
  0
LINE
  8
0
 10
43.5727
 20
68.3484
 11
43.6072
 21
67.6934
  0
LINE
  8
0
 10
43.6072
 20
67.6934
 11
43.5306
 21
66.7669
  0
LINE
  8
0
 10
43.5306
 20
66.7669
 11
43.3007
 21
65.954
  0
LINE
  8
0
 10
43.3007
 20
65.954
 11
42.9176
 21
65.2548
  0
LINE
  8
0
 10
42.9176
 20
65.2548
 11
42.3813
 21
64.6691
  0
LINE
  8
0
 10
42.3813
 20
64.6691
 11
41.7021
 21
64.2064
  0
LINE
  8
0
 10
41.7021
 20
64.2064
 11
40.8906
 21
63.8759
  0
LINE
  8
0
 10
40.8906
 20
63.8759
 11
39.9468
 21
63.6776
  0
LINE
  8
0
 10
39.9468
 20
63.6776
 11
38.8705
 21
63.6115
  0
LINE
  8
0
 10
38.8705
 20
63.6115
 11
37.822
 21
63.6763
  0
LINE
  8
0
 10
38.104
 20
70.0667
 11
36.9035
 21
69.8286
  0
LINE
  8
0
 10
36.9035
 20
69.8286
 11
36.0459
 21
69.348
  0
LINE
  8
0
 10
36.0459
 20
69.348
 11
35.5314
 21
68.6248
  0
LINE
  8
0
 10
35.5314
 20
68.6248
 11
35.3598
 21
67.659
  0
LINE
  8
0
 10
35.3598
 20
67.659
 11
35.4056
 21
67.1304
  0
LINE
  8
0
 10
35.4056
 20
67.1304
 11
35.5429
 21
66.66
  0
LINE
  8
0
 10
35.5429
 20
66.66
 11
35.7717
 21
66.2478
  0
LINE
  8
0
 10
35.7717
 20
66.2478
 11
36.092
 21
65.8938
  0
LINE
  8
0
 10
36.092
 20
65.8938
 11
36.4923
 21
65.6069
  0
LINE
  8
0
 10
36.4923
 20
65.6069
 11
36.9611
 21
65.396
  0
LINE
  8
0
 10
36.9611
 20
65.396
 11
37.4983
 21
65.2611
  0
LINE
  8
0
 10
37.4983
 20
65.2611
 11
38.104
 21
65.2022
  0
LINE
  8
0
 10
38.104
 20
65.2022
 11
38.104
 21
70.0667
  0
LINE
  8
0
 10
31.1072
 20
54.4703
 11
31.1072
 21
55.9702
  0
LINE
  8
0
 10
31.1072
 20
55.9702
 11
38.7956
 21
55.9702
  0
LINE
  8
0
 10
38.7956
 20
55.9702
 11
34.4091
 21
59.9268
  0
LINE
  8
0
 10
34.4091
 20
59.9268
 11
34.4091
 21
61.6846
  0
LINE
  8
0
 10
34.4091
 20
61.6846
 11
38.2981
 21
58.0277
  0
LINE
  8
0
 10
38.2981
 20
58.0277
 11
43.45
 21
61.8762
  0
LINE
  8
0
 10
43.45
 20
61.8762
 11
43.45
 21
60.1184
  0
LINE
  8
0
 10
43.45
 20
60.1184
 11
39.2808
 21
57.0695
  0
LINE
  8
0
 10
39.2808
 20
57.0695
 11
40.0953
 21
55.9702
  0
LINE
  8
0
 10
40.0953
 20
55.9702
 11
43.45
 21
55.9702
  0
LINE
  8
0
 10
43.45
 20
55.9702
 11
43.45
 21
54.4703
  0
LINE
  8
0
 10
43.45
 20
54.4703
 11
31.1072
 21
54.4703
  0
LINE
  8
0
 10
14.9169
 20
31.5918
 11
14.9169
 21
44.2375
  0
LINE
  8
0
 10
14.9169
 20
44.2375
 11
4.45741
 21
60.7585
  0
LINE
  8
0
 10
4.45741
 20
60.7585
 11
8.88724
 21
60.7585
  0
LINE
  8
0
 10
8.88724
 20
60.7585
 11
16.9692
 21
47.5678
  0
LINE
  8
0
 10
16.9692
 20
47.5678
 11
25.0098
 21
60.7585
  0
LINE
  8
0
 10
25.0098
 20
60.7585
 11
29.4396
 21
60.7585
  0
LINE
  8
0
 10
29.4396
 20
60.7585
 11
18.9802
 21
44.2375
  0
LINE
  8
0
 10
18.9802
 20
44.2375
 11
18.9802
 21
31.5918
  0
LINE
  8
0
 10
18.9802
 20
31.5918
 11
14.9169
 21
31.5918
  0
LINE
  8
0
 10
42.267
 20
43.6978
 11
42.267
 21
47.2122
  0
LINE
  8
0
 10
42.267
 20
47.2122
 11
35.592
 21
47.2122
  0
LINE
  8
0
 10
35.592
 20
47.2122
 11
35.592
 21
44.5552
  0
LINE
  8
0
 10
35.592
 20
44.5552
 11
34.4091
 21
44.5552
  0
LINE
  8
0
 10
34.4091
 20
44.5552
 11
34.4091
 21
48.7121
  0
LINE
  8
0
 10
34.4091
 20
48.7121
 11
42.267
 21
48.7121
  0
LINE
  8
0
 10
42.267
 20
48.7121
 11
42.267
 21
51.8776
  0
LINE
  8
0
 10
42.267
 20
51.8776
 11
43.45
 21
51.8776
  0
LINE
  8
0
 10
43.45
 20
51.8776
 11
43.45
 21
43.6978
  0
LINE
  8
0
 10
43.45
 20
43.6978
 11
42.267
 21
43.6978
  0
LINE
  8
0
 10
31.1072
 20
47.0464
 11
31.1072
 21
48.7121
  0
LINE
  8
0
 10
31.1072
 20
48.7121
 11
32.7066
 21
48.7121
  0
LINE
  8
0
 10
32.7066
 20
48.7121
 11
32.7066
 21
47.0464
  0
LINE
  8
0
 10
32.7066
 20
47.0464
 11
31.1072
 21
47.0464
  0
LINE
  8
0
 10
42.267
 20
33.6243
 11
42.267
 21
37.1387
  0
LINE
  8
0
 10
42.267
 20
37.1387
 11
32.2901
 21
37.1387
  0
LINE
  8
0
 10
32.2901
 20
37.1387
 11
32.2901
 21
34.7323
  0
LINE
  8
0
 10
32.2901
 20
34.7323
 11
31.1072
 21
34.7323
  0
LINE
  8
0
 10
31.1072
 20
34.7323
 11
31.1072
 21
38.6385
  0
LINE
  8
0
 10
31.1072
 20
38.6385
 11
42.267
 21
38.6385
  0
LINE
  8
0
 10
42.267
 20
38.6385
 11
42.267
 21
41.8041
  0
LINE
  8
0
 10
42.267
 20
41.8041
 11
43.45
 21
41.8041
  0
LINE
  8
0
 10
43.45
 20
41.8041
 11
43.45
 21
33.6243
  0
LINE
  8
0
 10
43.45
 20
33.6243
 11
42.267
 21
33.6243
  0
LINE
  8
0
 10
38.2613
 20
25.2914
 11
38.2613
 21
29.9555
  0
LINE
  8
0
 10
38.2613
 20
29.9555
 11
39.5941
 21
29.9555
  0
LINE
  8
0
 10
39.5941
 20
29.9555
 11
39.5941
 21
25.2914
  0
LINE
  8
0
 10
39.5941
 20
25.2914
 11
38.2613
 21
25.2914
  0
ENDSEC
  0
SECTION
  2
OBJECTS
  0
DICTIONARY
  0
ENDSEC
  0
EOF
