  0
SECTION
  2
HEADER
  9
$ACADVER
  1
AC1009
  9
$DWGCODEPAGE
  3
ANSI_1252
  9
$INSBASE
 10
0.0
 20
0.0
 30
0.0
  9
$EXTMIN
 10
-100
 20
-100
 30
-100
  9
$EXTMAX
 10
100
 20
100
 30
100
  9
$LIMMIN
 10
0.0
 20
0.0
  9
$LIMMAX
 10
420.0
 20
297.0
  9
$ORTHOMODE
 70
0
  9
$REGENMODE
 70
1
  9
$DRAGMODE
 70
2
  9
$FILLMODE
 70
1
  9
$QTEXTMODE
 70
0
  9
$MIRRTEXT
 70
1
  9
$OSMODE
 70
20583
  9
$LTSCALE
 40
1.0
  9
$ATTMODE
 70
1
  9
$TEXTSIZE
 40
2.5
  9
$TRACEWID
 40
1.0
  9
$TEXTSTYLE
  7
Standard
  9
$CLAYER
  8
0
  9
$CELTYPE
  6
ByLayer
  9
$CECOLOR
 62
256
  9
$DIMSCALE
 40
1.0
  9
$DIMASZ
 40
2.5
  9
$DIMEXO
 40
0.625
  9
$DIMDLI
 40
3.75
  9
$DIMRND
 40
0.0
  9
$DIMDLE
 40
0.0
  9
$DIMEXE
 40
1.25
  9
$DIMTP
 40
0.0
  9
$DIMTM
 40
0.0
  9
$DIMTXT
 40
2.5
  9
$DIMCEN
 40
2.5
  9
$DIMTSZ
 40
0.0
  9
$DIMTOL
 70
0
  9
$DIMLIM
 70
0
  9
$DIMTIH
 70
0
  9
$DIMTOH
 70
0
  9
$DIMSE1
 70
0
  9
$DIMSE2
 70
0
  9
$DIMTAD
 70
1
  9
$DIMZIN
 70
8
  9
$DIMBLK
  1

  9
$DIMASO
 70
1
  9
$DIMSHO
 70
1
  9
$DIMPOST
  1

  9
$DIMAPOST
  1

  9
$DIMALT
 70
0
  9
$DIMALTD
 70
3
  9
$DIMALTF
 40
0.03937007874
  9
$DIMLFAC
 40
1.0
  9
$DIMTOFL
 70
1
  9
$DIMTVP
 40
0.0
  9
$DIMTIX
 70
0
  9
$DIMSOXD
 70
0
  9
$DIMSAH
 70
0
  9
$DIMBLK1
  1

  9
$DIMBLK2
  1

  9
$DIMSTYLE
  2
ISO-25
  9
$DIMCLRD
 70
0
  9
$DIMCLRE
 70
0
  9
$DIMCLRT
 70
0
  9
$DIMTFAC
 40
1.0
  9
$DIMGAP
 40
0.625
  9
$COORDS
 70
1
  9
$ATTDIA
 70
0
  9
$ATTREQ
 70
1
  9
$HANDLING
 70
1
  9
$LUNITS
 70
2
  9
$LUPREC
 70
4
  9
$SKETCHINC
 40
1.0
  9
$FILLETRAD
 40
10.0
  9
$AUNITS
 70
0
  9
$AUPREC
 70
2
  9
$MENU
  1
.
  9
$ELEVATION
 40
0.0
  9
$PELEVATION
 40
0.0
  9
$THICKNESS
 40
0.0
  9
$LIMCHECK
 70
0
  9
$CHAMFERA
 40
0.0
  9
$CHAMFERB
 40
0.0
  9
$SKPOLY
 70
0
  9
$TDCREATE
 40
2458909.111701389
  9
$TDUPDATE
 40
2458909.111701389
  9
$TDINDWG
 40
0.0
  9
$TDUSRTIMER
 40
0.0
  9
$USRTIMER
 70
1
  9
$ANGBASE
 50
0.0
  9
$ANGDIR
 70
0
  9
$PDMODE
 70
0
  9
$PDSIZE
 40
0.0
  9
$PLINEWID
 40
0.0
  9
$SPLFRAME
 70
0
  9
$SPLINETYPE
 70
6
  9
$SPLINESEGS
 70
8
  9
$HANDSEED
  5
399
  9
$SURFTAB1
 70
6
  9
$SURFTAB2
 70
6
  9
$SURFTYPE
 70
6
  9
$SURFU
 70
6
  9
$SURFV
 70
6
  9
$UCSNAME
  2

  9
$UCSORG
 10
0.0
 20
0.0
 30
0.0
  9
$UCSXDIR
 10
1.0
 20
0.0
 30
0.0
  9
$UCSYDIR
 10
0.0
 20
1.0
 30
0.0
  9
$PUCSNAME
  2

  9
$PUCSORG
 10
0.0
 20
0.0
 30
0.0
  9
$PUCSXDIR
 10
1.0
 20
0.0
 30
0.0
  9
$PUCSYDIR
 10
0.0
 20
1.0
 30
0.0
  9
$USERI1
 70
0
  9
$USERI2
 70
0
  9
$USERI3
 70
0
  9
$USERI4
 70
0
  9
$USERI5
 70
0
  9
$USERR1
 40
0.0
  9
$USERR2
 40
0.0
  9
$USERR3
 40
0.0
  9
$USERR4
 40
0.0
  9
$USERR5
 40
0.0
  9
$WORLDVIEW
 70
1
  9
$SHADEDGE
 70
3
  9
$SHADEDIF
 70
70
  9
$TILEMODE
 70
1
  9
$MAXACTVP
 70
64
  9
$PLIMCHECK
 70
0
  9
$PEXTMIN
 10
1e+20
 20
1e+20
 30
1e+20
  9
$PEXTMAX
 10
-1e+20
 20
-1e+20
 30
-1e+20
  9
$PLIMMIN
 10
0.0
 20
0.0
  9
$PLIMMAX
 10
420.0
 20
297.0
  9
$UNITMODE
 70
0
  9
$VISRETAIN
 70
1
  9
$PLINEGEN
 70
0
  9
$PSLTSCALE
 70
1
  0
ENDSEC
  0
SECTION
  2
TABLES
  0
TABLE
  2
VPORT
 70
1
  0
VPORT
  5
38B
  2
*Active
 70
0
 10
0.0
 20
0.0
 11
1.0
 21
1.0
 12
70.0
 22
50.0
 13
0.0
 23
0.0
 14
0.5
 24
0.5
 15
0.5
 25
0.5
 16
0.0
 26
0.0
 36
1.0
 17
0.0
 27
0.0
 37
0.0
 40
1.0
 41
1.34
 42
50.0
 43
0.0
 44
0.0
 50
0.0
 51
0.0
 71
0
 72
1000
 73
1
 74
3
 75
0
 76
0
 77
0
 78
0
  0
ENDTAB
  0
TABLE
  2
LTYPE
 70
3
  0
LTYPE
  5
38C
  2
ByBlock
 70
0
  3

 72
65
 73
0
 40
0.0
  0
LTYPE
  5
38D
  2
ByLayer
 70
0
  3

 72
65
 73
0
 40
0.0
  0
LTYPE
  5
38E
  2
Continuous
 70
0
  3

 72
65
 73
0
 40
0.0
  0
ENDTAB
  0
TABLE
  2
LAYER
 70
2
  0
LAYER
  5
38F
  2
0
 70
0
 62
7
  6
Continuous
  0
LAYER
  5
390
  2
Defpoints
 70
0
 62
7
  6
Continuous
  0
ENDTAB
  0
TABLE
  2
STYLE
 70
1
  0
STYLE
  5
391
  2
Standard
 70
0
 40
0.0
 41
1.0
 50
0.0
 71
0
 42
2.5
  3
txt
  4

  0
ENDTAB
  0
TABLE
  2
VIEW
 70
0
  0
ENDTAB
  0
TABLE
  2
UCS
 70
0
  0
ENDTAB
  0
TABLE
  2
APPID
 70
1
  0
APPID
  5
392
  2
ACAD
 70
0
  0
ENDTAB
  0
TABLE
  2
DIMSTYLE
 70
1
  0
DIMSTYLE
105
393
  2
Standard
 70
0
  3

  4

  5

  6

  7

 40
1.0
 41
2.5
 42
0.625
 43
3.75
 44
1.25
 45
0.0
 46
0.0
 47
0.0
 48
0.0
140
2.5
141
2.5
142
0.0
143
0.03937007874
144
1.0
145
0.0
146
1.0
147
0.625
 71
0
 72
0
 73
0
 74
0
 75
0
 76
0
 77
1
 78
8
170
0
171
3
172
1
173
0
174
0
175
0
176
0
177
0
178
0
  0
ENDTAB
  0
ENDSEC
  0
SECTION
  2
BLOCKS
  0
BLOCK
  5
36C
  8
0
  2
$Model_Space
 70
0
 10
0.0
 20
0.0
 30
0.0
  3
$Model_Space
  1

  0
ENDBLK
  5
36D
  8
0
  0
BLOCK
  5
36E
  8
0
  2
$Paper_Space
 70
0
 10
0.0
 20
0.0
 30
0.0
  3
$Paper_Space
  1

  0
ENDBLK
  5
36F
  8
0
  0
ENDSEC
  0
SECTION
  2
ENTITIES
  0
LINE
  5
100
  8
0
 10
42.0902
 20
1.48943
 30
0.0
 11
44.0
 21
2.33974
 31
0.0
  0
LINE
  5
101
  8
0
 10
44.0
 20
2.33974
 30
0.0
 11
45.6913
 21
3.56854
 31
0.0
  0
LINE
  5
102
  8
0
 10
45.6913
 20
3.56854
 30
0.0
 11
47.0902
 21
5.12215
 31
0.0
  0
LINE
  5
103
  8
0
 10
47.0902
 20
5.12215
 30
0.0
 11
48.1355
 21
6.93263
 31
0.0
  0
LINE
  5
104
  8
0
 10
48.1355
 20
6.93263
 30
0.0
 11
48.7815
 21
8.92087
 31
0.0
  0
LINE
  5
105
  8
0
 10
48.7815
 20
8.92087
 30
0.0
 11
49.0
 21
11.0
 31
0.0
  0
LINE
  5
106
  8
0
 10
49.0
 20
11.0
 30
0.0
 11
49.0
 21
164.0
 31
0.0
  0
LINE
  5
107
  8
0
 10
49.0
 20
164.0
 30
0.0
 11
48.7815
 21
166.079
 31
0.0
  0
LINE
  5
108
  8
0
 10
48.7815
 20
166.079
 30
0.0
 11
48.1355
 21
168.067
 31
0.0
  0
LINE
  5
109
  8
0
 10
48.1355
 20
168.067
 30
0.0
 11
47.0902
 21
169.878
 31
0.0
  0
LINE
  5
10A
  8
0
 10
47.0902
 20
169.878
 30
0.0
 11
45.6913
 21
171.431
 31
0.0
  0
LINE
  5
10B
  8
0
 10
45.6913
 20
171.431
 30
0.0
 11
44.0
 21
172.66
 31
0.0
  0
LINE
  5
10C
  8
0
 10
44.0
 20
172.66
 30
0.0
 11
42.0902
 21
173.511
 31
0.0
  0
LINE
  5
10D
  8
0
 10
42.0902
 20
173.511
 30
0.0
 11
40.0453
 21
173.945
 31
0.0
  0
LINE
  5
10E
  8
0
 10
40.0453
 20
173.945
 30
0.0
 11
9.95471
 21
173.945
 31
0.0
  0
LINE
  5
10F
  8
0
 10
9.95471
 20
173.945
 30
0.0
 11
7.90982
 21
173.511
 31
0.0
  0
LINE
  5
110
  8
0
 10
7.90982
 20
173.511
 30
0.0
 11
6.0
 21
172.66
 31
0.0
  0
LINE
  5
111
  8
0
 10
6.0
 20
172.66
 30
0.0
 11
4.30869
 21
171.431
 31
0.0
  0
LINE
  5
112
  8
0
 10
4.30869
 20
171.431
 30
0.0
 11
2.90982
 21
169.878
 31
0.0
  0
LINE
  5
113
  8
0
 10
2.90982
 20
169.878
 30
0.0
 11
1.86453
 21
168.067
 31
0.0
  0
LINE
  5
114
  8
0
 10
1.86453
 20
168.067
 30
0.0
 11
1.21852
 21
166.079
 31
0.0
  0
LINE
  5
115
  8
0
 10
1.21852
 20
166.079
 30
0.0
 11
1.0
 21
164.0
 31
0.0
  0
LINE
  5
116
  8
0
 10
1.0
 20
164.0
 30
0.0
 11
1.0
 21
11.0
 31
0.0
  0
LINE
  5
117
  8
0
 10
1.0
 20
11.0
 30
0.0
 11
1.21852
 21
8.92087
 31
0.0
  0
LINE
  5
118
  8
0
 10
1.21852
 20
8.92087
 30
0.0
 11
1.86453
 21
6.93263
 31
0.0
  0
LINE
  5
119
  8
0
 10
1.86453
 20
6.93263
 30
0.0
 11
2.90982
 21
5.12215
 31
0.0
  0
LINE
  5
11A
  8
0
 10
2.90982
 20
5.12215
 30
0.0
 11
4.30869
 21
3.56854
 31
0.0
  0
LINE
  5
11B
  8
0
 10
4.30869
 20
3.56854
 30
0.0
 11
6.0
 21
2.33974
 31
0.0
  0
LINE
  5
11C
  8
0
 10
6.0
 20
2.33974
 30
0.0
 11
7.90982
 21
1.48943
 31
0.0
  0
LINE
  5
11D
  8
0
 10
7.90982
 20
1.48943
 30
0.0
 11
9.95471
 21
1.05478
 31
0.0
  0
LINE
  5
11E
  8
0
 10
9.95471
 20
1.05478
 30
0.0
 11
40.0453
 21
1.05478
 31
0.0
  0
LINE
  5
11F
  8
0
 10
40.0453
 20
1.05478
 30
0.0
 11
42.0902
 21
1.48943
 31
0.0
  0
LINE
  5
120
  8
0
 10
37.7308
 20
142.964
 30
0.0
 11
37.7308
 21
147.441
 31
0.0
  0
LINE
  5
121
  8
0
 10
37.7308
 20
147.441
 30
0.0
 11
39.0103
 21
147.441
 31
0.0
  0
LINE
  5
122
  8
0
 10
39.0103
 20
147.441
 30
0.0
 11
39.0103
 21
142.964
 31
0.0
  0
LINE
  5
123
  8
0
 10
39.0103
 20
142.964
 30
0.0
 11
37.7308
 21
142.964
 31
0.0
  0
LINE
  5
124
  8
0
 10
40.4478
 20
133.301
 30
0.0
 11
40.7744
 21
133.399
 31
0.0
  0
LINE
  5
125
  8
0
 10
40.7744
 20
133.399
 30
0.0
 11
41.0536
 21
133.54
 31
0.0
  0
LINE
  5
126
  8
0
 10
41.0536
 20
133.54
 30
0.0
 11
41.2856
 21
133.724
 31
0.0
  0
LINE
  5
127
  8
0
 10
41.2856
 20
133.724
 30
0.0
 11
41.4702
 21
133.952
 31
0.0
  0
LINE
  5
128
  8
0
 10
41.4702
 20
133.952
 30
0.0
 11
41.6105
 21
134.246
 31
0.0
  0
LINE
  5
129
  8
0
 10
41.6105
 20
134.246
 30
0.0
 11
41.7108
 21
134.629
 31
0.0
  0
LINE
  5
12A
  8
0
 10
41.7108
 20
134.629
 30
0.0
 11
41.7709
 21
135.1
 31
0.0
  0
LINE
  5
12B
  8
0
 10
41.7709
 20
135.1
 30
0.0
 11
41.791
 21
135.66
 31
0.0
  0
LINE
  5
12C
  8
0
 10
41.791
 20
135.66
 30
0.0
 11
41.7063
 21
136.604
 31
0.0
  0
LINE
  5
12D
  8
0
 10
41.7063
 20
136.604
 30
0.0
 11
41.4522
 21
137.279
 31
0.0
  0
LINE
  5
12E
  8
0
 10
41.4522
 20
137.279
 30
0.0
 11
41.0288
 21
137.684
 31
0.0
  0
LINE
  5
12F
  8
0
 10
41.0288
 20
137.684
 30
0.0
 11
40.436
 21
137.819
 31
0.0
  0
LINE
  5
130
  8
0
 10
40.436
 20
137.819
 30
0.0
 11
40.1935
 21
137.794
 31
0.0
  0
LINE
  5
131
  8
0
 10
40.1935
 20
137.794
 30
0.0
 11
39.9755
 21
137.721
 31
0.0
  0
LINE
  5
132
  8
0
 10
39.9755
 20
137.721
 30
0.0
 11
39.782
 21
137.598
 31
0.0
  0
LINE
  5
133
  8
0
 10
39.782
 20
137.598
 30
0.0
 11
39.6129
 21
137.426
 31
0.0
  0
LINE
  5
134
  8
0
 10
39.6129
 20
137.426
 30
0.0
 11
39.4627
 21
137.205
 31
0.0
  0
LINE
  5
135
  8
0
 10
39.4627
 20
137.205
 30
0.0
 11
39.3269
 21
136.931
 31
0.0
  0
LINE
  5
136
  8
0
 10
39.3269
 20
136.931
 30
0.0
 11
39.2056
 21
136.606
 31
0.0
  0
LINE
  5
137
  8
0
 10
39.2056
 20
136.606
 30
0.0
 11
39.0987
 21
136.228
 31
0.0
  0
LINE
  5
138
  8
0
 10
39.0987
 20
136.228
 30
0.0
 11
38.8539
 21
135.269
 31
0.0
  0
LINE
  5
139
  8
0
 10
38.8539
 20
135.269
 30
0.0
 11
38.6371
 21
134.502
 31
0.0
  0
LINE
  5
13A
  8
0
 10
38.6371
 20
134.502
 30
0.0
 11
38.4482
 21
133.928
 31
0.0
  0
LINE
  5
13B
  8
0
 10
38.4482
 20
133.928
 30
0.0
 11
38.2874
 21
133.548
 31
0.0
  0
LINE
  5
13C
  8
0
 10
38.2874
 20
133.548
 30
0.0
 11
38.1309
 21
133.281
 31
0.0
  0
LINE
  5
13D
  8
0
 10
38.1309
 20
133.281
 30
0.0
 11
37.9561
 21
133.046
 31
0.0
  0
LINE
  5
13E
  8
0
 10
37.9561
 20
133.046
 30
0.0
 11
37.763
 21
132.845
 31
0.0
  0
LINE
  5
13F
  8
0
 10
37.763
 20
132.845
 30
0.0
 11
37.5516
 21
132.676
 31
0.0
  0
LINE
  5
140
  8
0
 10
37.5516
 20
132.676
 30
0.0
 11
37.3168
 21
132.544
 31
0.0
  0
LINE
  5
141
  8
0
 10
37.3168
 20
132.544
 30
0.0
 11
37.0548
 21
132.449
 31
0.0
  0
LINE
  5
142
  8
0
 10
37.0548
 20
132.449
 30
0.0
 11
36.7655
 21
132.392
 31
0.0
  0
LINE
  5
143
  8
0
 10
36.7655
 20
132.392
 30
0.0
 11
36.449
 21
132.373
 31
0.0
  0
LINE
  5
144
  8
0
 10
36.449
 20
132.373
 30
0.0
 11
35.8954
 21
132.426
 31
0.0
  0
LINE
  5
145
  8
0
 10
35.8954
 20
132.426
 30
0.0
 11
35.4057
 21
132.585
 31
0.0
  0
LINE
  5
146
  8
0
 10
35.4057
 20
132.585
 30
0.0
 11
34.9797
 21
132.85
 31
0.0
  0
LINE
  5
147
  8
0
 10
34.9797
 20
132.85
 30
0.0
 11
34.6176
 21
133.221
 31
0.0
  0
LINE
  5
148
  8
0
 10
34.6176
 20
133.221
 30
0.0
 11
34.3287
 21
133.692
 31
0.0
  0
LINE
  5
149
  8
0
 10
34.3287
 20
133.692
 30
0.0
 11
34.1223
 21
134.259
 31
0.0
  0
LINE
  5
14A
  8
0
 10
34.1223
 20
134.259
 30
0.0
 11
33.9985
 21
134.92
 31
0.0
  0
LINE
  5
14B
  8
0
 10
33.9985
 20
134.92
 30
0.0
 11
33.9572
 21
135.676
 31
0.0
  0
LINE
  5
14C
  8
0
 10
33.9572
 20
135.676
 30
0.0
 11
33.9909
 21
136.344
 31
0.0
  0
LINE
  5
14D
  8
0
 10
33.9909
 20
136.344
 30
0.0
 11
34.0917
 21
136.941
 31
0.0
  0
LINE
  5
14E
  8
0
 10
34.0917
 20
136.941
 30
0.0
 11
34.2597
 21
137.467
 31
0.0
  0
LINE
  5
14F
  8
0
 10
34.2597
 20
137.467
 30
0.0
 11
34.495
 21
137.923
 31
0.0
  0
LINE
  5
150
  8
0
 10
34.495
 20
137.923
 30
0.0
 11
34.7944
 21
138.304
 31
0.0
  0
LINE
  5
151
  8
0
 10
34.7944
 20
138.304
 30
0.0
 11
35.1551
 21
138.605
 31
0.0
  0
LINE
  5
152
  8
0
 10
35.1551
 20
138.605
 30
0.0
 11
35.5769
 21
138.828
 31
0.0
  0
LINE
  5
153
  8
0
 10
35.5769
 20
138.828
 30
0.0
 11
36.0598
 21
138.971
 31
0.0
  0
LINE
  5
154
  8
0
 10
36.0598
 20
138.971
 30
0.0
 11
36.2214
 21
137.675
 31
0.0
  0
LINE
  5
155
  8
0
 10
36.2214
 20
137.675
 30
0.0
 11
35.9451
 21
137.606
 31
0.0
  0
LINE
  5
156
  8
0
 10
35.9451
 20
137.606
 30
0.0
 11
35.7046
 21
137.489
 31
0.0
  0
LINE
  5
157
  8
0
 10
35.7046
 20
137.489
 30
0.0
 11
35.4999
 21
137.322
 31
0.0
  0
LINE
  5
158
  8
0
 10
35.4999
 20
137.322
 30
0.0
 11
35.3311
 21
137.107
 31
0.0
  0
LINE
  5
159
  8
0
 10
35.3311
 20
137.107
 30
0.0
 11
35.199
 21
136.838
 31
0.0
  0
LINE
  5
15A
  8
0
 10
35.199
 20
136.838
 30
0.0
 11
35.1047
 21
136.51
 31
0.0
  0
LINE
  5
15B
  8
0
 10
35.1047
 20
136.51
 30
0.0
 11
35.048
 21
136.123
 31
0.0
  0
LINE
  5
15C
  8
0
 10
35.048
 20
136.123
 30
0.0
 11
35.0292
 21
135.676
 31
0.0
  0
LINE
  5
15D
  8
0
 10
35.0292
 20
135.676
 30
0.0
 11
35.1039
 21
134.819
 31
0.0
  0
LINE
  5
15E
  8
0
 10
35.1039
 20
134.819
 30
0.0
 11
35.3281
 21
134.206
 31
0.0
  0
LINE
  5
15F
  8
0
 10
35.3281
 20
134.206
 30
0.0
 11
35.7018
 21
133.839
 31
0.0
  0
LINE
  5
160
  8
0
 10
35.7018
 20
133.839
 30
0.0
 11
36.2249
 21
133.716
 31
0.0
  0
LINE
  5
161
  8
0
 10
36.2249
 20
133.716
 30
0.0
 11
36.4518
 21
133.737
 31
0.0
  0
LINE
  5
162
  8
0
 10
36.4518
 20
133.737
 30
0.0
 11
36.6548
 21
133.799
 31
0.0
  0
LINE
  5
163
  8
0
 10
36.6548
 20
133.799
 30
0.0
 11
36.8339
 21
133.903
 31
0.0
  0
LINE
  5
164
  8
0
 10
36.8339
 20
133.903
 30
0.0
 11
36.9891
 21
134.048
 31
0.0
  0
LINE
  5
165
  8
0
 10
36.9891
 20
134.048
 30
0.0
 11
37.1254
 21
134.239
 31
0.0
  0
LINE
  5
166
  8
0
 10
37.1254
 20
134.239
 30
0.0
 11
37.2476
 21
134.481
 31
0.0
  0
LINE
  5
167
  8
0
 10
37.2476
 20
134.481
 30
0.0
 11
37.3559
 21
134.773
 31
0.0
  0
LINE
  5
168
  8
0
 10
37.3559
 20
134.773
 30
0.0
 11
37.4502
 21
135.116
 31
0.0
  0
LINE
  5
169
  8
0
 10
37.4502
 20
135.116
 30
0.0
 11
37.6978
 21
136.068
 31
0.0
  0
LINE
  5
16A
  8
0
 10
37.6978
 20
136.068
 30
0.0
 11
37.8565
 21
136.674
 31
0.0
  0
LINE
  5
16B
  8
0
 10
37.8565
 20
136.674
 30
0.0
 11
38.0141
 21
137.188
 31
0.0
  0
LINE
  5
16C
  8
0
 10
38.0141
 20
137.188
 30
0.0
 11
38.1707
 21
137.611
 31
0.0
  0
LINE
  5
16D
  8
0
 10
38.1707
 20
137.611
 30
0.0
 11
38.3263
 21
137.943
 31
0.0
  0
LINE
  5
16E
  8
0
 10
38.3263
 20
137.943
 30
0.0
 11
38.4911
 21
138.214
 31
0.0
  0
LINE
  5
16F
  8
0
 10
38.4911
 20
138.214
 30
0.0
 11
38.6754
 21
138.454
 31
0.0
  0
LINE
  5
170
  8
0
 10
38.6754
 20
138.454
 30
0.0
 11
38.8791
 21
138.663
 31
0.0
  0
LINE
  5
171
  8
0
 10
38.8791
 20
138.663
 30
0.0
 11
39.1023
 21
138.843
 31
0.0
  0
LINE
  5
172
  8
0
 10
39.1023
 20
138.843
 30
0.0
 11
39.3483
 21
138.986
 31
0.0
  0
LINE
  5
173
  8
0
 10
39.3483
 20
138.986
 30
0.0
 11
39.6206
 21
139.088
 31
0.0
  0
LINE
  5
174
  8
0
 10
39.6206
 20
139.088
 30
0.0
 11
39.9191
 21
139.15
 31
0.0
  0
LINE
  5
175
  8
0
 10
39.9191
 20
139.15
 30
0.0
 11
40.2438
 21
139.17
 31
0.0
  0
LINE
  5
176
  8
0
 10
40.2438
 20
139.17
 30
0.0
 11
40.8239
 21
139.112
 31
0.0
  0
LINE
  5
177
  8
0
 10
40.8239
 20
139.112
 30
0.0
 11
41.3378
 21
138.937
 31
0.0
  0
LINE
  5
178
  8
0
 10
41.3378
 20
138.937
 30
0.0
 11
41.7856
 21
138.646
 31
0.0
  0
LINE
  5
179
  8
0
 10
41.7856
 20
138.646
 30
0.0
 11
42.1672
 21
138.239
 31
0.0
  0
LINE
  5
17A
  8
0
 10
42.1672
 20
138.239
 30
0.0
 11
42.4715
 21
137.728
 31
0.0
  0
LINE
  5
17B
  8
0
 10
42.4715
 20
137.728
 30
0.0
 11
42.689
 21
137.128
 31
0.0
  0
LINE
  5
17C
  8
0
 10
42.689
 20
137.128
 30
0.0
 11
42.8194
 21
136.439
 31
0.0
  0
LINE
  5
17D
  8
0
 10
42.8194
 20
136.439
 30
0.0
 11
42.8629
 21
135.66
 31
0.0
  0
LINE
  5
17E
  8
0
 10
42.8629
 20
135.66
 30
0.0
 11
42.8303
 21
134.885
 31
0.0
  0
LINE
  5
17F
  8
0
 10
42.8303
 20
134.885
 30
0.0
 11
42.7326
 21
134.209
 31
0.0
  0
LINE
  5
180
  8
0
 10
42.7326
 20
134.209
 30
0.0
 11
42.5697
 21
133.632
 31
0.0
  0
LINE
  5
181
  8
0
 10
42.5697
 20
133.632
 30
0.0
 11
42.3417
 21
133.153
 31
0.0
  0
LINE
  5
182
  8
0
 10
42.3417
 20
133.153
 30
0.0
 11
42.0435
 21
132.76
 31
0.0
  0
LINE
  5
183
  8
0
 10
42.0435
 20
132.76
 30
0.0
 11
41.6701
 21
132.442
 31
0.0
  0
LINE
  5
184
  8
0
 10
41.6701
 20
132.442
 30
0.0
 11
41.2215
 21
132.198
 31
0.0
  0
LINE
  5
185
  8
0
 10
41.2215
 20
132.198
 30
0.0
 11
40.6978
 21
132.029
 31
0.0
  0
LINE
  5
186
  8
0
 10
40.6978
 20
132.029
 30
0.0
 11
40.4478
 21
133.301
 31
0.0
  0
LINE
  5
187
  8
0
 10
4.16203
 20
109.755
 30
0.0
 11
15.0565
 21
138.588
 31
0.0
  0
LINE
  5
188
  8
0
 10
15.0565
 20
138.588
 30
0.0
 11
19.6939
 21
138.588
 31
0.0
  0
LINE
  5
189
  8
0
 10
19.6939
 20
138.588
 30
0.0
 11
30.3962
 21
109.755
 31
0.0
  0
LINE
  5
18A
  8
0
 10
30.3962
 20
109.755
 30
0.0
 11
26.2533
 21
109.755
 31
0.0
  0
LINE
  5
18B
  8
0
 10
26.2533
 20
109.755
 30
0.0
 11
23.3044
 21
117.864
 31
0.0
  0
LINE
  5
18C
  8
0
 10
23.3044
 20
117.864
 30
0.0
 11
11.2759
 21
117.864
 31
0.0
  0
LINE
  5
18D
  8
0
 10
11.2759
 20
117.864
 30
0.0
 11
8.34908
 21
109.755
 31
0.0
  0
LINE
  5
18E
  8
0
 10
8.34908
 20
109.755
 30
0.0
 11
4.16203
 21
109.755
 31
0.0
  0
LINE
  5
18F
  8
0
 10
18.5598
 20
131.776
 30
0.0
 11
17.3216
 21
135.51
 31
0.0
  0
LINE
  5
190
  8
0
 10
17.3216
 20
135.51
 30
0.0
 11
17.0664
 21
134.672
 31
0.0
  0
LINE
  5
191
  8
0
 10
17.0664
 20
134.672
 30
0.0
 11
15.5921
 21
130.122
 31
0.0
  0
LINE
  5
192
  8
0
 10
15.5921
 20
130.122
 30
0.0
 11
12.3659
 21
121.046
 31
0.0
  0
LINE
  5
193
  8
0
 10
12.3659
 20
121.046
 30
0.0
 11
22.2584
 21
121.046
 31
0.0
  0
LINE
  5
194
  8
0
 10
22.2584
 20
121.046
 30
0.0
 11
18.5598
 21
131.776
 31
0.0
  0
LINE
  5
195
  8
0
 10
30.8629
 20
122.982
 30
0.0
 11
30.8629
 21
124.422
 31
0.0
  0
LINE
  5
196
  8
0
 10
30.8629
 20
124.422
 30
0.0
 11
38.2438
 21
124.422
 31
0.0
  0
LINE
  5
197
  8
0
 10
38.2438
 20
124.422
 30
0.0
 11
34.0327
 21
128.22
 31
0.0
  0
LINE
  5
198
  8
0
 10
34.0327
 20
128.22
 30
0.0
 11
34.0327
 21
129.908
 31
0.0
  0
LINE
  5
199
  8
0
 10
34.0327
 20
129.908
 30
0.0
 11
37.7662
 21
126.397
 31
0.0
  0
LINE
  5
19A
  8
0
 10
37.7662
 20
126.397
 30
0.0
 11
42.712
 21
130.092
 31
0.0
  0
LINE
  5
19B
  8
0
 10
42.712
 20
130.092
 30
0.0
 11
42.712
 21
128.404
 31
0.0
  0
LINE
  5
19C
  8
0
 10
42.712
 20
128.404
 30
0.0
 11
38.7096
 21
125.477
 31
0.0
  0
LINE
  5
19D
  8
0
 10
38.7096
 20
125.477
 30
0.0
 11
39.4914
 21
124.422
 31
0.0
  0
LINE
  5
19E
  8
0
 10
39.4914
 20
124.422
 30
0.0
 11
42.712
 21
124.422
 31
0.0
  0
LINE
  5
19F
  8
0
 10
42.712
 20
124.422
 30
0.0
 11
42.712
 21
122.982
 31
0.0
  0
LINE
  5
1A0
  8
0
 10
42.712
 20
122.982
 30
0.0
 11
30.8629
 21
122.982
 31
0.0
  0
LINE
  5
1A1
  8
0
 10
37.3167
 20
112.6
 30
0.0
 11
36.408
 21
112.79
 31
0.0
  0
LINE
  5
1A2
  8
0
 10
36.408
 20
112.79
 30
0.0
 11
35.638
 21
113.106
 31
0.0
  0
LINE
  5
1A3
  8
0
 10
35.638
 20
113.106
 30
0.0
 11
35.0068
 21
113.549
 31
0.0
  0
LINE
  5
1A4
  8
0
 10
35.0068
 20
113.549
 30
0.0
 11
34.5146
 21
114.107
 31
0.0
  0
LINE
  5
1A5
  8
0
 10
34.5146
 20
114.107
 30
0.0
 11
34.163
 21
114.771
 31
0.0
  0
LINE
  5
1A6
  8
0
 10
34.163
 20
114.771
 30
0.0
 11
33.9521
 21
115.54
 31
0.0
  0
LINE
  5
1A7
  8
0
 10
33.9521
 20
115.54
 30
0.0
 11
33.8818
 21
116.415
 31
0.0
  0
LINE
  5
1A8
  8
0
 10
33.8818
 20
116.415
 30
0.0
 11
33.9514
 21
117.328
 31
0.0
  0
LINE
  5
1A9
  8
0
 10
33.9514
 20
117.328
 30
0.0
 11
34.1601
 21
118.116
 31
0.0
  0
LINE
  5
1AA
  8
0
 10
34.1601
 20
118.116
 30
0.0
 11
34.508
 21
118.779
 31
0.0
  0
LINE
  5
1AB
  8
0
 10
34.508
 20
118.779
 30
0.0
 11
34.995
 21
119.317
 31
0.0
  0
LINE
  5
1AC
  8
0
 10
34.995
 20
119.317
 30
0.0
 11
35.6226
 21
119.734
 31
0.0
  0
LINE
  5
1AD
  8
0
 10
35.6226
 20
119.734
 30
0.0
 11
36.3933
 21
120.031
 31
0.0
  0
LINE
  5
1AE
  8
0
 10
36.3933
 20
120.031
 30
0.0
 11
37.3071
 21
120.21
 31
0.0
  0
LINE
  5
1AF
  8
0
 10
37.3071
 20
120.21
 30
0.0
 11
38.3641
 21
120.269
 31
0.0
  0
LINE
  5
1B0
  8
0
 10
38.3641
 20
120.269
 30
0.0
 11
39.3924
 21
120.206
 31
0.0
  0
LINE
  5
1B1
  8
0
 10
39.3924
 20
120.206
 30
0.0
 11
40.2922
 21
120.018
 31
0.0
  0
LINE
  5
1B2
  8
0
 10
40.2922
 20
120.018
 30
0.0
 11
41.0634
 21
119.705
 31
0.0
  0
LINE
  5
1B3
  8
0
 10
41.0634
 20
119.705
 30
0.0
 11
41.7061
 21
119.266
 31
0.0
  0
LINE
  5
1B4
  8
0
 10
41.7061
 20
119.266
 30
0.0
 11
42.2122
 21
118.708
 31
0.0
  0
LINE
  5
1B5
  8
0
 10
42.2122
 20
118.708
 30
0.0
 11
42.5737
 21
118.039
 31
0.0
  0
LINE
  5
1B6
  8
0
 10
42.5737
 20
118.039
 30
0.0
 11
42.7906
 21
117.259
 31
0.0
  0
LINE
  5
1B7
  8
0
 10
42.7906
 20
117.259
 30
0.0
 11
42.8629
 21
116.367
 31
0.0
  0
LINE
  5
1B8
  8
0
 10
42.8629
 20
116.367
 30
0.0
 11
42.7899
 21
115.494
 31
0.0
  0
LINE
  5
1B9
  8
0
 10
42.7899
 20
115.494
 30
0.0
 11
42.5708
 21
114.729
 31
0.0
  0
LINE
  5
1BA
  8
0
 10
42.5708
 20
114.729
 30
0.0
 11
42.2056
 21
114.072
 31
0.0
  0
LINE
  5
1BB
  8
0
 10
42.2056
 20
114.072
 30
0.0
 11
41.6943
 21
113.524
 31
0.0
  0
LINE
  5
1BC
  8
0
 10
41.6943
 20
113.524
 30
0.0
 11
41.0479
 21
113.092
 31
0.0
  0
LINE
  5
1BD
  8
0
 10
41.0479
 20
113.092
 30
0.0
 11
40.2774
 21
112.783
 31
0.0
  0
LINE
  5
1BE
  8
0
 10
40.2774
 20
112.783
 30
0.0
 11
39.3828
 21
112.598
 31
0.0
  0
LINE
  5
1BF
  8
0
 10
39.3828
 20
112.598
 30
0.0
 11
38.3641
 21
112.537
 31
0.0
  0
LINE
  5
1C0
  8
0
 10
38.3641
 20
112.537
 30
0.0
 11
37.3167
 21
112.6
 31
0.0
  0
LINE
  5
1C1
  8
0
 10
39.1546
 20
114.083
 30
0.0
 11
39.8446
 21
114.191
 31
0.0
  0
LINE
  5
1C2
  8
0
 10
39.8446
 20
114.191
 30
0.0
 11
40.4341
 21
114.371
 31
0.0
  0
LINE
  5
1C3
  8
0
 10
40.4341
 20
114.371
 30
0.0
 11
40.923
 21
114.623
 31
0.0
  0
LINE
  5
1C4
  8
0
 10
40.923
 20
114.623
 30
0.0
 11
41.3064
 21
114.947
 31
0.0
  0
LINE
  5
1C5
  8
0
 10
41.3064
 20
114.947
 30
0.0
 11
41.5802
 21
115.342
 31
0.0
  0
LINE
  5
1C6
  8
0
 10
41.5802
 20
115.342
 30
0.0
 11
41.7445
 21
115.81
 31
0.0
  0
LINE
  5
1C7
  8
0
 10
41.7445
 20
115.81
 30
0.0
 11
41.7992
 21
116.35
 31
0.0
  0
LINE
  5
1C8
  8
0
 10
41.7992
 20
116.35
 30
0.0
 11
41.7457
 21
116.942
 31
0.0
  0
LINE
  5
1C9
  8
0
 10
41.7457
 20
116.942
 30
0.0
 11
41.5852
 21
117.446
 31
0.0
  0
LINE
  5
1CA
  8
0
 10
41.5852
 20
117.446
 30
0.0
 11
41.3176
 21
117.861
 31
0.0
  0
LINE
  5
1CB
  8
0
 10
41.3176
 20
117.861
 30
0.0
 11
40.9431
 21
118.189
 31
0.0
  0
LINE
  5
1CC
  8
0
 10
40.9431
 20
118.189
 30
0.0
 11
40.4604
 21
118.438
 31
0.0
  0
LINE
  5
1CD
  8
0
 10
40.4604
 20
118.438
 30
0.0
 11
39.8697
 21
118.615
 31
0.0
  0
LINE
  5
1CE
  8
0
 10
39.8697
 20
118.615
 30
0.0
 11
39.1709
 21
118.722
 31
0.0
  0
LINE
  5
1CF
  8
0
 10
39.1709
 20
118.722
 30
0.0
 11
38.3641
 21
118.757
 31
0.0
  0
LINE
  5
1D0
  8
0
 10
38.3641
 20
118.757
 30
0.0
 11
37.5578
 21
118.723
 31
0.0
  0
LINE
  5
1D1
  8
0
 10
37.5578
 20
118.723
 30
0.0
 11
36.8608
 21
118.62
 31
0.0
  0
LINE
  5
1D2
  8
0
 10
36.8608
 20
118.62
 30
0.0
 11
36.2731
 21
118.449
 31
0.0
  0
LINE
  5
1D3
  8
0
 10
36.2731
 20
118.449
 30
0.0
 11
35.7945
 21
118.209
 31
0.0
  0
LINE
  5
1D4
  8
0
 10
35.7945
 20
118.209
 30
0.0
 11
35.423
 21
117.893
 31
0.0
  0
LINE
  5
1D5
  8
0
 10
35.423
 20
117.893
 30
0.0
 11
35.1577
 21
117.493
 31
0.0
  0
LINE
  5
1D6
  8
0
 10
35.1577
 20
117.493
 30
0.0
 11
34.9985
 21
117.008
 31
0.0
  0
LINE
  5
1D7
  8
0
 10
34.9985
 20
117.008
 30
0.0
 11
34.9454
 21
116.439
 31
0.0
  0
LINE
  5
1D8
  8
0
 10
34.9454
 20
116.439
 30
0.0
 11
34.9996
 21
115.86
 31
0.0
  0
LINE
  5
1D9
  8
0
 10
34.9996
 20
115.86
 30
0.0
 11
35.1618
 21
115.365
 31
0.0
  0
LINE
  5
1DA
  8
0
 10
35.1618
 20
115.365
 30
0.0
 11
35.4323
 21
114.952
 31
0.0
  0
LINE
  5
1DB
  8
0
 10
35.4323
 20
114.952
 30
0.0
 11
35.811
 21
114.623
 31
0.0
  0
LINE
  5
1DC
  8
0
 10
35.811
 20
114.623
 30
0.0
 11
36.2947
 21
114.371
 31
0.0
  0
LINE
  5
1DD
  8
0
 10
36.2947
 20
114.371
 30
0.0
 11
36.8815
 21
114.191
 31
0.0
  0
LINE
  5
1DE
  8
0
 10
36.8815
 20
114.191
 30
0.0
 11
37.5713
 21
114.083
 31
0.0
  0
LINE
  5
1DF
  8
0
 10
37.5713
 20
114.083
 30
0.0
 11
38.3641
 21
114.047
 31
0.0
  0
LINE
  5
1E0
  8
0
 10
38.3641
 20
114.047
 30
0.0
 11
39.1546
 21
114.083
 31
0.0
  0
LINE
  5
1E1
  8
0
 10
37.3167
 20
103.001
 30
0.0
 11
36.408
 21
103.191
 31
0.0
  0
LINE
  5
1E2
  8
0
 10
36.408
 20
103.191
 30
0.0
 11
35.638
 21
103.507
 31
0.0
  0
LINE
  5
1E3
  8
0
 10
35.638
 20
103.507
 30
0.0
 11
35.0068
 21
103.95
 31
0.0
  0
LINE
  5
1E4
  8
0
 10
35.0068
 20
103.95
 30
0.0
 11
34.5146
 21
104.508
 31
0.0
  0
LINE
  5
1E5
  8
0
 10
34.5146
 20
104.508
 30
0.0
 11
34.163
 21
105.172
 31
0.0
  0
LINE
  5
1E6
  8
0
 10
34.163
 20
105.172
 30
0.0
 11
33.9521
 21
105.942
 31
0.0
  0
LINE
  5
1E7
  8
0
 10
33.9521
 20
105.942
 30
0.0
 11
33.8818
 21
106.817
 31
0.0
  0
LINE
  5
1E8
  8
0
 10
33.8818
 20
106.817
 30
0.0
 11
33.9514
 21
107.729
 31
0.0
  0
LINE
  5
1E9
  8
0
 10
33.9514
 20
107.729
 30
0.0
 11
34.1601
 21
108.517
 31
0.0
  0
LINE
  5
1EA
  8
0
 10
34.1601
 20
108.517
 30
0.0
 11
34.508
 21
109.18
 31
0.0
  0
LINE
  5
1EB
  8
0
 10
34.508
 20
109.18
 30
0.0
 11
34.995
 21
109.719
 31
0.0
  0
LINE
  5
1EC
  8
0
 10
34.995
 20
109.719
 30
0.0
 11
35.6226
 21
110.135
 31
0.0
  0
LINE
  5
1ED
  8
0
 10
35.6226
 20
110.135
 30
0.0
 11
36.3933
 21
110.432
 31
0.0
  0
LINE
  5
1EE
  8
0
 10
36.3933
 20
110.432
 30
0.0
 11
37.3071
 21
110.611
 31
0.0
  0
LINE
  5
1EF
  8
0
 10
37.3071
 20
110.611
 30
0.0
 11
38.3641
 21
110.67
 31
0.0
  0
LINE
  5
1F0
  8
0
 10
38.3641
 20
110.67
 30
0.0
 11
39.3924
 21
110.608
 31
0.0
  0
LINE
  5
1F1
  8
0
 10
39.3924
 20
110.608
 30
0.0
 11
40.2922
 21
110.42
 31
0.0
  0
LINE
  5
1F2
  8
0
 10
40.2922
 20
110.42
 30
0.0
 11
41.0634
 21
110.106
 31
0.0
  0
LINE
  5
1F3
  8
0
 10
41.0634
 20
110.106
 30
0.0
 11
41.7061
 21
109.667
 31
0.0
  0
LINE
  5
1F4
  8
0
 10
41.7061
 20
109.667
 30
0.0
 11
42.2122
 21
109.109
 31
0.0
  0
LINE
  5
1F5
  8
0
 10
42.2122
 20
109.109
 30
0.0
 11
42.5737
 21
108.44
 31
0.0
  0
LINE
  5
1F6
  8
0
 10
42.5737
 20
108.44
 30
0.0
 11
42.7906
 21
107.66
 31
0.0
  0
LINE
  5
1F7
  8
0
 10
42.7906
 20
107.66
 30
0.0
 11
42.8629
 21
106.768
 31
0.0
  0
LINE
  5
1F8
  8
0
 10
42.8629
 20
106.768
 30
0.0
 11
42.7899
 21
105.895
 31
0.0
  0
LINE
  5
1F9
  8
0
 10
42.7899
 20
105.895
 30
0.0
 11
42.5708
 21
105.13
 31
0.0
  0
LINE
  5
1FA
  8
0
 10
42.5708
 20
105.13
 30
0.0
 11
42.2056
 21
104.473
 31
0.0
  0
LINE
  5
1FB
  8
0
 10
42.2056
 20
104.473
 30
0.0
 11
41.6943
 21
103.925
 31
0.0
  0
LINE
  5
1FC
  8
0
 10
41.6943
 20
103.925
 30
0.0
 11
41.0479
 21
103.493
 31
0.0
  0
LINE
  5
1FD
  8
0
 10
41.0479
 20
103.493
 30
0.0
 11
40.2774
 21
103.185
 31
0.0
  0
LINE
  5
1FE
  8
0
 10
40.2774
 20
103.185
 30
0.0
 11
39.3828
 21
103.0
 31
0.0
  0
LINE
  5
1FF
  8
0
 10
39.3828
 20
103.0
 30
0.0
 11
38.3641
 21
102.938
 31
0.0
  0
LINE
  5
200
  8
0
 10
38.3641
 20
102.938
 30
0.0
 11
37.3167
 21
103.001
 31
0.0
  0
LINE
  5
201
  8
0
 10
39.1546
 20
104.485
 30
0.0
 11
39.8446
 21
104.593
 31
0.0
  0
LINE
  5
202
  8
0
 10
39.8446
 20
104.593
 30
0.0
 11
40.4341
 21
104.772
 31
0.0
  0
LINE
  5
203
  8
0
 10
40.4341
 20
104.772
 30
0.0
 11
40.923
 21
105.024
 31
0.0
  0
LINE
  5
204
  8
0
 10
40.923
 20
105.024
 30
0.0
 11
41.3064
 21
105.348
 31
0.0
  0
LINE
  5
205
  8
0
 10
41.3064
 20
105.348
 30
0.0
 11
41.5802
 21
105.744
 31
0.0
  0
LINE
  5
206
  8
0
 10
41.5802
 20
105.744
 30
0.0
 11
41.7445
 21
106.212
 31
0.0
  0
LINE
  5
207
  8
0
 10
41.7445
 20
106.212
 30
0.0
 11
41.7992
 21
106.752
 31
0.0
  0
LINE
  5
208
  8
0
 10
41.7992
 20
106.752
 30
0.0
 11
41.7457
 21
107.343
 31
0.0
  0
LINE
  5
209
  8
0
 10
41.7457
 20
107.343
 30
0.0
 11
41.5852
 21
107.847
 31
0.0
  0
LINE
  5
20A
  8
0
 10
41.5852
 20
107.847
 30
0.0
 11
41.3176
 21
108.263
 31
0.0
  0
LINE
  5
20B
  8
0
 10
41.3176
 20
108.263
 30
0.0
 11
40.9431
 21
108.59
 31
0.0
  0
LINE
  5
20C
  8
0
 10
40.9431
 20
108.59
 30
0.0
 11
40.4604
 21
108.839
 31
0.0
  0
LINE
  5
20D
  8
0
 10
40.4604
 20
108.839
 30
0.0
 11
39.8697
 21
109.017
 31
0.0
  0
LINE
  5
20E
  8
0
 10
39.8697
 20
109.017
 30
0.0
 11
39.1709
 21
109.123
 31
0.0
  0
LINE
  5
20F
  8
0
 10
39.1709
 20
109.123
 30
0.0
 11
38.3641
 21
109.159
 31
0.0
  0
LINE
  5
210
  8
0
 10
38.3641
 20
109.159
 30
0.0
 11
37.5578
 21
109.124
 31
0.0
  0
LINE
  5
211
  8
0
 10
37.5578
 20
109.124
 30
0.0
 11
36.8608
 21
109.022
 31
0.0
  0
LINE
  5
212
  8
0
 10
36.8608
 20
109.022
 30
0.0
 11
36.2731
 21
108.85
 31
0.0
  0
LINE
  5
213
  8
0
 10
36.2731
 20
108.85
 30
0.0
 11
35.7945
 21
108.61
 31
0.0
  0
LINE
  5
214
  8
0
 10
35.7945
 20
108.61
 30
0.0
 11
35.423
 21
108.294
 31
0.0
  0
LINE
  5
215
  8
0
 10
35.423
 20
108.294
 30
0.0
 11
35.1577
 21
107.894
 31
0.0
  0
LINE
  5
216
  8
0
 10
35.1577
 20
107.894
 30
0.0
 11
34.9985
 21
107.409
 31
0.0
  0
LINE
  5
217
  8
0
 10
34.9985
 20
107.409
 30
0.0
 11
34.9454
 21
106.84
 31
0.0
  0
LINE
  5
218
  8
0
 10
34.9454
 20
106.84
 30
0.0
 11
34.9996
 21
106.261
 31
0.0
  0
LINE
  5
219
  8
0
 10
34.9996
 20
106.261
 30
0.0
 11
35.1618
 21
105.766
 31
0.0
  0
LINE
  5
21A
  8
0
 10
35.1618
 20
105.766
 30
0.0
 11
35.4323
 21
105.353
 31
0.0
  0
LINE
  5
21B
  8
0
 10
35.4323
 20
105.353
 30
0.0
 11
35.811
 21
105.024
 31
0.0
  0
LINE
  5
21C
  8
0
 10
35.811
 20
105.024
 30
0.0
 11
36.2947
 21
104.772
 31
0.0
  0
LINE
  5
21D
  8
0
 10
36.2947
 20
104.772
 30
0.0
 11
36.8815
 21
104.593
 31
0.0
  0
LINE
  5
21E
  8
0
 10
36.8815
 20
104.593
 30
0.0
 11
37.5713
 21
104.485
 31
0.0
  0
LINE
  5
21F
  8
0
 10
37.5713
 20
104.485
 30
0.0
 11
38.3641
 21
104.449
 31
0.0
  0
LINE
  5
220
  8
0
 10
38.3641
 20
104.449
 30
0.0
 11
39.1546
 21
104.485
 31
0.0
  0
LINE
  5
221
  8
0
 10
42.4388
 20
93.7521
 30
0.0
 11
42.051
 21
93.7672
 31
0.0
  0
LINE
  5
222
  8
0
 10
42.051
 20
93.7672
 30
0.0
 11
41.5485
 21
93.7762
 31
0.0
  0
LINE
  5
223
  8
0
 10
41.5485
 20
93.7762
 30
0.0
 11
40.9313
 21
93.7793
 31
0.0
  0
LINE
  5
224
  8
0
 10
40.9313
 20
93.7793
 30
0.0
 11
30.8629
 21
93.7793
 31
0.0
  0
LINE
  5
225
  8
0
 10
30.8629
 20
93.7793
 30
0.0
 11
30.8629
 21
95.218
 31
0.0
  0
LINE
  5
226
  8
0
 10
30.8629
 20
95.218
 30
0.0
 11
34.232
 21
95.218
 31
0.0
  0
LINE
  5
227
  8
0
 10
34.232
 20
95.218
 30
0.0
 11
34.5043
 21
95.216
 31
0.0
  0
LINE
  5
228
  8
0
 10
34.5043
 20
95.216
 30
0.0
 11
34.8033
 21
95.21
 31
0.0
  0
LINE
  5
229
  8
0
 10
34.8033
 20
95.21
 30
0.0
 11
35.1293
 21
95.2
 31
0.0
  0
LINE
  5
22A
  8
0
 10
35.1293
 20
95.2
 30
0.0
 11
35.482
 21
95.1861
 31
0.0
  0
LINE
  5
22B
  8
0
 10
35.482
 20
95.1861
 30
0.0
 11
35.482
 21
95.218
 31
0.0
  0
LINE
  5
22C
  8
0
 10
35.482
 20
95.218
 30
0.0
 11
34.7819
 21
95.6577
 31
0.0
  0
LINE
  5
22D
  8
0
 10
34.7819
 20
95.6577
 30
0.0
 11
34.2818
 21
96.2495
 31
0.0
  0
LINE
  5
22E
  8
0
 10
34.2818
 20
96.2495
 30
0.0
 11
33.9818
 21
96.9932
 31
0.0
  0
LINE
  5
22F
  8
0
 10
33.9818
 20
96.9932
 30
0.0
 11
33.8818
 21
97.8889
 31
0.0
  0
LINE
  5
230
  8
0
 10
33.8818
 20
97.8889
 30
0.0
 11
34.1604
 21
99.2572
 31
0.0
  0
LINE
  5
231
  8
0
 10
34.1604
 20
99.2572
 30
0.0
 11
34.9965
 21
100.234
 31
0.0
  0
LINE
  5
232
  8
0
 10
34.9965
 20
100.234
 30
0.0
 11
36.3898
 21
100.821
 31
0.0
  0
LINE
  5
233
  8
0
 10
36.3898
 20
100.821
 30
0.0
 11
38.3405
 21
101.016
 31
0.0
  0
LINE
  5
234
  8
0
 10
38.3405
 20
101.016
 30
0.0
 11
39.4036
 21
100.966
 31
0.0
  0
LINE
  5
235
  8
0
 10
39.4036
 20
100.966
 30
0.0
 11
40.324
 21
100.813
 31
0.0
  0
LINE
  5
236
  8
0
 10
40.324
 20
100.813
 30
0.0
 11
41.1017
 21
100.559
 31
0.0
  0
LINE
  5
237
  8
0
 10
41.1017
 20
100.559
 30
0.0
 11
41.7367
 21
100.204
 31
0.0
  0
LINE
  5
238
  8
0
 10
41.7367
 20
100.204
 30
0.0
 11
42.2294
 21
99.7544
 31
0.0
  0
LINE
  5
239
  8
0
 10
42.2294
 20
99.7544
 30
0.0
 11
42.5814
 21
99.2174
 31
0.0
  0
LINE
  5
23A
  8
0
 10
42.5814
 20
99.2174
 30
0.0
 11
42.7925
 21
98.5928
 31
0.0
  0
LINE
  5
23B
  8
0
 10
42.7925
 20
98.5928
 30
0.0
 11
42.8629
 21
97.8807
 31
0.0
  0
LINE
  5
23C
  8
0
 10
42.8629
 20
97.8807
 30
0.0
 11
42.7709
 21
96.9819
 31
0.0
  0
LINE
  5
23D
  8
0
 10
42.7709
 20
96.9819
 30
0.0
 11
42.495
 21
96.2371
 31
0.0
  0
LINE
  5
23E
  8
0
 10
42.495
 20
96.2371
 30
0.0
 11
42.0351
 21
95.6464
 31
0.0
  0
LINE
  5
23F
  8
0
 10
42.0351
 20
95.6464
 30
0.0
 11
41.3912
 21
95.2097
 31
0.0
  0
LINE
  5
240
  8
0
 10
41.3912
 20
95.2097
 30
0.0
 11
41.3912
 21
95.1932
 31
0.0
  0
LINE
  5
241
  8
0
 10
41.3912
 20
95.1932
 30
0.0
 11
41.5866
 21
95.1914
 31
0.0
  0
LINE
  5
242
  8
0
 10
41.5866
 20
95.1914
 30
0.0
 11
41.7859
 21
95.1861
 31
0.0
  0
LINE
  5
243
  8
0
 10
41.7859
 20
95.1861
 30
0.0
 11
41.9893
 21
95.1773
 31
0.0
  0
LINE
  5
244
  8
0
 10
41.9893
 20
95.1773
 30
0.0
 11
42.1966
 21
95.1649
 31
0.0
  0
LINE
  5
245
  8
0
 10
42.1966
 20
95.1649
 30
0.0
 11
42.3858
 21
95.152
 31
0.0
  0
LINE
  5
246
  8
0
 10
42.3858
 20
95.152
 30
0.0
 11
42.5348
 21
95.1404
 31
0.0
  0
LINE
  5
247
  8
0
 10
42.5348
 20
95.1404
 30
0.0
 11
42.6435
 21
95.1302
 31
0.0
  0
LINE
  5
248
  8
0
 10
42.6435
 20
95.1302
 30
0.0
 11
42.712
 21
95.1212
 31
0.0
  0
LINE
  5
249
  8
0
 10
42.712
 20
95.1212
 30
0.0
 11
42.712
 21
93.7309
 31
0.0
  0
LINE
  5
24A
  8
0
 10
42.712
 20
93.7309
 30
0.0
 11
42.4388
 21
93.7521
 31
0.0
  0
LINE
  5
24B
  8
0
 10
39.2972
 20
95.2509
 30
0.0
 11
39.9702
 21
95.3497
 31
0.0
  0
LINE
  5
24C
  8
0
 10
39.9702
 20
95.3497
 30
0.0
 11
40.5354
 21
95.5145
 31
0.0
  0
LINE
  5
24D
  8
0
 10
40.5354
 20
95.5145
 30
0.0
 11
40.9926
 21
95.7451
 31
0.0
  0
LINE
  5
24E
  8
0
 10
40.9926
 20
95.7451
 30
0.0
 11
41.3455
 21
96.0517
 31
0.0
  0
LINE
  5
24F
  8
0
 10
41.3455
 20
96.0517
 30
0.0
 11
41.5976
 21
96.4432
 31
0.0
  0
LINE
  5
250
  8
0
 10
41.5976
 20
96.4432
 30
0.0
 11
41.7488
 21
96.9196
 31
0.0
  0
LINE
  5
251
  8
0
 10
41.7488
 20
96.9196
 30
0.0
 11
41.7992
 21
97.4809
 31
0.0
  0
LINE
  5
252
  8
0
 10
41.7992
 20
97.4809
 30
0.0
 11
41.7471
 21
97.9832
 31
0.0
  0
LINE
  5
253
  8
0
 10
41.7471
 20
97.9832
 30
0.0
 11
41.5905
 21
98.4111
 31
0.0
  0
LINE
  5
254
  8
0
 10
41.5905
 20
98.4111
 30
0.0
 11
41.3296
 21
98.7645
 31
0.0
  0
LINE
  5
255
  8
0
 10
41.3296
 20
98.7645
 30
0.0
 11
40.9643
 21
99.0434
 31
0.0
  0
LINE
  5
256
  8
0
 10
40.9643
 20
99.0434
 30
0.0
 11
40.4903
 21
99.2555
 31
0.0
  0
LINE
  5
257
  8
0
 10
40.4903
 20
99.2555
 30
0.0
 11
39.903
 21
99.4069
 31
0.0
  0
LINE
  5
258
  8
0
 10
39.903
 20
99.4069
 30
0.0
 11
39.2025
 21
99.4978
 31
0.0
  0
LINE
  5
259
  8
0
 10
39.2025
 20
99.4978
 30
0.0
 11
38.3889
 21
99.5281
 31
0.0
  0
LINE
  5
25A
  8
0
 10
38.3889
 20
99.5281
 30
0.0
 11
37.5556
 21
99.4974
 31
0.0
  0
LINE
  5
25B
  8
0
 10
37.5556
 20
99.4974
 30
0.0
 11
36.8458
 21
99.4052
 31
0.0
  0
LINE
  5
25C
  8
0
 10
36.8458
 20
99.4052
 30
0.0
 11
36.2596
 21
99.2515
 31
0.0
  0
LINE
  5
25D
  8
0
 10
36.2596
 20
99.2515
 30
0.0
 11
35.7969
 21
99.0364
 31
0.0
  0
LINE
  5
25E
  8
0
 10
35.7969
 20
99.0364
 30
0.0
 11
35.4455
 21
98.7558
 31
0.0
  0
LINE
  5
25F
  8
0
 10
35.4455
 20
98.7558
 30
0.0
 11
35.1946
 21
98.4057
 31
0.0
  0
LINE
  5
260
  8
0
 10
35.1946
 20
98.4057
 30
0.0
 11
35.044
 21
97.9863
 31
0.0
  0
LINE
  5
261
  8
0
 10
35.044
 20
97.9863
 30
0.0
 11
34.9938
 21
97.4974
 31
0.0
  0
LINE
  5
262
  8
0
 10
34.9938
 20
97.4974
 30
0.0
 11
35.0485
 21
96.9419
 31
0.0
  0
LINE
  5
263
  8
0
 10
35.0485
 20
96.9419
 30
0.0
 11
35.2126
 21
96.4674
 31
0.0
  0
LINE
  5
264
  8
0
 10
35.2126
 20
96.4674
 30
0.0
 11
35.486
 21
96.0739
 31
0.0
  0
LINE
  5
265
  8
0
 10
35.486
 20
96.0739
 30
0.0
 11
35.8688
 21
95.7616
 31
0.0
  0
LINE
  5
266
  8
0
 10
35.8688
 20
95.7616
 30
0.0
 11
36.362
 21
95.5237
 31
0.0
  0
LINE
  5
267
  8
0
 10
36.362
 20
95.5237
 30
0.0
 11
36.9676
 21
95.3539
 31
0.0
  0
LINE
  5
268
  8
0
 10
36.9676
 20
95.3539
 30
0.0
 11
37.6857
 21
95.2519
 31
0.0
  0
LINE
  5
269
  8
0
 10
37.6857
 20
95.2519
 30
0.0
 11
38.5162
 21
95.218
 31
0.0
  0
LINE
  5
26A
  8
0
 10
38.5162
 20
95.218
 30
0.0
 11
39.2972
 21
95.2509
 31
0.0
  0
LINE
  5
26B
  8
0
 10
6.91872
 20
70.9212
 30
0.0
 11
6.91872
 21
99.7545
 31
0.0
  0
LINE
  5
26C
  8
0
 10
6.91872
 20
99.7545
 30
0.0
 11
11.9816
 21
99.7545
 31
0.0
  0
LINE
  5
26D
  8
0
 10
11.9816
 20
99.7545
 30
0.0
 11
15.9355
 21
89.3485
 31
0.0
  0
LINE
  5
26E
  8
0
 10
15.9355
 20
89.3485
 30
0.0
 11
16.194
 21
88.6183
 31
0.0
  0
LINE
  5
26F
  8
0
 10
16.194
 20
88.6183
 30
0.0
 11
16.5223
 21
87.5558
 31
0.0
  0
LINE
  5
270
  8
0
 10
16.5223
 20
87.5558
 30
0.0
 11
16.9202
 21
86.161
 31
0.0
  0
LINE
  5
271
  8
0
 10
16.9202
 20
86.161
 30
0.0
 11
17.3878
 21
84.4337
 31
0.0
  0
LINE
  5
272
  8
0
 10
17.3878
 20
84.4337
 30
0.0
 11
17.9423
 21
86.3492
 31
0.0
  0
LINE
  5
273
  8
0
 10
17.9423
 20
86.3492
 30
0.0
 11
18.8843
 21
89.3264
 31
0.0
  0
LINE
  5
274
  8
0
 10
18.8843
 20
89.3264
 30
0.0
 11
22.835
 21
99.7545
 31
0.0
  0
LINE
  5
275
  8
0
 10
22.835
 20
99.7545
 30
0.0
 11
27.6426
 21
99.7545
 31
0.0
  0
LINE
  5
276
  8
0
 10
27.6426
 20
99.7545
 30
0.0
 11
27.6426
 21
70.9212
 31
0.0
  0
LINE
  5
277
  8
0
 10
27.6426
 20
70.9212
 30
0.0
 11
24.1802
 21
70.9212
 31
0.0
  0
LINE
  5
278
  8
0
 10
24.1802
 20
70.9212
 30
0.0
 11
24.1802
 21
89.4745
 31
0.0
  0
LINE
  5
279
  8
0
 10
24.1802
 20
89.4745
 30
0.0
 11
24.1842
 21
90.8253
 31
0.0
  0
LINE
  5
27A
  8
0
 10
24.1842
 20
90.8253
 30
0.0
 11
24.196
 21
91.9917
 31
0.0
  0
LINE
  5
27B
  8
0
 10
24.196
 20
91.9917
 30
0.0
 11
24.2157
 21
92.9739
 31
0.0
  0
LINE
  5
27C
  8
0
 10
24.2157
 20
92.9739
 30
0.0
 11
24.2433
 21
93.7717
 31
0.0
  0
LINE
  5
27D
  8
0
 10
24.2433
 20
93.7717
 30
0.0
 11
24.3094
 21
95.9078
 31
0.0
  0
LINE
  5
27E
  8
0
 10
24.3094
 20
95.9078
 30
0.0
 11
23.6697
 21
93.8775
 31
0.0
  0
LINE
  5
27F
  8
0
 10
23.6697
 20
93.8775
 30
0.0
 11
23.1177
 21
92.1689
 31
0.0
  0
LINE
  5
280
  8
0
 10
23.1177
 20
92.1689
 30
0.0
 11
22.6536
 21
90.7822
 31
0.0
  0
LINE
  5
281
  8
0
 10
22.6536
 20
90.7822
 30
0.0
 11
22.2774
 21
89.717
 31
0.0
  0
LINE
  5
282
  8
0
 10
22.2774
 20
89.717
 30
0.0
 11
18.774
 21
80.3979
 31
0.0
  0
LINE
  5
283
  8
0
 10
18.774
 20
80.3979
 30
0.0
 11
15.8473
 21
80.3979
 31
0.0
  0
LINE
  5
284
  8
0
 10
15.8473
 20
80.3979
 30
0.0
 11
12.303
 21
89.717
 31
0.0
  0
LINE
  5
285
  8
0
 10
12.303
 20
89.717
 30
0.0
 11
12.0306
 21
90.4702
 31
0.0
  0
LINE
  5
286
  8
0
 10
12.0306
 20
90.4702
 30
0.0
 11
11.598
 21
91.7531
 31
0.0
  0
LINE
  5
287
  8
0
 10
11.598
 20
91.7531
 30
0.0
 11
11.0051
 21
93.5656
 31
0.0
  0
LINE
  5
288
  8
0
 10
11.0051
 20
93.5656
 30
0.0
 11
10.252
 21
95.9078
 31
0.0
  0
LINE
  5
289
  8
0
 10
10.252
 20
95.9078
 30
0.0
 11
10.337
 21
89.4745
 31
0.0
  0
LINE
  5
28A
  8
0
 10
10.337
 20
89.4745
 30
0.0
 11
10.337
 21
70.9212
 31
0.0
  0
LINE
  5
28B
  8
0
 10
10.337
 20
70.9212
 30
0.0
 11
6.91872
 21
70.9212
 31
0.0
  0
LINE
  5
28C
  8
0
 10
40.4478
 20
75.7093
 30
0.0
 11
40.7744
 21
75.8071
 31
0.0
  0
LINE
  5
28D
  8
0
 10
40.7744
 20
75.8071
 30
0.0
 11
41.0536
 21
75.9481
 31
0.0
  0
LINE
  5
28E
  8
0
 10
41.0536
 20
75.9481
 30
0.0
 11
41.2856
 21
76.1325
 31
0.0
  0
LINE
  5
28F
  8
0
 10
41.2856
 20
76.1325
 30
0.0
 11
41.4702
 21
76.3603
 31
0.0
  0
LINE
  5
290
  8
0
 10
41.4702
 20
76.3603
 30
0.0
 11
41.6105
 21
76.6545
 31
0.0
  0
LINE
  5
291
  8
0
 10
41.6105
 20
76.6545
 30
0.0
 11
41.7108
 21
77.0372
 31
0.0
  0
LINE
  5
292
  8
0
 10
41.7108
 20
77.0372
 30
0.0
 11
41.7709
 21
77.5083
 31
0.0
  0
LINE
  5
293
  8
0
 10
41.7709
 20
77.5083
 30
0.0
 11
41.791
 21
78.0678
 31
0.0
  0
LINE
  5
294
  8
0
 10
41.791
 20
78.0678
 30
0.0
 11
41.7063
 21
79.0125
 31
0.0
  0
LINE
  5
295
  8
0
 10
41.7063
 20
79.0125
 30
0.0
 11
41.4522
 21
79.6872
 31
0.0
  0
LINE
  5
296
  8
0
 10
41.4522
 20
79.6872
 30
0.0
 11
41.0288
 21
80.0921
 31
0.0
  0
LINE
  5
297
  8
0
 10
41.0288
 20
80.0921
 30
0.0
 11
40.436
 21
80.227
 31
0.0
  0
LINE
  5
298
  8
0
 10
40.436
 20
80.227
 30
0.0
 11
40.1935
 21
80.2025
 31
0.0
  0
LINE
  5
299
  8
0
 10
40.1935
 20
80.2025
 30
0.0
 11
39.9755
 21
80.1288
 31
0.0
  0
LINE
  5
29A
  8
0
 10
39.9755
 20
80.1288
 30
0.0
 11
39.782
 21
80.0061
 31
0.0
  0
LINE
  5
29B
  8
0
 10
39.782
 20
80.0061
 30
0.0
 11
39.6129
 21
79.8343
 31
0.0
  0
LINE
  5
29C
  8
0
 10
39.6129
 20
79.8343
 30
0.0
 11
39.4627
 21
79.6126
 31
0.0
  0
LINE
  5
29D
  8
0
 10
39.4627
 20
79.6126
 30
0.0
 11
39.3269
 21
79.3391
 31
0.0
  0
LINE
  5
29E
  8
0
 10
39.3269
 20
79.3391
 30
0.0
 11
39.2056
 21
79.0136
 31
0.0
  0
LINE
  5
29F
  8
0
 10
39.2056
 20
79.0136
 30
0.0
 11
39.0987
 21
78.6362
 31
0.0
  0
LINE
  5
2A0
  8
0
 10
39.0987
 20
78.6362
 30
0.0
 11
38.8539
 21
77.6767
 31
0.0
  0
LINE
  5
2A1
  8
0
 10
38.8539
 20
77.6767
 30
0.0
 11
38.6371
 21
76.9101
 31
0.0
  0
LINE
  5
2A2
  8
0
 10
38.6371
 20
76.9101
 30
0.0
 11
38.4482
 21
76.3365
 31
0.0
  0
LINE
  5
2A3
  8
0
 10
38.4482
 20
76.3365
 30
0.0
 11
38.2874
 21
75.9558
 31
0.0
  0
LINE
  5
2A4
  8
0
 10
38.2874
 20
75.9558
 30
0.0
 11
38.1309
 21
75.6886
 31
0.0
  0
LINE
  5
2A5
  8
0
 10
38.1309
 20
75.6886
 30
0.0
 11
37.9561
 21
75.4543
 31
0.0
  0
LINE
  5
2A6
  8
0
 10
37.9561
 20
75.4543
 30
0.0
 11
37.763
 21
75.2529
 31
0.0
  0
LINE
  5
2A7
  8
0
 10
37.763
 20
75.2529
 30
0.0
 11
37.5516
 21
75.0843
 31
0.0
  0
LINE
  5
2A8
  8
0
 10
37.5516
 20
75.0843
 30
0.0
 11
37.3168
 21
74.9517
 31
0.0
  0
LINE
  5
2A9
  8
0
 10
37.3168
 20
74.9517
 30
0.0
 11
37.0548
 21
74.857
 31
0.0
  0
LINE
  5
2AA
  8
0
 10
37.0548
 20
74.857
 30
0.0
 11
36.7655
 21
74.8002
 31
0.0
  0
LINE
  5
2AB
  8
0
 10
36.7655
 20
74.8002
 30
0.0
 11
36.449
 21
74.7813
 31
0.0
  0
LINE
  5
2AC
  8
0
 10
36.449
 20
74.7813
 30
0.0
 11
35.8954
 21
74.8343
 31
0.0
  0
LINE
  5
2AD
  8
0
 10
35.8954
 20
74.8343
 30
0.0
 11
35.4057
 21
74.9932
 31
0.0
  0
LINE
  5
2AE
  8
0
 10
35.4057
 20
74.9932
 30
0.0
 11
34.9797
 21
75.2582
 31
0.0
  0
LINE
  5
2AF
  8
0
 10
34.9797
 20
75.2582
 30
0.0
 11
34.6176
 21
75.6291
 31
0.0
  0
LINE
  5
2B0
  8
0
 10
34.6176
 20
75.6291
 30
0.0
 11
34.3287
 21
76.1005
 31
0.0
  0
LINE
  5
2B1
  8
0
 10
34.3287
 20
76.1005
 30
0.0
 11
34.1223
 21
76.6669
 31
0.0
  0
LINE
  5
2B2
  8
0
 10
34.1223
 20
76.6669
 30
0.0
 11
33.9985
 21
77.3281
 31
0.0
  0
LINE
  5
2B3
  8
0
 10
33.9985
 20
77.3281
 30
0.0
 11
33.9572
 21
78.0843
 31
0.0
  0
LINE
  5
2B4
  8
0
 10
33.9572
 20
78.0843
 30
0.0
 11
33.9909
 21
78.7523
 31
0.0
  0
LINE
  5
2B5
  8
0
 10
33.9909
 20
78.7523
 30
0.0
 11
34.0917
 21
79.3494
 31
0.0
  0
LINE
  5
2B6
  8
0
 10
34.0917
 20
79.3494
 30
0.0
 11
34.2597
 21
79.8755
 31
0.0
  0
LINE
  5
2B7
  8
0
 10
34.2597
 20
79.8755
 30
0.0
 11
34.495
 21
80.3308
 31
0.0
  0
LINE
  5
2B8
  8
0
 10
34.495
 20
80.3308
 30
0.0
 11
34.7944
 21
80.7116
 31
0.0
  0
LINE
  5
2B9
  8
0
 10
34.7944
 20
80.7116
 30
0.0
 11
35.1551
 21
81.0133
 31
0.0
  0
LINE
  5
2BA
  8
0
 10
35.1551
 20
81.0133
 30
0.0
 11
35.5769
 21
81.2358
 31
0.0
  0
LINE
  5
2BB
  8
0
 10
35.5769
 20
81.2358
 30
0.0
 11
36.0598
 21
81.3792
 31
0.0
  0
LINE
  5
2BC
  8
0
 10
36.0598
 20
81.3792
 30
0.0
 11
36.2214
 21
80.0832
 31
0.0
  0
LINE
  5
2BD
  8
0
 10
36.2214
 20
80.0832
 30
0.0
 11
35.9451
 21
80.0145
 31
0.0
  0
LINE
  5
2BE
  8
0
 10
35.9451
 20
80.0145
 30
0.0
 11
35.7046
 21
79.8968
 31
0.0
  0
LINE
  5
2BF
  8
0
 10
35.7046
 20
79.8968
 30
0.0
 11
35.4999
 21
79.7303
 31
0.0
  0
LINE
  5
2C0
  8
0
 10
35.4999
 20
79.7303
 30
0.0
 11
35.3311
 21
79.5148
 31
0.0
  0
LINE
  5
2C1
  8
0
 10
35.3311
 20
79.5148
 30
0.0
 11
35.199
 21
79.2458
 31
0.0
  0
LINE
  5
2C2
  8
0
 10
35.199
 20
79.2458
 30
0.0
 11
35.1047
 21
78.9178
 31
0.0
  0
LINE
  5
2C3
  8
0
 10
35.1047
 20
78.9178
 30
0.0
 11
35.048
 21
78.5306
 31
0.0
  0
LINE
  5
2C4
  8
0
 10
35.048
 20
78.5306
 30
0.0
 11
35.0292
 21
78.0843
 31
0.0
  0
LINE
  5
2C5
  8
0
 10
35.0292
 20
78.0843
 30
0.0
 11
35.1039
 21
77.2269
 31
0.0
  0
LINE
  5
2C6
  8
0
 10
35.1039
 20
77.2269
 30
0.0
 11
35.3281
 21
76.6144
 31
0.0
  0
LINE
  5
2C7
  8
0
 10
35.3281
 20
76.6144
 30
0.0
 11
35.7018
 21
76.2469
 31
0.0
  0
LINE
  5
2C8
  8
0
 10
35.7018
 20
76.2469
 30
0.0
 11
36.2249
 21
76.1244
 31
0.0
  0
LINE
  5
2C9
  8
0
 10
36.2249
 20
76.1244
 30
0.0
 11
36.4518
 21
76.1451
 31
0.0
  0
LINE
  5
2CA
  8
0
 10
36.4518
 20
76.1451
 30
0.0
 11
36.6548
 21
76.2073
 31
0.0
  0
LINE
  5
2CB
  8
0
 10
36.6548
 20
76.2073
 30
0.0
 11
36.8339
 21
76.3108
 31
0.0
  0
LINE
  5
2CC
  8
0
 10
36.8339
 20
76.3108
 30
0.0
 11
36.9891
 21
76.4558
 31
0.0
  0
LINE
  5
2CD
  8
0
 10
36.9891
 20
76.4558
 30
0.0
 11
37.1254
 21
76.6473
 31
0.0
  0
LINE
  5
2CE
  8
0
 10
37.1254
 20
76.6473
 30
0.0
 11
37.2476
 21
76.8892
 31
0.0
  0
LINE
  5
2CF
  8
0
 10
37.2476
 20
76.8892
 30
0.0
 11
37.3559
 21
77.1815
 31
0.0
  0
LINE
  5
2D0
  8
0
 10
37.3559
 20
77.1815
 30
0.0
 11
37.4502
 21
77.5242
 31
0.0
  0
LINE
  5
2D1
  8
0
 10
37.4502
 20
77.5242
 30
0.0
 11
37.6978
 21
78.4758
 31
0.0
  0
LINE
  5
2D2
  8
0
 10
37.6978
 20
78.4758
 30
0.0
 11
37.8565
 21
79.0817
 31
0.0
  0
LINE
  5
2D3
  8
0
 10
37.8565
 20
79.0817
 30
0.0
 11
38.0141
 21
79.5961
 31
0.0
  0
LINE
  5
2D4
  8
0
 10
38.0141
 20
79.5961
 30
0.0
 11
38.1707
 21
80.0192
 31
0.0
  0
LINE
  5
2D5
  8
0
 10
38.1707
 20
80.0192
 30
0.0
 11
38.3263
 21
80.3508
 31
0.0
  0
LINE
  5
2D6
  8
0
 10
38.3263
 20
80.3508
 30
0.0
 11
38.4911
 21
80.6216
 31
0.0
  0
LINE
  5
2D7
  8
0
 10
38.4911
 20
80.6216
 30
0.0
 11
38.6754
 21
80.8618
 31
0.0
  0
LINE
  5
2D8
  8
0
 10
38.6754
 20
80.8618
 30
0.0
 11
38.8791
 21
81.0714
 31
0.0
  0
LINE
  5
2D9
  8
0
 10
38.8791
 20
81.0714
 30
0.0
 11
39.1023
 21
81.2506
 31
0.0
  0
LINE
  5
2DA
  8
0
 10
39.1023
 20
81.2506
 30
0.0
 11
39.3483
 21
81.394
 31
0.0
  0
LINE
  5
2DB
  8
0
 10
39.3483
 20
81.394
 30
0.0
 11
39.6206
 21
81.4965
 31
0.0
  0
LINE
  5
2DC
  8
0
 10
39.6206
 20
81.4965
 30
0.0
 11
39.9191
 21
81.558
 31
0.0
  0
LINE
  5
2DD
  8
0
 10
39.9191
 20
81.558
 30
0.0
 11
40.2438
 21
81.5784
 31
0.0
  0
LINE
  5
2DE
  8
0
 10
40.2438
 20
81.5784
 30
0.0
 11
40.8239
 21
81.5202
 31
0.0
  0
LINE
  5
2DF
  8
0
 10
40.8239
 20
81.5202
 30
0.0
 11
41.3378
 21
81.3455
 31
0.0
  0
LINE
  5
2E0
  8
0
 10
41.3378
 20
81.3455
 30
0.0
 11
41.7856
 21
81.0544
 31
0.0
  0
LINE
  5
2E1
  8
0
 10
41.7856
 20
81.0544
 30
0.0
 11
42.1672
 21
80.6468
 31
0.0
  0
LINE
  5
2E2
  8
0
 10
42.1672
 20
80.6468
 30
0.0
 11
42.4715
 21
80.1363
 31
0.0
  0
LINE
  5
2E3
  8
0
 10
42.4715
 20
80.1363
 30
0.0
 11
42.689
 21
79.5363
 31
0.0
  0
LINE
  5
2E4
  8
0
 10
42.689
 20
79.5363
 30
0.0
 11
42.8194
 21
78.8468
 31
0.0
  0
LINE
  5
2E5
  8
0
 10
42.8194
 20
78.8468
 30
0.0
 11
42.8629
 21
78.0678
 31
0.0
  0
LINE
  5
2E6
  8
0
 10
42.8629
 20
78.0678
 30
0.0
 11
42.8303
 21
77.2934
 31
0.0
  0
LINE
  5
2E7
  8
0
 10
42.8303
 20
77.2934
 30
0.0
 11
42.7326
 21
76.6173
 31
0.0
  0
LINE
  5
2E8
  8
0
 10
42.7326
 20
76.6173
 30
0.0
 11
42.5697
 21
76.0398
 31
0.0
  0
LINE
  5
2E9
  8
0
 10
42.5697
 20
76.0398
 30
0.0
 11
42.3417
 21
75.5607
 31
0.0
  0
LINE
  5
2EA
  8
0
 10
42.3417
 20
75.5607
 30
0.0
 11
42.0435
 21
75.1681
 31
0.0
  0
LINE
  5
2EB
  8
0
 10
42.0435
 20
75.1681
 30
0.0
 11
41.6701
 21
74.8499
 31
0.0
  0
LINE
  5
2EC
  8
0
 10
41.6701
 20
74.8499
 30
0.0
 11
41.2215
 21
74.6062
 31
0.0
  0
LINE
  5
2ED
  8
0
 10
41.2215
 20
74.6062
 30
0.0
 11
40.6978
 21
74.4369
 31
0.0
  0
LINE
  5
2EE
  8
0
 10
40.6978
 20
74.4369
 30
0.0
 11
40.4478
 21
75.7093
 31
0.0
  0
LINE
  5
2EF
  8
0
 10
37.3091
 20
64.6292
 30
0.0
 11
36.426
 21
64.8159
 31
0.0
  0
LINE
  5
2F0
  8
0
 10
36.426
 20
64.8159
 30
0.0
 11
35.6664
 21
65.1269
 31
0.0
  0
LINE
  5
2F1
  8
0
 10
35.6664
 20
65.1269
 30
0.0
 11
35.0304
 21
65.5623
 31
0.0
  0
LINE
  5
2F2
  8
0
 10
35.0304
 20
65.5623
 30
0.0
 11
34.5278
 21
66.1157
 31
0.0
  0
LINE
  5
2F3
  8
0
 10
34.5278
 20
66.1157
 30
0.0
 11
34.1689
 21
66.7793
 31
0.0
  0
LINE
  5
2F4
  8
0
 10
34.1689
 20
66.7793
 30
0.0
 11
33.9536
 21
67.5532
 31
0.0
  0
LINE
  5
2F5
  8
0
 10
33.9536
 20
67.5532
 30
0.0
 11
33.8818
 21
68.4373
 31
0.0
  0
LINE
  5
2F6
  8
0
 10
33.8818
 20
68.4373
 30
0.0
 11
33.9534
 21
69.3201
 31
0.0
  0
LINE
  5
2F7
  8
0
 10
33.9534
 20
69.3201
 30
0.0
 11
34.1683
 21
70.0889
 31
0.0
  0
LINE
  5
2F8
  8
0
 10
34.1683
 20
70.0889
 30
0.0
 11
34.5265
 21
70.7435
 31
0.0
  0
LINE
  5
2F9
  8
0
 10
34.5265
 20
70.7435
 30
0.0
 11
35.028
 21
71.284
 31
0.0
  0
LINE
  5
2FA
  8
0
 10
35.028
 20
71.284
 30
0.0
 11
35.6743
 21
71.7076
 31
0.0
  0
LINE
  5
2FB
  8
0
 10
35.6743
 20
71.7076
 30
0.0
 11
36.467
 21
72.0101
 31
0.0
  0
LINE
  5
2FC
  8
0
 10
36.467
 20
72.0101
 30
0.0
 11
37.406
 21
72.1917
 31
0.0
  0
LINE
  5
2FD
  8
0
 10
37.406
 20
72.1917
 30
0.0
 11
38.4914
 21
72.2522
 31
0.0
  0
LINE
  5
2FE
  8
0
 10
38.4914
 20
72.2522
 30
0.0
 11
38.6837
 21
72.2522
 31
0.0
  0
LINE
  5
2FF
  8
0
 10
38.6837
 20
72.2522
 30
0.0
 11
38.6837
 21
66.0788
 31
0.0
  0
LINE
  5
300
  8
0
 10
38.6837
 20
66.0788
 30
0.0
 11
39.3712
 21
66.1191
 31
0.0
  0
LINE
  5
301
  8
0
 10
39.3712
 20
66.1191
 30
0.0
 11
39.9799
 21
66.2398
 31
0.0
  0
LINE
  5
302
  8
0
 10
39.9799
 20
66.2398
 30
0.0
 11
40.5098
 21
66.441
 31
0.0
  0
LINE
  5
303
  8
0
 10
40.5098
 20
66.441
 30
0.0
 11
40.9608
 21
66.7227
 31
0.0
  0
LINE
  5
304
  8
0
 10
40.9608
 20
66.7227
 30
0.0
 11
41.3209
 21
67.0743
 31
0.0
  0
LINE
  5
305
  8
0
 10
41.3209
 20
67.0743
 30
0.0
 11
41.5781
 21
67.4854
 31
0.0
  0
LINE
  5
306
  8
0
 10
41.5781
 20
67.4854
 30
0.0
 11
41.7325
 21
67.9558
 31
0.0
  0
LINE
  5
307
  8
0
 10
41.7325
 20
67.9558
 30
0.0
 11
41.7839
 21
68.4857
 31
0.0
  0
LINE
  5
308
  8
0
 10
41.7839
 20
68.4857
 30
0.0
 11
41.7616
 21
68.885
 31
0.0
  0
LINE
  5
309
  8
0
 10
41.7616
 20
68.885
 30
0.0
 11
41.6946
 21
69.2587
 31
0.0
  0
LINE
  5
30A
  8
0
 10
41.6946
 20
69.2587
 30
0.0
 11
41.5829
 21
69.6067
 31
0.0
  0
LINE
  5
30B
  8
0
 10
41.5829
 20
69.6067
 30
0.0
 11
41.4266
 21
69.9291
 31
0.0
  0
LINE
  5
30C
  8
0
 10
41.4266
 20
69.9291
 30
0.0
 11
41.231
 21
70.2134
 31
0.0
  0
LINE
  5
30D
  8
0
 10
41.231
 20
70.2134
 30
0.0
 11
41.0026
 21
70.4462
 31
0.0
  0
LINE
  5
30E
  8
0
 10
41.0026
 20
70.4462
 30
0.0
 11
40.7416
 21
70.6273
 31
0.0
  0
LINE
  5
30F
  8
0
 10
40.7416
 20
70.6273
 30
0.0
 11
40.4478
 21
70.7569
 31
0.0
  0
LINE
  5
310
  8
0
 10
40.4478
 20
70.7569
 30
0.0
 11
40.8087
 21
72.0199
 31
0.0
  0
LINE
  5
311
  8
0
 10
40.8087
 20
72.0199
 30
0.0
 11
41.2772
 21
71.8074
 31
0.0
  0
LINE
  5
312
  8
0
 10
41.2772
 20
71.8074
 30
0.0
 11
41.6875
 21
71.5213
 31
0.0
  0
LINE
  5
313
  8
0
 10
41.6875
 20
71.5213
 30
0.0
 11
42.0396
 21
71.1618
 31
0.0
  0
LINE
  5
314
  8
0
 10
42.0396
 20
71.1618
 30
0.0
 11
42.3334
 21
70.7286
 31
0.0
  0
LINE
  5
315
  8
0
 10
42.3334
 20
70.7286
 30
0.0
 11
42.5651
 21
70.236
 31
0.0
  0
LINE
  5
316
  8
0
 10
42.5651
 20
70.236
 30
0.0
 11
42.7305
 21
69.6979
 31
0.0
  0
LINE
  5
317
  8
0
 10
42.7305
 20
69.6979
 30
0.0
 11
42.8298
 21
69.1145
 31
0.0
  0
LINE
  5
318
  8
0
 10
42.8298
 20
69.1145
 30
0.0
 11
42.8629
 21
68.4857
 31
0.0
  0
LINE
  5
319
  8
0
 10
42.8629
 20
68.4857
 30
0.0
 11
42.7894
 21
67.5962
 31
0.0
  0
LINE
  5
31A
  8
0
 10
42.7894
 20
67.5962
 30
0.0
 11
42.5687
 21
66.8159
 31
0.0
  0
LINE
  5
31B
  8
0
 10
42.5687
 20
66.8159
 30
0.0
 11
42.2009
 21
66.1446
 31
0.0
  0
LINE
  5
31C
  8
0
 10
42.2009
 20
66.1446
 30
0.0
 11
41.686
 21
65.5824
 31
0.0
  0
LINE
  5
31D
  8
0
 10
41.686
 20
65.5824
 30
0.0
 11
41.034
 21
65.1382
 31
0.0
  0
LINE
  5
31E
  8
0
 10
41.034
 20
65.1382
 30
0.0
 11
40.255
 21
64.8209
 31
0.0
  0
LINE
  5
31F
  8
0
 10
40.255
 20
64.8209
 30
0.0
 11
39.3489
 21
64.6305
 31
0.0
  0
LINE
  5
320
  8
0
 10
39.3489
 20
64.6305
 30
0.0
 11
38.3157
 21
64.567
 31
0.0
  0
LINE
  5
321
  8
0
 10
38.3157
 20
64.567
 30
0.0
 11
37.3091
 21
64.6292
 31
0.0
  0
LINE
  5
322
  8
0
 10
37.5799
 20
70.764
 30
0.0
 11
36.4273
 21
70.5355
 31
0.0
  0
LINE
  5
323
  8
0
 10
36.4273
 20
70.5355
 30
0.0
 11
35.6041
 21
70.0741
 31
0.0
  0
LINE
  5
324
  8
0
 10
35.6041
 20
70.0741
 30
0.0
 11
35.1101
 21
69.3798
 31
0.0
  0
LINE
  5
325
  8
0
 10
35.1101
 20
69.3798
 30
0.0
 11
34.9454
 21
68.4527
 31
0.0
  0
LINE
  5
326
  8
0
 10
34.9454
 20
68.4527
 30
0.0
 11
34.9894
 21
67.9452
 31
0.0
  0
LINE
  5
327
  8
0
 10
34.9894
 20
67.9452
 30
0.0
 11
35.1212
 21
67.4936
 31
0.0
  0
LINE
  5
328
  8
0
 10
35.1212
 20
67.4936
 30
0.0
 11
35.3408
 21
67.0979
 31
0.0
  0
LINE
  5
329
  8
0
 10
35.3408
 20
67.0979
 30
0.0
 11
35.6483
 21
66.7581
 31
0.0
  0
LINE
  5
32A
  8
0
 10
35.6483
 20
66.7581
 30
0.0
 11
36.0326
 21
66.4826
 31
0.0
  0
LINE
  5
32B
  8
0
 10
36.0326
 20
66.4826
 30
0.0
 11
36.4826
 21
66.2802
 31
0.0
  0
LINE
  5
32C
  8
0
 10
36.4826
 20
66.2802
 30
0.0
 11
36.9984
 21
66.1507
 31
0.0
  0
LINE
  5
32D
  8
0
 10
36.9984
 20
66.1507
 30
0.0
 11
37.5799
 21
66.0941
 31
0.0
  0
LINE
  5
32E
  8
0
 10
37.5799
 20
66.0941
 30
0.0
 11
37.5799
 21
70.764
 31
0.0
  0
LINE
  5
32F
  8
0
 10
30.8629
 20
55.7915
 30
0.0
 11
30.8629
 21
57.2314
 31
0.0
  0
LINE
  5
330
  8
0
 10
30.8629
 20
57.2314
 30
0.0
 11
38.2438
 21
57.2314
 31
0.0
  0
LINE
  5
331
  8
0
 10
38.2438
 20
57.2314
 30
0.0
 11
34.0327
 21
61.0297
 31
0.0
  0
LINE
  5
332
  8
0
 10
34.0327
 20
61.0297
 30
0.0
 11
34.0327
 21
62.7172
 31
0.0
  0
LINE
  5
333
  8
0
 10
34.0327
 20
62.7172
 30
0.0
 11
37.7662
 21
59.2066
 31
0.0
  0
LINE
  5
334
  8
0
 10
37.7662
 20
59.2066
 30
0.0
 11
42.712
 21
62.9012
 31
0.0
  0
LINE
  5
335
  8
0
 10
42.712
 20
62.9012
 30
0.0
 11
42.712
 21
61.2137
 31
0.0
  0
LINE
  5
336
  8
0
 10
42.712
 20
61.2137
 30
0.0
 11
38.7096
 21
58.2868
 31
0.0
  0
LINE
  5
337
  8
0
 10
38.7096
 20
58.2868
 30
0.0
 11
39.4914
 21
57.2314
 31
0.0
  0
LINE
  5
338
  8
0
 10
39.4914
 20
57.2314
 30
0.0
 11
42.712
 21
57.2314
 31
0.0
  0
LINE
  5
339
  8
0
 10
42.712
 20
57.2314
 30
0.0
 11
42.712
 21
55.7915
 31
0.0
  0
LINE
  5
33A
  8
0
 10
42.712
 20
55.7915
 30
0.0
 11
30.8629
 21
55.7915
 31
0.0
  0
LINE
  5
33B
  8
0
 10
15.2707
 20
32.0879
 30
0.0
 11
15.2707
 21
44.5891
 31
0.0
  0
LINE
  5
33C
  8
0
 10
15.2707
 20
44.5891
 30
0.0
 11
4.93076
 21
60.9212
 31
0.0
  0
LINE
  5
33D
  8
0
 10
4.93076
 20
60.9212
 30
0.0
 11
9.30995
 21
60.9212
 31
0.0
  0
LINE
  5
33E
  8
0
 10
9.30995
 20
60.9212
 30
0.0
 11
17.2996
 21
47.8813
 31
0.0
  0
LINE
  5
33F
  8
0
 10
17.2996
 20
47.8813
 30
0.0
 11
25.2483
 21
60.9212
 31
0.0
  0
LINE
  5
340
  8
0
 10
25.2483
 20
60.9212
 30
0.0
 11
29.6275
 21
60.9212
 31
0.0
  0
LINE
  5
341
  8
0
 10
29.6275
 20
60.9212
 30
0.0
 11
19.2875
 21
44.5891
 31
0.0
  0
LINE
  5
342
  8
0
 10
19.2875
 20
44.5891
 30
0.0
 11
19.2875
 21
32.0879
 31
0.0
  0
LINE
  5
343
  8
0
 10
19.2875
 20
32.0879
 30
0.0
 11
15.2707
 21
32.0879
 31
0.0
  0
LINE
  5
344
  8
0
 10
41.5763
 20
45.4499
 30
0.0
 11
41.5763
 21
48.8237
 31
0.0
  0
LINE
  5
345
  8
0
 10
41.5763
 20
48.8237
 30
0.0
 11
35.1683
 21
48.8237
 31
0.0
  0
LINE
  5
346
  8
0
 10
35.1683
 20
48.8237
 30
0.0
 11
35.1683
 21
46.273
 31
0.0
  0
LINE
  5
347
  8
0
 10
35.1683
 20
46.273
 30
0.0
 11
34.0327
 21
46.273
 31
0.0
  0
LINE
  5
348
  8
0
 10
34.0327
 20
46.273
 30
0.0
 11
34.0327
 21
50.2636
 31
0.0
  0
LINE
  5
349
  8
0
 10
34.0327
 20
50.2636
 30
0.0
 11
41.5763
 21
50.2636
 31
0.0
  0
LINE
  5
34A
  8
0
 10
41.5763
 20
50.2636
 30
0.0
 11
41.5763
 21
53.3025
 31
0.0
  0
LINE
  5
34B
  8
0
 10
41.5763
 20
53.3025
 30
0.0
 11
42.712
 21
53.3025
 31
0.0
  0
LINE
  5
34C
  8
0
 10
42.712
 20
53.3025
 30
0.0
 11
42.712
 21
45.4499
 31
0.0
  0
LINE
  5
34D
  8
0
 10
42.712
 20
45.4499
 30
0.0
 11
41.5763
 21
45.4499
 31
0.0
  0
LINE
  5
34E
  8
0
 10
30.8629
 20
48.6645
 30
0.0
 11
30.8629
 21
50.2636
 31
0.0
  0
LINE
  5
34F
  8
0
 10
30.8629
 20
50.2636
 30
0.0
 11
32.3983
 21
50.2636
 31
0.0
  0
LINE
  5
350
  8
0
 10
32.3983
 20
50.2636
 30
0.0
 11
32.3983
 21
48.6645
 31
0.0
  0
LINE
  5
351
  8
0
 10
32.3983
 20
48.6645
 30
0.0
 11
30.8629
 21
48.6645
 31
0.0
  0
LINE
  5
352
  8
0
 10
41.5763
 20
35.7793
 30
0.0
 11
41.5763
 21
39.1531
 31
0.0
  0
LINE
  5
353
  8
0
 10
41.5763
 20
39.1531
 30
0.0
 11
31.9985
 21
39.1531
 31
0.0
  0
LINE
  5
354
  8
0
 10
31.9985
 20
39.1531
 30
0.0
 11
31.9985
 21
36.843
 31
0.0
  0
LINE
  5
355
  8
0
 10
31.9985
 20
36.843
 30
0.0
 11
30.8629
 21
36.843
 31
0.0
  0
LINE
  5
356
  8
0
 10
30.8629
 20
36.843
 30
0.0
 11
30.8629
 21
40.593
 31
0.0
  0
LINE
  5
357
  8
0
 10
30.8629
 20
40.593
 30
0.0
 11
41.5763
 21
40.593
 31
0.0
  0
LINE
  5
358
  8
0
 10
41.5763
 20
40.593
 30
0.0
 11
41.5763
 21
43.6319
 31
0.0
  0
LINE
  5
359
  8
0
 10
41.5763
 20
43.6319
 30
0.0
 11
42.712
 21
43.6319
 31
0.0
  0
LINE
  5
35A
  8
0
 10
42.712
 20
43.6319
 30
0.0
 11
42.712
 21
35.7793
 31
0.0
  0
LINE
  5
35B
  8
0
 10
42.712
 20
35.7793
 30
0.0
 11
41.5763
 21
35.7793
 31
0.0
  0
LINE
  5
35C
  8
0
 10
37.7308
 20
27.7797
 30
0.0
 11
37.7308
 21
32.2573
 31
0.0
  0
LINE
  5
35D
  8
0
 10
37.7308
 20
32.2573
 30
0.0
 11
39.0103
 21
32.2573
 31
0.0
  0
LINE
  5
35E
  8
0
 10
39.0103
 20
32.2573
 30
0.0
 11
39.0103
 21
27.7797
 31
0.0
  0
LINE
  5
35F
  8
0
 10
39.0103
 20
27.7797
 30
0.0
 11
37.7308
 21
27.7797
 31
0.0
  0
LINE
  5
395
  8
0
 62
1
 10
0.0
 20
0.0
 30
0.0
 11
0.0
 21
175.0
 31
0.0
  0
LINE
  5
396
  8
0
 62
1
 10
0.0
 20
175.0
 30
0.0
 11
50.0
 21
175.0
 31
0.0
  0
LINE
  5
397
  8
0
 62
1
 10
50.0
 20
175.0
 30
0.0
 11
50.0
 21
0.0
 31
0.0
  0
LINE
  5
398
  8
0
 62
1
 10
50.0
 20
0.0
 30
0.0
 11
0.0
 21
0.0
 31
0.0
  0
ENDSEC
  0
EOF
