<?xml version="1.0" standalone="no"?>
<!DOCTYPE svg PUBLIC "-//W3C//DTD SVG 1.1//EN" "http://www.w3.org/Graphics/SVG/1.1/DTD/svg11.dtd">
<svg width="50mm" height="175mm" viewBox="0 -175 50 175" xmlns="http://www.w3.org/2000/svg" version="1.1">
<title>OpenSCAD Model</title>
<path d="
M 43.0902,-0.489426 L 45,-1.33974 L 46.6913,-2.56854 L 48.0902,-4.12215 L 49.1355,-5.93263 L 49.7815,-7.92087
 L 50,-10 L 50,-165 L 49.7815,-167.079 L 49.1355,-169.067 L 48.0902,-170.878 L 46.6913,-172.431
 L 45,-173.66 L 43.0902,-174.511 L 41.0453,-174.945 L 8.95471,-174.945 L 6.90982,-174.511 L 5,-173.66
 L 3.30869,-172.431 L 1.90982,-170.878 L 0.864532,-169.067 L 0.218521,-167.079 L 0,-165 L 0,-10
 L 0.218521,-7.92087 L 0.864532,-5.93263 L 1.90982,-4.12215 L 3.30869,-2.56854 L 5,-1.33974 L 6.90982,-0.489426
 L 8.95471,-0.0547791 L 41.0453,-0.0547791 z
M 38.2613,-145.275 L 38.2613,-149.939 L 39.5941,-149.939 L 39.5941,-145.275 z
M 41.0915,-135.21 L 41.4317,-135.311 L 41.7226,-135.458 L 41.9642,-135.65 L 42.1565,-135.888 L 42.3027,-136.194
 L 42.4071,-136.593 L 42.4697,-137.084 L 42.4906,-137.666 L 42.4024,-138.65 L 42.1378,-139.353 L 41.6967,-139.775
 L 41.0792,-139.916 L 40.8266,-139.89 L 40.5995,-139.813 L 40.3979,-139.686 L 40.2218,-139.507 L 40.0653,-139.276
 L 39.9239,-138.991 L 39.7975,-138.652 L 39.6862,-138.259 L 39.4312,-137.259 L 39.2053,-136.46 L 39.0086,-135.863
 L 38.8411,-135.466 L 38.678,-135.188 L 38.4959,-134.944 L 38.2947,-134.734 L 38.0746,-134.559 L 37.83,-134.421
 L 37.5571,-134.322 L 37.2558,-134.263 L 36.926,-134.243 L 36.3494,-134.298 L 35.8392,-134.464 L 35.3956,-134.74
 L 35.0184,-135.126 L 34.7174,-135.617 L 34.5024,-136.207 L 34.3735,-136.896 L 34.3305,-137.684 L 34.3655,-138.379
 L 34.4705,-139.001 L 34.6455,-139.549 L 34.8906,-140.024 L 35.2025,-140.42 L 35.5782,-140.735 L 36.0176,-140.966
 L 36.5207,-141.116 L 36.6889,-139.766 L 36.4011,-139.694 L 36.1506,-139.572 L 35.9374,-139.398 L 35.7615,-139.174
 L 35.624,-138.894 L 35.5257,-138.552 L 35.4667,-138.148 L 35.4471,-137.684 L 35.5249,-136.79 L 35.7585,-136.152
 L 36.1477,-135.77 L 36.6926,-135.642 L 36.929,-135.664 L 37.1404,-135.728 L 37.327,-135.836 L 37.4886,-135.987
 L 37.6306,-136.187 L 37.7579,-136.439 L 37.8707,-136.743 L 37.9689,-137.1 L 38.2269,-138.091 L 38.3922,-138.723
 L 38.5564,-139.258 L 38.7195,-139.699 L 38.8816,-140.045 L 39.0533,-140.327 L 39.2452,-140.577 L 39.4574,-140.795
 L 39.6899,-140.982 L 39.9462,-141.131 L 40.2298,-141.238 L 40.5407,-141.302 L 40.879,-141.323 L 41.4832,-141.263
 L 42.0186,-141.081 L 42.485,-140.777 L 42.8824,-140.353 L 43.1995,-139.821 L 43.426,-139.196 L 43.5619,-138.478
 L 43.6072,-137.666 L 43.5733,-136.86 L 43.4715,-136.156 L 43.3018,-135.554 L 43.0642,-135.055 L 42.7536,-134.646
 L 42.3647,-134.314 L 41.8974,-134.061 L 41.3519,-133.884 z
M 3.67979,-109.925 L 14.7002,-139.092 L 19.3913,-139.092 L 30.2173,-109.925 L 26.0264,-109.925 L 23.0435,-118.128
 L 10.8759,-118.128 L 7.91525,-109.925 z
M 18.244,-132.202 L 16.9915,-135.978 L 16.7334,-135.13 L 15.242,-130.529 L 11.9785,-121.347 L 21.9854,-121.347
 z
M 31.1072,-124.461 L 31.1072,-125.96 L 38.7956,-125.96 L 34.4091,-129.917 L 34.4091,-131.675 L 38.2981,-128.018
 L 43.45,-131.866 L 43.45,-130.109 L 39.2808,-127.06 L 40.0953,-125.96 L 43.45,-125.96 L 43.45,-124.461
 z
M 37.8299,-113.646 L 36.8833,-113.843 L 36.0813,-114.173 L 35.4237,-114.634 L 34.911,-115.216 L 34.5448,-115.907
 L 34.3251,-116.709 L 34.2518,-117.62 L 34.3243,-118.571 L 34.5417,-119.392 L 34.9041,-120.082 L 35.4114,-120.643
 L 36.0652,-121.077 L 36.868,-121.387 L 37.8199,-121.572 L 38.9209,-121.634 L 39.9921,-121.569 L 40.9293,-121.373
 L 41.7327,-121.046 L 42.4021,-120.589 L 42.9294,-120.008 L 43.3059,-119.312 L 43.5319,-118.499 L 43.6072,-117.57
 L 43.5311,-116.66 L 43.3029,-115.863 L 42.9225,-115.179 L 42.3899,-114.608 L 41.7166,-114.158 L 40.914,-113.837
 L 39.9821,-113.644 L 38.9209,-113.58 z
M 39.7444,-115.191 L 40.4632,-115.303 L 41.0772,-115.491 L 41.5865,-115.753 L 41.9858,-116.09 L 42.271,-116.503
 L 42.4421,-116.99 L 42.4992,-117.553 L 42.4435,-118.169 L 42.2762,-118.693 L 41.9975,-119.126 L 41.6074,-119.468
 L 41.1046,-119.727 L 40.4892,-119.912 L 39.7614,-120.023 L 38.9209,-120.06 L 38.0811,-120.024 L 37.355,-119.917
 L 36.7428,-119.738 L 36.2443,-119.488 L 35.8573,-119.159 L 35.581,-118.743 L 35.4151,-118.238 L 35.3598,-117.645
 L 35.4162,-117.042 L 35.5853,-116.526 L 35.867,-116.096 L 36.2615,-115.753 L 36.7654,-115.491 L 37.3765,-115.303
 L 38.0951,-115.191 L 38.9209,-115.153 z
M 37.8299,-103.647 L 36.8833,-103.845 L 36.0813,-104.174 L 35.4237,-104.635 L 34.911,-105.217 L 34.5448,-105.909
 L 34.3251,-106.71 L 34.2518,-107.621 L 34.3243,-108.572 L 34.5417,-109.393 L 34.9041,-110.084 L 35.4114,-110.645
 L 36.0652,-111.078 L 36.868,-111.388 L 37.8199,-111.574 L 38.9209,-111.636 L 39.9921,-111.57 L 40.9293,-111.374
 L 41.7327,-111.048 L 42.4021,-110.59 L 42.9294,-110.01 L 43.3059,-109.313 L 43.5319,-108.5 L 43.6072,-107.571
 L 43.5311,-106.661 L 43.3029,-105.865 L 42.9225,-105.181 L 42.3899,-104.609 L 41.7166,-104.16 L 40.914,-103.838
 L 39.9821,-103.646 L 38.9209,-103.581 z
M 39.7444,-105.192 L 40.4632,-105.305 L 41.0772,-105.492 L 41.5865,-105.754 L 41.9858,-106.092 L 42.271,-106.504
 L 42.4421,-106.991 L 42.4992,-107.554 L 42.4435,-108.17 L 42.2762,-108.695 L 41.9975,-109.128 L 41.6074,-109.469
 L 41.1046,-109.728 L 40.4892,-109.913 L 39.7614,-110.024 L 38.9209,-110.061 L 38.0811,-110.025 L 37.355,-109.918
 L 36.7428,-109.74 L 36.2443,-109.49 L 35.8573,-109.161 L 35.581,-108.744 L 35.4151,-108.239 L 35.3598,-107.646
 L 35.4162,-107.043 L 35.5853,-106.527 L 35.867,-106.097 L 36.2615,-105.754 L 36.7654,-105.492 L 37.3765,-105.305
 L 38.0951,-105.192 L 38.9209,-105.155 z
M 43.1655,-94.0126 L 42.7615,-94.0283 L 42.238,-94.0378 L 41.5951,-94.0409 L 31.1072,-94.0409 L 31.1072,-95.5395
 L 34.6167,-95.5395 L 34.9003,-95.5375 L 35.2118,-95.5312 L 35.5513,-95.5209 L 35.9188,-95.5064 L 35.9188,-95.5395
 L 35.1895,-95.9977 L 34.6686,-96.6141 L 34.356,-97.3888 L 34.2518,-98.3218 L 34.5421,-99.747 L 35.413,-100.765
 L 36.8644,-101.376 L 38.8964,-101.579 L 40.0037,-101.527 L 40.9625,-101.368 L 41.7726,-101.103 L 42.4341,-100.733
 L 42.9473,-100.265 L 43.3139,-99.7056 L 43.5339,-99.055 L 43.6072,-98.3132 L 43.5114,-97.377 L 43.2239,-96.6012
 L 42.7449,-95.9858 L 42.0742,-95.5309 L 42.0742,-95.5137 L 42.2777,-95.5119 L 42.4854,-95.5064 L 42.6972,-95.4971
 L 42.9131,-95.4843 L 43.1102,-95.4708 L 43.2654,-95.4588 L 43.3786,-95.4481 L 43.45,-95.4388 L 43.45,-93.9905
 z
M 39.8929,-95.5739 L 40.594,-95.6768 L 41.1827,-95.8484 L 41.659,-96.0886 L 42.0266,-96.408 L 42.2891,-96.8158
 L 42.4467,-97.3121 L 42.4992,-97.8968 L 42.4448,-98.42 L 42.2818,-98.8657 L 42.01,-99.2338 L 41.6295,-99.5244
 L 41.1357,-99.7453 L 40.524,-99.903 L 39.7943,-99.9977 L 38.9467,-100.029 L 38.0787,-99.9973 L 37.3394,-99.9012
 L 36.7287,-99.7411 L 36.2467,-99.517 L 35.8808,-99.2248 L 35.6194,-98.8602 L 35.4625,-98.4232 L 35.4102,-97.914
 L 35.4672,-97.3353 L 35.6381,-96.841 L 35.9229,-96.4312 L 36.3217,-96.1058 L 36.8354,-95.8581 L 37.4662,-95.6811
 L 38.2142,-95.5749 L 39.0794,-95.5395 z
M 6.46835,-70.7585 L 6.46835,-99.9251 L 11.5898,-99.9251 L 15.5894,-89.3987 L 15.8509,-88.6602 L 16.1829,-87.5854
 L 16.5855,-86.1744 L 17.0585,-84.4272 L 17.6194,-86.3648 L 18.5722,-89.3764 L 22.5686,-99.9251 L 27.4319,-99.9251
 L 27.4319,-70.7585 L 23.9294,-70.7585 L 23.9294,-89.5262 L 23.9334,-90.8926 L 23.9454,-92.0725 L 23.9653,-93.0661
 L 23.9932,-93.8732 L 24.0601,-96.0339 L 23.4129,-93.9801 L 22.8546,-92.2518 L 22.3852,-90.849 L 22.0046,-89.7716
 L 18.4607,-80.3447 L 15.5001,-80.3447 L 11.9148,-89.7716 L 11.6394,-90.5334 L 11.2018,-91.8311 L 10.602,-93.6646
 L 9.84016,-96.0339 L 9.92618,-89.5262 L 9.92618,-70.7585 z
M 41.0915,-75.2181 L 41.4317,-75.3199 L 41.7226,-75.4668 L 41.9642,-75.6589 L 42.1565,-75.8961 L 42.3027,-76.2026
 L 42.4071,-76.6012 L 42.4697,-77.0919 L 42.4906,-77.6748 L 42.4024,-78.6588 L 42.1378,-79.3617 L 41.6967,-79.7834
 L 41.0792,-79.924 L 40.8266,-79.8984 L 40.5995,-79.8217 L 40.3979,-79.6939 L 40.2218,-79.5149 L 40.0653,-79.284
 L 39.9239,-78.999 L 39.7975,-78.66 L 39.6862,-78.2669 L 39.4312,-77.2674 L 39.2053,-76.4689 L 39.0086,-75.8713
 L 38.8411,-75.4748 L 38.678,-75.1965 L 38.4959,-74.9524 L 38.2947,-74.7426 L 38.0746,-74.567 L 37.83,-74.4289
 L 37.5571,-74.3302 L 37.2558,-74.271 L 36.926,-74.2513 L 36.3494,-74.3065 L 35.8392,-74.4721 L 35.3956,-74.7481
 L 35.0184,-75.1345 L 34.7174,-75.6256 L 34.5024,-76.2155 L 34.3735,-76.9043 L 34.3305,-77.692 L 34.3655,-78.3878
 L 34.4705,-79.0098 L 34.6455,-79.5578 L 34.8906,-80.0321 L 35.2025,-80.4288 L 35.5782,-80.743 L 36.0176,-80.9748
 L 36.5207,-81.1241 L 36.6889,-79.7741 L 36.4011,-79.7026 L 36.1506,-79.58 L 35.9374,-79.4065 L 35.7615,-79.182
 L 35.624,-78.9019 L 35.5257,-78.5602 L 35.4667,-78.1569 L 35.4471,-77.692 L 35.5249,-76.7988 L 35.7585,-76.1608
 L 36.1477,-75.778 L 36.6926,-75.6504 L 36.929,-75.672 L 37.1404,-75.7367 L 37.327,-75.8446 L 37.4886,-75.9956
 L 37.6306,-76.1951 L 37.7579,-76.447 L 37.8707,-76.7515 L 37.9689,-77.1085 L 38.2269,-78.0998 L 38.3922,-78.7309
 L 38.5564,-79.2668 L 38.7195,-79.7075 L 38.8816,-80.053 L 39.0533,-80.335 L 39.2452,-80.5852 L 39.4574,-80.8036
 L 39.6899,-80.9902 L 39.9462,-81.1396 L 40.2298,-81.2464 L 40.5407,-81.3104 L 40.879,-81.3317 L 41.4832,-81.2711
 L 42.0186,-81.0891 L 42.485,-80.7859 L 42.8824,-80.3613 L 43.1995,-79.8295 L 43.426,-79.2045 L 43.5619,-78.4862
 L 43.6072,-77.6748 L 43.5733,-76.8681 L 43.4715,-76.1639 L 43.3018,-75.5623 L 43.0642,-75.0633 L 42.7536,-74.6543
 L 42.3647,-74.3229 L 41.8974,-74.069 L 41.3519,-73.8926 z
M 37.822,-63.6763 L 36.9021,-63.8707 L 36.1108,-64.1947 L 35.4483,-64.6482 L 34.9248,-65.2247 L 34.551,-65.9159
 L 34.3266,-66.7221 L 34.2518,-67.643 L 34.3265,-68.5626 L 34.5503,-69.3634 L 34.9235,-70.0453 L 35.4458,-70.6084
 L 36.1191,-71.0496 L 36.9448,-71.3647 L 37.9229,-71.5538 L 39.0536,-71.6169 L 39.2538,-71.6169 L 39.2538,-65.1863
 L 39.97,-65.2282 L 40.6041,-65.354 L 41.156,-65.5636 L 41.6258,-65.857 L 42.0009,-66.2233 L 42.2689,-66.6514
 L 42.4296,-67.1415 L 42.4832,-67.6934 L 42.46,-68.1094 L 42.3902,-68.4986 L 42.2739,-68.8611 L 42.111,-69.1969
 L 41.9073,-69.4931 L 41.6694,-69.7356 L 41.3975,-69.9243 L 41.0915,-70.0593 L 41.4673,-71.3749 L 41.9554,-71.1535
 L 42.3828,-70.8556 L 42.7496,-70.481 L 43.0556,-70.0298 L 43.297,-69.5166 L 43.4693,-68.9562 L 43.5727,-68.3484
 L 43.6072,-67.6934 L 43.5306,-66.7669 L 43.3007,-65.954 L 42.9176,-65.2548 L 42.3813,-64.6691 L 41.7021,-64.2064
 L 40.8906,-63.8759 L 39.9468,-63.6776 L 38.8705,-63.6115 z
M 38.104,-70.0667 L 36.9035,-69.8286 L 36.0459,-69.348 L 35.5314,-68.6248 L 35.3598,-67.659 L 35.4056,-67.1304
 L 35.5429,-66.66 L 35.7717,-66.2478 L 36.092,-65.8938 L 36.4923,-65.6069 L 36.9611,-65.396 L 37.4983,-65.2611
 L 38.104,-65.2022 z
M 31.1072,-54.4703 L 31.1072,-55.9702 L 38.7956,-55.9702 L 34.4091,-59.9268 L 34.4091,-61.6846 L 38.2981,-58.0277
 L 43.45,-61.8762 L 43.45,-60.1184 L 39.2808,-57.0695 L 40.0953,-55.9702 L 43.45,-55.9702 L 43.45,-54.4703
 z
M 14.9169,-31.5918 L 14.9169,-44.2375 L 4.45741,-60.7585 L 8.88724,-60.7585 L 16.9692,-47.5678 L 25.0098,-60.7585
 L 29.4396,-60.7585 L 18.9802,-44.2375 L 18.9802,-31.5918 z
M 42.267,-43.6978 L 42.267,-47.2122 L 35.592,-47.2122 L 35.592,-44.5552 L 34.4091,-44.5552 L 34.4091,-48.7121
 L 42.267,-48.7121 L 42.267,-51.8776 L 43.45,-51.8776 L 43.45,-43.6978 z
M 31.1072,-47.0464 L 31.1072,-48.7121 L 32.7066,-48.7121 L 32.7066,-47.0464 z
M 42.267,-33.6243 L 42.267,-37.1387 L 32.2901,-37.1387 L 32.2901,-34.7323 L 31.1072,-34.7323 L 31.1072,-38.6385
 L 42.267,-38.6385 L 42.267,-41.8041 L 43.45,-41.8041 L 43.45,-33.6243 z
M 38.2613,-25.2914 L 38.2613,-29.9555 L 39.5941,-29.9555 L 39.5941,-25.2914 z
" stroke="black" fill="lightgray" stroke-width="0.5"/>
</svg>
