<?xml version="1.0" standalone="no"?>
<!DOCTYPE svg PUBLIC "-//W3C//DTD SVG 1.1//EN" "http://www.w3.org/Graphics/SVG/1.1/DTD/svg11.dtd">
<svg width="48mm" height="173mm" viewBox="1 -174 48 173" xmlns="http://www.w3.org/2000/svg" version="1.1">
<title>OpenSCAD Model</title>
<path d="
M 42.0902,-1.48943 L 44,-2.33974 L 45.6913,-3.56854 L 47.0902,-5.12215 L 48.1355,-6.93263 L 48.7815,-8.92087
 L 49,-11 L 49,-164 L 48.7815,-166.079 L 48.1355,-168.067 L 47.0902,-169.878 L 45.6913,-171.431
 L 44,-172.66 L 42.0902,-173.511 L 40.0453,-173.945 L 9.95471,-173.945 L 7.90982,-173.511 L 6,-172.66
 L 4.30869,-171.431 L 2.90982,-169.878 L 1.86453,-168.067 L 1.21852,-166.079 L 1,-164 L 1,-11
 L 1.21852,-8.92087 L 1.86453,-6.93263 L 2.90982,-5.12215 L 4.30869,-3.56854 L 6,-2.33974 L 7.90982,-1.48943
 L 9.95471,-1.05478 L 40.0453,-1.05478 z
M 37.7308,-142.964 L 37.7308,-147.441 L 39.0103,-147.441 L 39.0103,-142.964 z
M 40.4478,-133.301 L 40.7744,-133.399 L 41.0536,-133.54 L 41.2856,-133.724 L 41.4702,-133.952 L 41.6105,-134.246
 L 41.7108,-134.629 L 41.7709,-135.1 L 41.791,-135.66 L 41.7063,-136.604 L 41.4522,-137.279 L 41.0288,-137.684
 L 40.436,-137.819 L 40.1935,-137.794 L 39.9755,-137.721 L 39.782,-137.598 L 39.6129,-137.426 L 39.4627,-137.205
 L 39.3269,-136.931 L 39.2056,-136.606 L 39.0987,-136.228 L 38.8539,-135.269 L 38.6371,-134.502 L 38.4482,-133.928
 L 38.2874,-133.548 L 38.1309,-133.281 L 37.9561,-133.046 L 37.763,-132.845 L 37.5516,-132.676 L 37.3168,-132.544
 L 37.0548,-132.449 L 36.7655,-132.392 L 36.449,-132.373 L 35.8954,-132.426 L 35.4057,-132.585 L 34.9797,-132.85
 L 34.6176,-133.221 L 34.3287,-133.692 L 34.1223,-134.259 L 33.9985,-134.92 L 33.9572,-135.676 L 33.9909,-136.344
 L 34.0917,-136.941 L 34.2597,-137.467 L 34.495,-137.923 L 34.7944,-138.304 L 35.1551,-138.605 L 35.5769,-138.828
 L 36.0598,-138.971 L 36.2214,-137.675 L 35.9451,-137.606 L 35.7046,-137.489 L 35.4999,-137.322 L 35.3311,-137.107
 L 35.199,-136.838 L 35.1047,-136.51 L 35.048,-136.123 L 35.0292,-135.676 L 35.1039,-134.819 L 35.3281,-134.206
 L 35.7018,-133.839 L 36.2249,-133.716 L 36.4518,-133.737 L 36.6548,-133.799 L 36.8339,-133.903 L 36.9891,-134.048
 L 37.1254,-134.239 L 37.2476,-134.481 L 37.3559,-134.773 L 37.4502,-135.116 L 37.6978,-136.068 L 37.8565,-136.674
 L 38.0141,-137.188 L 38.1707,-137.611 L 38.3263,-137.943 L 38.4911,-138.214 L 38.6754,-138.454 L 38.8791,-138.663
 L 39.1023,-138.843 L 39.3483,-138.986 L 39.6206,-139.088 L 39.9191,-139.15 L 40.2438,-139.17 L 40.8239,-139.112
 L 41.3378,-138.937 L 41.7856,-138.646 L 42.1672,-138.239 L 42.4715,-137.728 L 42.689,-137.128 L 42.8194,-136.439
 L 42.8629,-135.66 L 42.8303,-134.885 L 42.7326,-134.209 L 42.5697,-133.632 L 42.3417,-133.153 L 42.0435,-132.76
 L 41.6701,-132.442 L 41.2215,-132.198 L 40.6978,-132.029 z
M 4.16203,-109.755 L 15.0565,-138.588 L 19.6939,-138.588 L 30.3962,-109.755 L 26.2533,-109.755 L 23.3044,-117.864
 L 11.2759,-117.864 L 8.34908,-109.755 z
M 18.5598,-131.776 L 17.3216,-135.51 L 17.0664,-134.672 L 15.5921,-130.122 L 12.3659,-121.046 L 22.2584,-121.046
 z
M 30.8629,-122.982 L 30.8629,-124.422 L 38.2438,-124.422 L 34.0327,-128.22 L 34.0327,-129.908 L 37.7662,-126.397
 L 42.712,-130.092 L 42.712,-128.404 L 38.7096,-125.477 L 39.4914,-124.422 L 42.712,-124.422 L 42.712,-122.982
 z
M 37.3167,-112.6 L 36.408,-112.79 L 35.638,-113.106 L 35.0068,-113.549 L 34.5146,-114.107 L 34.163,-114.771
 L 33.9521,-115.54 L 33.8818,-116.415 L 33.9514,-117.328 L 34.1601,-118.116 L 34.508,-118.779 L 34.995,-119.317
 L 35.6226,-119.734 L 36.3933,-120.031 L 37.3071,-120.21 L 38.3641,-120.269 L 39.3924,-120.206 L 40.2922,-120.018
 L 41.0634,-119.705 L 41.7061,-119.266 L 42.2122,-118.708 L 42.5737,-118.039 L 42.7906,-117.259 L 42.8629,-116.367
 L 42.7899,-115.494 L 42.5708,-114.729 L 42.2056,-114.072 L 41.6943,-113.524 L 41.0479,-113.092 L 40.2774,-112.783
 L 39.3828,-112.598 L 38.3641,-112.537 z
M 39.1546,-114.083 L 39.8446,-114.191 L 40.4341,-114.371 L 40.923,-114.623 L 41.3064,-114.947 L 41.5802,-115.342
 L 41.7445,-115.81 L 41.7992,-116.35 L 41.7457,-116.942 L 41.5852,-117.446 L 41.3176,-117.861 L 40.9431,-118.189
 L 40.4604,-118.438 L 39.8697,-118.615 L 39.1709,-118.722 L 38.3641,-118.757 L 37.5578,-118.723 L 36.8608,-118.62
 L 36.2731,-118.449 L 35.7945,-118.209 L 35.423,-117.893 L 35.1577,-117.493 L 34.9985,-117.008 L 34.9454,-116.439
 L 34.9996,-115.86 L 35.1618,-115.365 L 35.4323,-114.952 L 35.811,-114.623 L 36.2947,-114.371 L 36.8815,-114.191
 L 37.5713,-114.083 L 38.3641,-114.047 z
M 37.3167,-103.001 L 36.408,-103.191 L 35.638,-103.507 L 35.0068,-103.95 L 34.5146,-104.508 L 34.163,-105.172
 L 33.9521,-105.942 L 33.8818,-106.817 L 33.9514,-107.729 L 34.1601,-108.517 L 34.508,-109.18 L 34.995,-109.719
 L 35.6226,-110.135 L 36.3933,-110.432 L 37.3071,-110.611 L 38.3641,-110.67 L 39.3924,-110.608 L 40.2922,-110.42
 L 41.0634,-110.106 L 41.7061,-109.667 L 42.2122,-109.109 L 42.5737,-108.44 L 42.7906,-107.66 L 42.8629,-106.768
 L 42.7899,-105.895 L 42.5708,-105.13 L 42.2056,-104.473 L 41.6943,-103.925 L 41.0479,-103.493 L 40.2774,-103.185
 L 39.3828,-103 L 38.3641,-102.938 z
M 39.1546,-104.485 L 39.8446,-104.593 L 40.4341,-104.772 L 40.923,-105.024 L 41.3064,-105.348 L 41.5802,-105.744
 L 41.7445,-106.212 L 41.7992,-106.752 L 41.7457,-107.343 L 41.5852,-107.847 L 41.3176,-108.263 L 40.9431,-108.59
 L 40.4604,-108.839 L 39.8697,-109.017 L 39.1709,-109.123 L 38.3641,-109.159 L 37.5578,-109.124 L 36.8608,-109.022
 L 36.2731,-108.85 L 35.7945,-108.61 L 35.423,-108.294 L 35.1577,-107.894 L 34.9985,-107.409 L 34.9454,-106.84
 L 34.9996,-106.261 L 35.1618,-105.766 L 35.4323,-105.353 L 35.811,-105.024 L 36.2947,-104.772 L 36.8815,-104.593
 L 37.5713,-104.485 L 38.3641,-104.449 z
M 42.4388,-93.7521 L 42.051,-93.7672 L 41.5485,-93.7762 L 40.9313,-93.7793 L 30.8629,-93.7793 L 30.8629,-95.218
 L 34.232,-95.218 L 34.5043,-95.216 L 34.8033,-95.21 L 35.1293,-95.2 L 35.482,-95.1861 L 35.482,-95.218
 L 34.7819,-95.6577 L 34.2818,-96.2495 L 33.9818,-96.9932 L 33.8818,-97.8889 L 34.1604,-99.2572 L 34.9965,-100.234
 L 36.3898,-100.821 L 38.3405,-101.016 L 39.4036,-100.966 L 40.324,-100.813 L 41.1017,-100.559 L 41.7367,-100.204
 L 42.2294,-99.7544 L 42.5814,-99.2174 L 42.7925,-98.5928 L 42.8629,-97.8807 L 42.7709,-96.9819 L 42.495,-96.2371
 L 42.0351,-95.6464 L 41.3912,-95.2097 L 41.3912,-95.1932 L 41.5866,-95.1914 L 41.7859,-95.1861 L 41.9893,-95.1773
 L 42.1966,-95.1649 L 42.3858,-95.152 L 42.5348,-95.1404 L 42.6435,-95.1302 L 42.712,-95.1212 L 42.712,-93.7309
 z
M 39.2972,-95.2509 L 39.9702,-95.3497 L 40.5354,-95.5145 L 40.9926,-95.7451 L 41.3455,-96.0517 L 41.5976,-96.4432
 L 41.7488,-96.9196 L 41.7992,-97.4809 L 41.7471,-97.9832 L 41.5905,-98.4111 L 41.3296,-98.7645 L 40.9643,-99.0434
 L 40.4903,-99.2555 L 39.903,-99.4069 L 39.2025,-99.4978 L 38.3889,-99.5281 L 37.5556,-99.4974 L 36.8458,-99.4052
 L 36.2596,-99.2515 L 35.7969,-99.0364 L 35.4455,-98.7558 L 35.1946,-98.4057 L 35.044,-97.9863 L 34.9938,-97.4974
 L 35.0485,-96.9419 L 35.2126,-96.4674 L 35.486,-96.0739 L 35.8688,-95.7616 L 36.362,-95.5237 L 36.9676,-95.3539
 L 37.6857,-95.2519 L 38.5162,-95.218 z
M 6.91872,-70.9212 L 6.91872,-99.7545 L 11.9816,-99.7545 L 15.9355,-89.3485 L 16.194,-88.6183 L 16.5223,-87.5558
 L 16.9202,-86.161 L 17.3878,-84.4337 L 17.9423,-86.3492 L 18.8843,-89.3264 L 22.835,-99.7545 L 27.6426,-99.7545
 L 27.6426,-70.9212 L 24.1802,-70.9212 L 24.1802,-89.4745 L 24.1842,-90.8253 L 24.196,-91.9917 L 24.2157,-92.9739
 L 24.2433,-93.7717 L 24.3094,-95.9078 L 23.6697,-93.8775 L 23.1177,-92.1689 L 22.6536,-90.7822 L 22.2774,-89.717
 L 18.774,-80.3979 L 15.8473,-80.3979 L 12.303,-89.717 L 12.0306,-90.4702 L 11.598,-91.7531 L 11.0051,-93.5656
 L 10.252,-95.9078 L 10.337,-89.4745 L 10.337,-70.9212 z
M 40.4478,-75.7093 L 40.7744,-75.8071 L 41.0536,-75.9481 L 41.2856,-76.1325 L 41.4702,-76.3603 L 41.6105,-76.6545
 L 41.7108,-77.0372 L 41.7709,-77.5083 L 41.791,-78.0678 L 41.7063,-79.0125 L 41.4522,-79.6872 L 41.0288,-80.0921
 L 40.436,-80.227 L 40.1935,-80.2025 L 39.9755,-80.1288 L 39.782,-80.0061 L 39.6129,-79.8343 L 39.4627,-79.6126
 L 39.3269,-79.3391 L 39.2056,-79.0136 L 39.0987,-78.6362 L 38.8539,-77.6767 L 38.6371,-76.9101 L 38.4482,-76.3365
 L 38.2874,-75.9558 L 38.1309,-75.6886 L 37.9561,-75.4543 L 37.763,-75.2529 L 37.5516,-75.0843 L 37.3168,-74.9517
 L 37.0548,-74.857 L 36.7655,-74.8002 L 36.449,-74.7813 L 35.8954,-74.8343 L 35.4057,-74.9932 L 34.9797,-75.2582
 L 34.6176,-75.6291 L 34.3287,-76.1005 L 34.1223,-76.6669 L 33.9985,-77.3281 L 33.9572,-78.0843 L 33.9909,-78.7523
 L 34.0917,-79.3494 L 34.2597,-79.8755 L 34.495,-80.3308 L 34.7944,-80.7116 L 35.1551,-81.0133 L 35.5769,-81.2358
 L 36.0598,-81.3792 L 36.2214,-80.0832 L 35.9451,-80.0145 L 35.7046,-79.8968 L 35.4999,-79.7303 L 35.3311,-79.5148
 L 35.199,-79.2458 L 35.1047,-78.9178 L 35.048,-78.5306 L 35.0292,-78.0843 L 35.1039,-77.2269 L 35.3281,-76.6144
 L 35.7018,-76.2469 L 36.2249,-76.1244 L 36.4518,-76.1451 L 36.6548,-76.2073 L 36.8339,-76.3108 L 36.9891,-76.4558
 L 37.1254,-76.6473 L 37.2476,-76.8892 L 37.3559,-77.1815 L 37.4502,-77.5242 L 37.6978,-78.4758 L 37.8565,-79.0817
 L 38.0141,-79.5961 L 38.1707,-80.0192 L 38.3263,-80.3508 L 38.4911,-80.6216 L 38.6754,-80.8618 L 38.8791,-81.0714
 L 39.1023,-81.2506 L 39.3483,-81.394 L 39.6206,-81.4965 L 39.9191,-81.558 L 40.2438,-81.5784 L 40.8239,-81.5202
 L 41.3378,-81.3455 L 41.7856,-81.0544 L 42.1672,-80.6468 L 42.4715,-80.1363 L 42.689,-79.5363 L 42.8194,-78.8468
 L 42.8629,-78.0678 L 42.8303,-77.2934 L 42.7326,-76.6173 L 42.5697,-76.0398 L 42.3417,-75.5607 L 42.0435,-75.1681
 L 41.6701,-74.8499 L 41.2215,-74.6062 L 40.6978,-74.4369 z
M 37.3091,-64.6292 L 36.426,-64.8159 L 35.6664,-65.1269 L 35.0304,-65.5623 L 34.5278,-66.1157 L 34.1689,-66.7793
 L 33.9536,-67.5532 L 33.8818,-68.4373 L 33.9534,-69.3201 L 34.1683,-70.0889 L 34.5265,-70.7435 L 35.028,-71.284
 L 35.6743,-71.7076 L 36.467,-72.0101 L 37.406,-72.1917 L 38.4914,-72.2522 L 38.6837,-72.2522 L 38.6837,-66.0788
 L 39.3712,-66.1191 L 39.9799,-66.2398 L 40.5098,-66.441 L 40.9608,-66.7227 L 41.3209,-67.0743 L 41.5781,-67.4854
 L 41.7325,-67.9558 L 41.7839,-68.4857 L 41.7616,-68.885 L 41.6946,-69.2587 L 41.5829,-69.6067 L 41.4266,-69.9291
 L 41.231,-70.2134 L 41.0026,-70.4462 L 40.7416,-70.6273 L 40.4478,-70.7569 L 40.8087,-72.0199 L 41.2772,-71.8074
 L 41.6875,-71.5213 L 42.0396,-71.1618 L 42.3334,-70.7286 L 42.5651,-70.236 L 42.7305,-69.6979 L 42.8298,-69.1145
 L 42.8629,-68.4857 L 42.7894,-67.5962 L 42.5687,-66.8159 L 42.2009,-66.1446 L 41.686,-65.5824 L 41.034,-65.1382
 L 40.255,-64.8209 L 39.3489,-64.6305 L 38.3157,-64.567 z
M 37.5799,-70.764 L 36.4273,-70.5355 L 35.6041,-70.0741 L 35.1101,-69.3798 L 34.9454,-68.4527 L 34.9894,-67.9452
 L 35.1212,-67.4936 L 35.3408,-67.0979 L 35.6483,-66.7581 L 36.0326,-66.4826 L 36.4826,-66.2802 L 36.9984,-66.1507
 L 37.5799,-66.0941 z
M 30.8629,-55.7915 L 30.8629,-57.2314 L 38.2438,-57.2314 L 34.0327,-61.0297 L 34.0327,-62.7172 L 37.7662,-59.2066
 L 42.712,-62.9012 L 42.712,-61.2137 L 38.7096,-58.2868 L 39.4914,-57.2314 L 42.712,-57.2314 L 42.712,-55.7915
 z
M 15.2707,-32.0879 L 15.2707,-44.5891 L 4.93076,-60.9212 L 9.30995,-60.9212 L 17.2996,-47.8813 L 25.2483,-60.9212
 L 29.6275,-60.9212 L 19.2875,-44.5891 L 19.2875,-32.0879 z
M 41.5763,-45.4499 L 41.5763,-48.8237 L 35.1683,-48.8237 L 35.1683,-46.273 L 34.0327,-46.273 L 34.0327,-50.2636
 L 41.5763,-50.2636 L 41.5763,-53.3025 L 42.712,-53.3025 L 42.712,-45.4499 z
M 30.8629,-48.6645 L 30.8629,-50.2636 L 32.3983,-50.2636 L 32.3983,-48.6645 z
M 41.5763,-35.7793 L 41.5763,-39.1531 L 31.9985,-39.1531 L 31.9985,-36.843 L 30.8629,-36.843 L 30.8629,-40.593
 L 41.5763,-40.593 L 41.5763,-43.6319 L 42.712,-43.6319 L 42.712,-35.7793 z
M 37.7308,-27.7797 L 37.7308,-32.2573 L 39.0103,-32.2573 L 39.0103,-27.7797 z
" stroke="black" fill="lightgray" stroke-width="0.5"/>
</svg>
